<?xml version="1.0" encoding="UTF-8" standalone="no"?>
<svg xmlns:xlink="http://www.w3.org/1999/xlink" xmlns="http://www.w3.org/2000/svg"
     contentScriptType="application/ecmascript" contentStyleType="text/css" height="469px" preserveAspectRatio="none"
     style="width:1085px;height:469px;" version="1.1" viewBox="0 0 1085 469" width="1085px" zoomAndPan="magnify">
    <defs>
        <filter height="300%" id="fe9w6aoyr9fke" width="300%" x="-1" y="-1">
            <feGaussianBlur result="blurOut" stdDeviation="2.0"/>
            <feColorMatrix in="blurOut" result="blurOut2" type="matrix"
                           values="0 0 0 0 0 0 0 0 0 0 0 0 0 0 0 0 0 0 .4 0"/>
            <feOffset dx="4.0" dy="4.0" in="blurOut2" result="blurOut3"/>
            <feBlend in="SourceGraphic" in2="blurOut3" mode="normal"/>
        </filter>
    </defs>
    <g><!--MD5=[55497ca6df5e1e80d97c2ba5f282a5c4]
cluster nz.ac.vuw.ecs.swen225.gp20.recnplay-->
        <polygon fill="#FFFFFF" filter="url(#fe9w6aoyr9fke)"
                 points="16,176,331,176,338,198.2969,1063,198.2969,1063,441,16,441,16,176"
                 style="stroke: #000000; stroke-width: 1.5;"/>
        <line style="stroke: #000000; stroke-width: 1.5;" x1="16" x2="338" y1="198.2969" y2="198.2969"/>
        <text fill="#000000" font-family="sans-serif" font-size="14" font-weight="bold" lengthAdjust="spacingAndGlyphs"
              textLength="309" x="20" y="190.9951">nz.ac.vuw.ecs.swen225.gp20.recnplay
        </text><!--MD5=[aa8f7b917213fcc1c2766e2d59b49067]
cluster java.lang-->
        <polygon fill="#FFFFFF" filter="url(#fe9w6aoyr9fke)"
                 points="68,18.5,143,18.5,150,40.7969,228,40.7969,228,130.5,68,130.5,68,18.5"
                 style="stroke: #000000; stroke-width: 1.5;"/>
        <line style="stroke: #000000; stroke-width: 1.5;" x1="68" x2="150" y1="40.7969" y2="40.7969"/>
        <text fill="#000000" font-family="sans-serif" font-size="14" font-weight="bold" lengthAdjust="spacingAndGlyphs"
              textLength="69" x="72" y="33.4951">java.lang
        </text><!--MD5=[535aab4de90d4dfa371a9b40d5438fc3]
cluster javax.swing-->
        <polygon fill="#FFFFFF" filter="url(#fe9w6aoyr9fke)"
                 points="425,6,523,6,530,28.2969,697,28.2969,697,143,425,143,425,6"
                 style="stroke: #000000; stroke-width: 1.5;"/>
        <line style="stroke: #000000; stroke-width: 1.5;" x1="425" x2="530" y1="28.2969" y2="28.2969"/>
        <text fill="#000000" font-family="sans-serif" font-size="14" font-weight="bold" lengthAdjust="spacingAndGlyphs"
              textLength="92" x="429" y="20.9951">javax.swing
        </text><!--MD5=[edf7b49df920cefbcb929cbf9d37eb22]
class nz.ac.vuw.ecs.swen225.gp20.recnplay.RecordAndPlay-->
        <a href="RecordAndPlay.html" target="_top" title="RecordAndPlay.html" xlink:actuate="onRequest"
           xlink:href="RecordAndPlay.html" xlink:show="new" xlink:title="RecordAndPlay.html" xlink:type="simple">
            <rect codeLine="3" fill="#FEFECE" filter="url(#fe9w6aoyr9fke)" height="214.4609"
                  id="nz.ac.vuw.ecs.swen225.gp20.recnplay.RecordAndPlay" style="stroke: #A80036; stroke-width: 1.5;"
                  width="265" x="781.5" y="211"/>
            <ellipse cx="863.25" cy="227" fill="#ADD1B2" rx="11" ry="11" style="stroke: #A80036; stroke-width: 1.0;"/>
            <path d="M866.2188,232.6406 Q865.6406,232.9375 865,233.0781 Q864.3594,233.2344 863.6563,233.2344 Q861.1563,233.2344 859.8281,231.5938 Q858.5156,229.9375 858.5156,226.8125 Q858.5156,223.6875 859.8281,222.0313 Q861.1563,220.375 863.6563,220.375 Q864.3594,220.375 865,220.5313 Q865.6563,220.6875 866.2188,220.9844 L866.2188,223.7031 Q865.5938,223.125 865,222.8594 Q864.4063,222.5781 863.7813,222.5781 Q862.4375,222.5781 861.75,223.6563 Q861.0625,224.7188 861.0625,226.8125 Q861.0625,228.9063 861.75,229.9844 Q862.4375,231.0469 863.7813,231.0469 Q864.4063,231.0469 865,230.7813 Q865.5938,230.5 866.2188,229.9219 L866.2188,232.6406 Z "/>
            <text fill="#000000" font-family="sans-serif" font-size="12" lengthAdjust="spacingAndGlyphs" textLength="93"
                  x="883.75" y="231.1543">RecordAndPlay
            </text>
            <line style="stroke: #A80036; stroke-width: 1.5;" x1="782.5" x2="1045.5" y1="243" y2="243"/>
            <line style="stroke: #A80036; stroke-width: 1.5;" x1="782.5" x2="1045.5" y1="251" y2="251"/>
            <ellipse cx="792.5" cy="262" fill="#84BE84" rx="3" ry="3" style="stroke: #038048; stroke-width: 1.0;"/>
            <text fill="#000000" font-family="sans-serif" font-size="11" lengthAdjust="spacingAndGlyphs"
                  text-decoration="underline" textLength="140" x="801.5" y="265.2104">recordedMovesSize(): int
            </text>
            <ellipse cx="792.5" cy="274.8047" fill="#84BE84" rx="3" ry="3" style="stroke: #038048; stroke-width: 1.0;"/>
            <text fill="#000000" font-family="sans-serif" font-size="11" lengthAdjust="spacingAndGlyphs"
                  text-decoration="underline" textLength="122" x="801.5" y="278.0151">saveRecording(): void
            </text>
            <ellipse cx="792.5" cy="287.6094" fill="#84BE84" rx="3" ry="3" style="stroke: #038048; stroke-width: 1.0;"/>
            <text fill="#000000" font-family="sans-serif" font-size="11" lengthAdjust="spacingAndGlyphs"
                  text-decoration="underline" textLength="145" x="801.5" y="290.8198">loadRecording(Main): void
            </text>
            <ellipse cx="792.5" cy="300.4141" fill="#84BE84" rx="3" ry="3" style="stroke: #038048; stroke-width: 1.0;"/>
            <text fill="#000000" font-family="sans-serif" font-size="11" lengthAdjust="spacingAndGlyphs"
                  text-decoration="underline" textLength="193" x="801.5" y="303.6245">addMove(RecordedMove): boolean
            </text>
            <ellipse cx="792.5" cy="313.2188" fill="#84BE84" rx="3" ry="3" style="stroke: #038048; stroke-width: 1.0;"/>
            <text fill="#000000" font-family="sans-serif" font-size="11" lengthAdjust="spacingAndGlyphs"
                  text-decoration="underline" textLength="127" x="801.5" y="316.4292">isRecording(): boolean
            </text>
            <ellipse cx="792.5" cy="326.0234" fill="#84BE84" rx="3" ry="3" style="stroke: #038048; stroke-width: 1.0;"/>
            <text fill="#000000" font-family="sans-serif" font-size="11" lengthAdjust="spacingAndGlyphs"
                  text-decoration="underline" textLength="175" x="801.5" y="329.2339">getPlayingRecording(): boolean
            </text>
            <ellipse cx="792.5" cy="338.8281" fill="#84BE84" rx="3" ry="3" style="stroke: #038048; stroke-width: 1.0;"/>
            <text fill="#000000" font-family="sans-serif" font-size="11" lengthAdjust="spacingAndGlyphs"
                  text-decoration="underline" textLength="156" x="801.5" y="342.0386">endPlayingRecording(): void
            </text>
            <ellipse cx="792.5" cy="351.6328" fill="#84BE84" rx="3" ry="3" style="stroke: #038048; stroke-width: 1.0;"/>
            <text fill="#000000" font-family="sans-serif" font-size="11" lengthAdjust="spacingAndGlyphs"
                  text-decoration="underline" textLength="148" x="801.5" y="354.8433">recordLevelChange(): void
            </text>
            <ellipse cx="792.5" cy="364.4375" fill="#84BE84" rx="3" ry="3" style="stroke: #038048; stroke-width: 1.0;"/>
            <text fill="#000000" font-family="sans-serif" font-size="11" lengthAdjust="spacingAndGlyphs"
                  text-decoration="underline" textLength="148" x="801.5" y="367.6479">startRecording(Main): void
            </text>
            <ellipse cx="792.5" cy="377.2422" fill="#84BE84" rx="3" ry="3" style="stroke: #038048; stroke-width: 1.0;"/>
            <text fill="#000000" font-family="sans-serif" font-size="11" lengthAdjust="spacingAndGlyphs"
                  text-decoration="underline" textLength="110" x="801.5" y="380.4526">stepForward(): void
            </text>
            <ellipse cx="792.5" cy="390.0469" fill="#84BE84" rx="3" ry="3" style="stroke: #038048; stroke-width: 1.0;"/>
            <text fill="#000000" font-family="sans-serif" font-size="11" lengthAdjust="spacingAndGlyphs"
                  text-decoration="underline" textLength="119" x="801.5" y="393.2573">stepBackward(): void
            </text>
            <ellipse cx="792.5" cy="402.8516" fill="#84BE84" rx="3" ry="3" style="stroke: #038048; stroke-width: 1.0;"/>
            <text fill="#000000" font-family="sans-serif" font-size="11" lengthAdjust="spacingAndGlyphs"
                  text-decoration="underline" textLength="144" x="801.5" y="406.062">playRecording(Main): void
            </text>
            <ellipse cx="792.5" cy="415.6563" fill="#84BE84" rx="3" ry="3" style="stroke: #038048; stroke-width: 1.0;"/>
            <text fill="#000000" font-family="sans-serif" font-size="11" lengthAdjust="spacingAndGlyphs"
                  text-decoration="underline" textLength="239" x="801.5" y="418.8667">setRecordingMode(ReplayModes,
                int): void
            </text>
        </a><!--MD5=[95456585febf57da48f20dfb18bb04f7]
class nz.ac.vuw.ecs.swen225.gp20.recnplay.RecordedMove-->
        <a href="RecordedMove.html" target="_top" title="RecordedMove.html" xlink:actuate="onRequest"
           xlink:href="RecordedMove.html" xlink:show="new" xlink:title="RecordedMove.html" xlink:type="simple">
            <rect codeLine="19" fill="#FEFECE" filter="url(#fe9w6aoyr9fke)" height="124.8281"
                  id="nz.ac.vuw.ecs.swen225.gp20.recnplay.RecordedMove" style="stroke: #A80036; stroke-width: 1.5;"
                  width="232" x="32" y="255.5"/>
            <ellipse cx="97.75" cy="271.5" fill="#ADD1B2" rx="11" ry="11" style="stroke: #A80036; stroke-width: 1.0;"/>
            <path d="M100.7188,277.1406 Q100.1406,277.4375 99.5,277.5781 Q98.8594,277.7344 98.1563,277.7344 Q95.6563,277.7344 94.3281,276.0938 Q93.0156,274.4375 93.0156,271.3125 Q93.0156,268.1875 94.3281,266.5313 Q95.6563,264.875 98.1563,264.875 Q98.8594,264.875 99.5,265.0313 Q100.1563,265.1875 100.7188,265.4844 L100.7188,268.2031 Q100.0938,267.625 99.5,267.3594 Q98.9063,267.0781 98.2813,267.0781 Q96.9375,267.0781 96.25,268.1563 Q95.5625,269.2188 95.5625,271.3125 Q95.5625,273.4063 96.25,274.4844 Q96.9375,275.5469 98.2813,275.5469 Q98.9063,275.5469 99.5,275.2813 Q100.0938,275 100.7188,274.4219 L100.7188,277.1406 Z "/>
            <text fill="#000000" font-family="sans-serif" font-size="12" lengthAdjust="spacingAndGlyphs" textLength="92"
                  x="118.25" y="275.6543">RecordedMove
            </text>
            <line style="stroke: #A80036; stroke-width: 1.5;" x1="33" x2="263" y1="287.5" y2="287.5"/>
            <line style="stroke: #A80036; stroke-width: 1.5;" x1="33" x2="263" y1="295.5" y2="295.5"/>
            <ellipse cx="43" cy="306.5" fill="#84BE84" rx="3" ry="3" style="stroke: #038048; stroke-width: 1.0;"/>
            <text fill="#000000" font-family="sans-serif" font-size="11" lengthAdjust="spacingAndGlyphs"
                  textLength="206" x="52" y="309.7104">RecordedMove(Direction, int, int, int)
            </text>
            <ellipse cx="43" cy="319.3047" fill="#84BE84" rx="3" ry="3" style="stroke: #038048; stroke-width: 1.0;"/>
            <text fill="#000000" font-family="sans-serif" font-size="11" lengthAdjust="spacingAndGlyphs"
                  textLength="134" x="52" y="322.5151">getDirection(): Direction
            </text>
            <ellipse cx="43" cy="332.1094" fill="#84BE84" rx="3" ry="3" style="stroke: #038048; stroke-width: 1.0;"/>
            <text fill="#000000" font-family="sans-serif" font-size="11" lengthAdjust="spacingAndGlyphs" textLength="97"
                  x="52" y="335.3198">getTimeLeft(): int
            </text>
            <ellipse cx="43" cy="344.9141" fill="#84BE84" rx="3" ry="3" style="stroke: #038048; stroke-width: 1.0;"/>
            <text fill="#000000" font-family="sans-serif" font-size="11" lengthAdjust="spacingAndGlyphs"
                  textLength="107" x="52" y="348.1245">getMoveIndex(): int
            </text>
            <ellipse cx="43" cy="357.7188" fill="#84BE84" rx="3" ry="3" style="stroke: #038048; stroke-width: 1.0;"/>
            <text fill="#000000" font-family="sans-serif" font-size="11" lengthAdjust="spacingAndGlyphs"
                  textLength="176" x="52" y="360.9292">compareTo(RecordedMove): int
            </text>
            <ellipse cx="43" cy="370.5234" fill="#84BE84" rx="3" ry="3" style="stroke: #038048; stroke-width: 1.0;"/>
            <text fill="#000000" font-family="sans-serif" font-size="11" lengthAdjust="spacingAndGlyphs" textLength="77"
                  x="52" y="373.7339">getLevel(): int
            </text>
        </a><!--MD5=[eb078421526276a38cf020610a62fb10]
class nz.ac.vuw.ecs.swen225.gp20.recnplay.ReplayOptionDialog-->
        <a href="ReplayOptionDialog.html" target="_top" title="ReplayOptionDialog.html" xlink:actuate="onRequest"
           xlink:href="ReplayOptionDialog.html" xlink:show="new" xlink:title="ReplayOptionDialog.html"
           xlink:type="simple">
            <rect codeLine="28" fill="#FEFECE" filter="url(#fe9w6aoyr9fke)" height="60.8047"
                  id="nz.ac.vuw.ecs.swen225.gp20.recnplay.ReplayOptionDialog"
                  style="stroke: #A80036; stroke-width: 1.5;" width="371" x="375.5" y="287.5"/>
            <ellipse cx="496.25" cy="303.5" fill="#ADD1B2" rx="11" ry="11" style="stroke: #A80036; stroke-width: 1.0;"/>
            <path d="M499.2188,309.1406 Q498.6406,309.4375 498,309.5781 Q497.3594,309.7344 496.6563,309.7344 Q494.1563,309.7344 492.8281,308.0938 Q491.5156,306.4375 491.5156,303.3125 Q491.5156,300.1875 492.8281,298.5313 Q494.1563,296.875 496.6563,296.875 Q497.3594,296.875 498,297.0313 Q498.6563,297.1875 499.2188,297.4844 L499.2188,300.2031 Q498.5938,299.625 498,299.3594 Q497.4063,299.0781 496.7813,299.0781 Q495.4375,299.0781 494.75,300.1563 Q494.0625,301.2188 494.0625,303.3125 Q494.0625,305.4063 494.75,306.4844 Q495.4375,307.5469 496.7813,307.5469 Q497.4063,307.5469 498,307.2813 Q498.5938,307 499.2188,306.4219 L499.2188,309.1406 Z "/>
            <text fill="#000000" font-family="sans-serif" font-size="12" lengthAdjust="spacingAndGlyphs"
                  textLength="121" x="516.75" y="307.6543">ReplayOptionDialog
            </text>
            <line style="stroke: #A80036; stroke-width: 1.5;" x1="376.5" x2="745.5" y1="319.5" y2="319.5"/>
            <line style="stroke: #A80036; stroke-width: 1.5;" x1="376.5" x2="745.5" y1="327.5" y2="327.5"/>
            <ellipse cx="386.5" cy="338.5" fill="#84BE84" rx="3" ry="3" style="stroke: #038048; stroke-width: 1.0;"/>
            <text fill="#000000" font-family="sans-serif" font-size="11" lengthAdjust="spacingAndGlyphs"
                  textLength="345" x="395.5" y="341.7104">ReplayOptionDialog(Main, String, ArrayList&lt;JButton&gt;,
                JSlider)
            </text>
        </a><!--MD5=[008d82c49f85b4d489e041917c99c847]
class java.lang.Comparable-->
        <rect codeLine="38" fill="#FEFECE" filter="url(#fe9w6aoyr9fke)" height="60.8047" id="java.lang.Comparable"
              style="stroke: #A80036; stroke-width: 1.5;" width="127" x="84.5" y="53.5"/>
        <ellipse cx="103.55" cy="69.5" fill="#B4A7E5" rx="11" ry="11" style="stroke: #A80036; stroke-width: 1.0;"/>
        <path d="M99.4719,65.2656 L99.4719,63.1094 L106.8625,63.1094 L106.8625,65.2656 L104.3938,65.2656 L104.3938,73.3438 L106.8625,73.3438 L106.8625,75.5 L99.4719,75.5 L99.4719,73.3438 L101.9406,73.3438 L101.9406,65.2656 L99.4719,65.2656 Z "/>
        <text fill="#000000" font-family="sans-serif" font-size="12" font-style="italic" lengthAdjust="spacingAndGlyphs"
              textLength="75" x="118.45" y="73.6543">Comparable
        </text>
        <rect fill="#FFFFFF" height="15.9688" style="stroke: #000000; stroke-width: 1.0; stroke-dasharray: 2.0,2.0;"
              width="9" x="205.5" y="50.5"/>
        <text fill="#000000" font-family="sans-serif" font-size="12" font-style="italic" lengthAdjust="spacingAndGlyphs"
              textLength="7" x="206.5" y="62.6387">T
        </text>
        <line style="stroke: #A80036; stroke-width: 1.5;" x1="85.5" x2="210.5" y1="85.5" y2="85.5"/>
        <line style="stroke: #A80036; stroke-width: 1.5;" x1="85.5" x2="210.5" y1="93.5" y2="93.5"/>
        <ellipse cx="95.5" cy="104.5" fill="#84BE84" rx="3" ry="3" style="stroke: #038048; stroke-width: 1.0;"/>
        <text fill="#000000" font-family="sans-serif" font-size="11" font-style="italic" lengthAdjust="spacingAndGlyphs"
              textLength="101" x="104.5" y="107.7104">compareTo(T): int
        </text><!--MD5=[c13749207e1e160b2790bec8d09e837f]
class javax.swing.JDialog-->
        <rect codeLine="44" fill="#FEFECE" filter="url(#fe9w6aoyr9fke)" height="86.4141" id="javax.swing.JDialog"
              style="stroke: #A80036; stroke-width: 1.5;" width="240" x="441" y="41"/>
        <ellipse cx="535.75" cy="57" fill="#ADD1B2" rx="11" ry="11" style="stroke: #A80036; stroke-width: 1.0;"/>
        <path d="M538.7188,62.6406 Q538.1406,62.9375 537.5,63.0781 Q536.8594,63.2344 536.1563,63.2344 Q533.6563,63.2344 532.3281,61.5938 Q531.0156,59.9375 531.0156,56.8125 Q531.0156,53.6875 532.3281,52.0313 Q533.6563,50.375 536.1563,50.375 Q536.8594,50.375 537.5,50.5313 Q538.1563,50.6875 538.7188,50.9844 L538.7188,53.7031 Q538.0938,53.125 537.5,52.8594 Q536.9063,52.5781 536.2813,52.5781 Q534.9375,52.5781 534.25,53.6563 Q533.5625,54.7188 533.5625,56.8125 Q533.5625,58.9063 534.25,59.9844 Q534.9375,61.0469 536.2813,61.0469 Q536.9063,61.0469 537.5,60.7813 Q538.0938,60.5 538.7188,59.9219 L538.7188,62.6406 Z "/>
        <text fill="#000000" font-family="sans-serif" font-size="12" lengthAdjust="spacingAndGlyphs" textLength="42"
              x="556.25" y="61.1543">JDialog
        </text>
        <line style="stroke: #A80036; stroke-width: 1.5;" x1="442" x2="680" y1="73" y2="73"/>
        <polygon fill="none" points="452,79,456,83,452,87,448,83" style="stroke: #B38D22; stroke-width: 1.0;"/>
        <text fill="#000000" font-family="sans-serif" font-size="11" lengthAdjust="spacingAndGlyphs" textLength="115"
              x="461" y="87.2104">rootPane: JRootPane
        </text>
        <polygon fill="none" points="452,91.8047,456,95.8047,452,99.8047,448,95.8047"
                 style="stroke: #B38D22; stroke-width: 1.0;"/>
        <text fill="#000000" font-family="sans-serif" font-size="11" lengthAdjust="spacingAndGlyphs" textLength="200"
              x="461" y="100.0151">rootPaneCheckingEnabled: boolean
        </text>
        <polygon fill="none" points="452,104.6094,456,108.6094,452,112.6094,448,108.6094"
                 style="stroke: #B38D22; stroke-width: 1.0;"/>
        <text fill="#000000" font-family="sans-serif" font-size="11" lengthAdjust="spacingAndGlyphs" textLength="214"
              x="461" y="112.8198">accessibleContext: AccessibleContext
        </text>
        <line style="stroke: #A80036; stroke-width: 1.5;" x1="442" x2="680" y1="119.4141" y2="119.4141"/><!--MD5=[92214170aeb1d05e034779fcc6a9c15a]
reverse link java.lang.Comparable to nz.ac.vuw.ecs.swen225.gp20.recnplay.RecordedMove-->
        <path codeLine="32" d="M148,135.06 C148,170.37 148,217.88 148,255.49 " fill="none"
              id="java.lang.Comparable-backto-nz.ac.vuw.ecs.swen225.gp20.recnplay.RecordedMove"
              style="stroke: #A80036; stroke-width: 1.0; stroke-dasharray: 7.0,7.0;"/>
        <polygon fill="none" points="141,134.86,148,114.85,155,134.85,141,134.86"
                 style="stroke: #A80036; stroke-width: 1.0;"/><!--MD5=[9ac900385d7e06459a1dbffe8c8ea7d5]
link nz.ac.vuw.ecs.swen225.gp20.recnplay.RecordedMove to nz.ac.vuw.ecs.swen225.gp20.recnplay.RecordedMove-->
        <path codeLine="33" d="M264.18,290.17 C284.7,293.83 299,303.11 299,318 C299,331.61 287.05,340.53 269.32,344.76 "
              fill="none"
              id="nz.ac.vuw.ecs.swen225.gp20.recnplay.RecordedMove-to-nz.ac.vuw.ecs.swen225.gp20.recnplay.RecordedMove"
              style="stroke: #A80036; stroke-width: 1.0;"/>
        <polygon fill="#A80036"
                 points="264.18,345.83,273.804,347.9227,269.0762,344.8165,272.1824,340.0887,264.18,345.83"
                 style="stroke: #A80036; stroke-width: 1.0;"/>
        <text fill="#000000" font-family="sans-serif" font-size="13" lengthAdjust="spacingAndGlyphs" textLength="46"
              x="305" y="322.5669">inverse
        </text><!--MD5=[f214c584f9b91d79b84a857dfadab297]
reverse link javax.swing.JDialog to nz.ac.vuw.ecs.swen225.gp20.recnplay.ReplayOptionDialog-->
        <path codeLine="34" d="M561,147.08 C561,192.56 561,252.26 561,287.44 " fill="none"
              id="javax.swing.JDialog-backto-nz.ac.vuw.ecs.swen225.gp20.recnplay.ReplayOptionDialog"
              style="stroke: #A80036; stroke-width: 1.0;"/>
        <polygon fill="none" points="554,147.01,561,127.01,568,147.01,554,147.01"
                 style="stroke: #A80036; stroke-width: 1.0;"/>
        <text fill="#888888" font-family="sans-serif" font-size="10" lengthAdjust="spacingAndGlyphs" textLength="192"
              x="437.5" y="456.2822">UMLDoclet 2.0.12, PlantUML 1.2020.16
        </text><!--MD5=[8ecf4cbe78c2c042b21ff417b24ddc4a]
@startuml
    namespace nz.ac.vuw.ecs.swen225.gp20.recnplay {

        class RecordAndPlay [[RecordAndPlay.html]] {
            {static} +recordedMovesSize(): int
            {static} +saveRecording(): void
            {static} +loadRecording(Main): void
            {static} +addMove(RecordedMove): boolean
            {static} +isRecording(): boolean
            {static} +getPlayingRecording(): boolean
            {static} +endPlayingRecording(): void
            {static} +recordLevelChange(): void
            {static} +startRecording(Main): void
            {static} +stepForward(): void
            {static} +stepBackward(): void
            {static} +playRecording(Main): void
            {static} +setRecordingMode(ReplayModes, int): void
        }

        class RecordedMove [[RecordedMove.html]] {
            +RecordedMove(Direction, int, int, int)
            +getDirection(): Direction
            +getTimeLeft(): int
            +getMoveIndex(): int
            +compareTo(RecordedMove): int
            +getLevel(): int
        }

        class ReplayOptionDialog [[ReplayOptionDialog.html]] {
            +ReplayOptionDialog(Main, String, ArrayList<JButton>, JSlider)
        }

        java.lang.Comparable <|.. RecordedMove
        RecordedMove - -> RecordedMove: inverse
        javax.swing.JDialog <|- - ReplayOptionDialog
    }

    namespace java.lang {
        interface Comparable<T> {
            {abstract} +compareTo(T): int
        }
    }

    namespace javax.swing {
        class JDialog {
            #rootPane: JRootPane
            #rootPaneCheckingEnabled: boolean
            #accessibleContext: AccessibleContext
        }
    }

    center footer UMLDoclet 2.0.12, PlantUML 1.2020.16
@enduml

PlantUML version 1.2020.16(Mon Aug 24 08:20:43 NZST 2020)
(APACHE source distribution)
Java Runtime: OpenJDK Runtime Environment
JVM: OpenJDK 64-Bit Server VM
Default Encoding: UTF-8
Language: en
Country: null
-->
    </g>
</svg>