<?xml version="1.0" encoding="UTF-8" standalone="no"?><svg xmlns:xlink="http://www.w3.org/1999/xlink" xmlns="http://www.w3.org/2000/svg" contentScriptType="application/ecmascript" contentStyleType="text/css" height="444px" preserveAspectRatio="none" style="width:679px;height:444px;" version="1.1" viewBox="0 0 679 444" width="679px" zoomAndPan="magnify"><defs><filter height="300%" id="fi6u8iygl6ev" width="300%" x="-1" y="-1"><feGaussianBlur result="blurOut" stdDeviation="2.0"/><feColorMatrix in="blurOut" result="blurOut2" type="matrix" values="0 0 0 0 0 0 0 0 0 0 0 0 0 0 0 0 0 0 .4 0"/><feOffset dx="4.0" dy="4.0" in="blurOut2" result="blurOut3"/><feBlend in="SourceGraphic" in2="blurOut3" mode="normal"/></filter></defs><g><!--MD5=[55497ca6df5e1e80d97c2ba5f282a5c4]
cluster nz.ac.vuw.ecs.swen225.gp20.recnplay--><polygon fill="#FFFFFF" filter="url(#fi6u8iygl6ev)" points="16,151,331,151,338,173.2969,657,173.2969,657,416,16,416,16,151" style="stroke: #000000; stroke-width: 1.5;"/><line style="stroke: #000000; stroke-width: 1.5;" x1="16" x2="338" y1="173.2969" y2="173.2969"/><text fill="#000000" font-family="sans-serif" font-size="14" font-weight="bold" lengthAdjust="spacingAndGlyphs" textLength="309" x="20" y="165.9951">nz.ac.vuw.ecs.swen225.gp20.recnplay</text><!--MD5=[aa8f7b917213fcc1c2766e2d59b49067]
cluster java.lang--><polygon fill="#FFFFFF" filter="url(#fi6u8iygl6ev)" points="68,6,143,6,150,28.2969,228,28.2969,228,118,68,118,68,6" style="stroke: #000000; stroke-width: 1.5;"/><line style="stroke: #000000; stroke-width: 1.5;" x1="68" x2="150" y1="28.2969" y2="28.2969"/><text fill="#000000" font-family="sans-serif" font-size="14" font-weight="bold" lengthAdjust="spacingAndGlyphs" textLength="69" x="72" y="20.9951">java.lang</text><!--MD5=[edf7b49df920cefbcb929cbf9d37eb22]
class nz.ac.vuw.ecs.swen225.gp20.recnplay.RecordAndPlay--><a href="RecordAndPlay.html" target="_top" title="RecordAndPlay.html" xlink:actuate="onRequest" xlink:href="RecordAndPlay.html" xlink:show="new" xlink:title="RecordAndPlay.html" xlink:type="simple"><rect codeLine="3" fill="#FEFECE" filter="url(#fi6u8iygl6ev)" height="214.4609" id="nz.ac.vuw.ecs.swen225.gp20.recnplay.RecordAndPlay" style="stroke: #A80036; stroke-width: 1.5;" width="265" x="375.5" y="186"/><ellipse cx="457.25" cy="202" fill="#ADD1B2" rx="11" ry="11" style="stroke: #A80036; stroke-width: 1.0;"/><path d="M460.2188,207.6406 Q459.6406,207.9375 459,208.0781 Q458.3594,208.2344 457.6563,208.2344 Q455.1563,208.2344 453.8281,206.5938 Q452.5156,204.9375 452.5156,201.8125 Q452.5156,198.6875 453.8281,197.0313 Q455.1563,195.375 457.6563,195.375 Q458.3594,195.375 459,195.5313 Q459.6563,195.6875 460.2188,195.9844 L460.2188,198.7031 Q459.5938,198.125 459,197.8594 Q458.4063,197.5781 457.7813,197.5781 Q456.4375,197.5781 455.75,198.6563 Q455.0625,199.7188 455.0625,201.8125 Q455.0625,203.9063 455.75,204.9844 Q456.4375,206.0469 457.7813,206.0469 Q458.4063,206.0469 459,205.7813 Q459.5938,205.5 460.2188,204.9219 L460.2188,207.6406 Z "/><text fill="#000000" font-family="sans-serif" font-size="12" lengthAdjust="spacingAndGlyphs" textLength="93" x="477.75" y="206.1543">RecordAndPlay</text><line style="stroke: #A80036; stroke-width: 1.5;" x1="376.5" x2="639.5" y1="218" y2="218"/><line style="stroke: #A80036; stroke-width: 1.5;" x1="376.5" x2="639.5" y1="226" y2="226"/><ellipse cx="386.5" cy="237" fill="#84BE84" rx="3" ry="3" style="stroke: #038048; stroke-width: 1.0;"/><text fill="#000000" font-family="sans-serif" font-size="11" lengthAdjust="spacingAndGlyphs" text-decoration="underline" textLength="140" x="395.5" y="240.2104">recordedMovesSize(): int</text><ellipse cx="386.5" cy="249.8047" fill="#84BE84" rx="3" ry="3" style="stroke: #038048; stroke-width: 1.0;"/><text fill="#000000" font-family="sans-serif" font-size="11" lengthAdjust="spacingAndGlyphs" text-decoration="underline" textLength="122" x="395.5" y="253.0151">saveRecording(): void</text><ellipse cx="386.5" cy="262.6094" fill="#84BE84" rx="3" ry="3" style="stroke: #038048; stroke-width: 1.0;"/><text fill="#000000" font-family="sans-serif" font-size="11" lengthAdjust="spacingAndGlyphs" text-decoration="underline" textLength="145" x="395.5" y="265.8198">loadRecording(Main): void</text><ellipse cx="386.5" cy="275.4141" fill="#84BE84" rx="3" ry="3" style="stroke: #038048; stroke-width: 1.0;"/><text fill="#000000" font-family="sans-serif" font-size="11" lengthAdjust="spacingAndGlyphs" text-decoration="underline" textLength="193" x="395.5" y="278.6245">addMove(RecordedMove): boolean</text><ellipse cx="386.5" cy="288.2188" fill="#84BE84" rx="3" ry="3" style="stroke: #038048; stroke-width: 1.0;"/><text fill="#000000" font-family="sans-serif" font-size="11" lengthAdjust="spacingAndGlyphs" text-decoration="underline" textLength="127" x="395.5" y="291.4292">isRecording(): boolean</text><ellipse cx="386.5" cy="301.0234" fill="#84BE84" rx="3" ry="3" style="stroke: #038048; stroke-width: 1.0;"/><text fill="#000000" font-family="sans-serif" font-size="11" lengthAdjust="spacingAndGlyphs" text-decoration="underline" textLength="175" x="395.5" y="304.2339">getPlayingRecording(): boolean</text><ellipse cx="386.5" cy="313.8281" fill="#84BE84" rx="3" ry="3" style="stroke: #038048; stroke-width: 1.0;"/><text fill="#000000" font-family="sans-serif" font-size="11" lengthAdjust="spacingAndGlyphs" text-decoration="underline" textLength="156" x="395.5" y="317.0386">endPlayingRecording(): void</text><ellipse cx="386.5" cy="326.6328" fill="#84BE84" rx="3" ry="3" style="stroke: #038048; stroke-width: 1.0;"/><text fill="#000000" font-family="sans-serif" font-size="11" lengthAdjust="spacingAndGlyphs" text-decoration="underline" textLength="148" x="395.5" y="329.8433">recordLevelChange(): void</text><ellipse cx="386.5" cy="339.4375" fill="#84BE84" rx="3" ry="3" style="stroke: #038048; stroke-width: 1.0;"/><text fill="#000000" font-family="sans-serif" font-size="11" lengthAdjust="spacingAndGlyphs" text-decoration="underline" textLength="148" x="395.5" y="342.6479">startRecording(Main): void</text><ellipse cx="386.5" cy="352.2422" fill="#84BE84" rx="3" ry="3" style="stroke: #038048; stroke-width: 1.0;"/><text fill="#000000" font-family="sans-serif" font-size="11" lengthAdjust="spacingAndGlyphs" text-decoration="underline" textLength="110" x="395.5" y="355.4526">stepForward(): void</text><ellipse cx="386.5" cy="365.0469" fill="#84BE84" rx="3" ry="3" style="stroke: #038048; stroke-width: 1.0;"/><text fill="#000000" font-family="sans-serif" font-size="11" lengthAdjust="spacingAndGlyphs" text-decoration="underline" textLength="119" x="395.5" y="368.2573">stepBackward(): void</text><ellipse cx="386.5" cy="377.8516" fill="#84BE84" rx="3" ry="3" style="stroke: #038048; stroke-width: 1.0;"/><text fill="#000000" font-family="sans-serif" font-size="11" lengthAdjust="spacingAndGlyphs" text-decoration="underline" textLength="144" x="395.5" y="381.062">playRecording(Main): void</text><ellipse cx="386.5" cy="390.6563" fill="#84BE84" rx="3" ry="3" style="stroke: #038048; stroke-width: 1.0;"/><text fill="#000000" font-family="sans-serif" font-size="11" lengthAdjust="spacingAndGlyphs" text-decoration="underline" textLength="239" x="395.5" y="393.8667">setRecordingMode(ReplayModes, int): void</text></a><!--MD5=[95456585febf57da48f20dfb18bb04f7]
class nz.ac.vuw.ecs.swen225.gp20.recnplay.RecordedMove--><a href="RecordedMove.html" target="_top" title="RecordedMove.html" xlink:actuate="onRequest" xlink:href="RecordedMove.html" xlink:show="new" xlink:title="RecordedMove.html" xlink:type="simple"><rect codeLine="19" fill="#FEFECE" filter="url(#fi6u8iygl6ev)" height="124.8281" id="nz.ac.vuw.ecs.swen225.gp20.recnplay.RecordedMove" style="stroke: #A80036; stroke-width: 1.5;" width="232" x="32" y="230.5"/><ellipse cx="97.75" cy="246.5" fill="#ADD1B2" rx="11" ry="11" style="stroke: #A80036; stroke-width: 1.0;"/><path d="M100.7188,252.1406 Q100.1406,252.4375 99.5,252.5781 Q98.8594,252.7344 98.1563,252.7344 Q95.6563,252.7344 94.3281,251.0938 Q93.0156,249.4375 93.0156,246.3125 Q93.0156,243.1875 94.3281,241.5313 Q95.6563,239.875 98.1563,239.875 Q98.8594,239.875 99.5,240.0313 Q100.1563,240.1875 100.7188,240.4844 L100.7188,243.2031 Q100.0938,242.625 99.5,242.3594 Q98.9063,242.0781 98.2813,242.0781 Q96.9375,242.0781 96.25,243.1563 Q95.5625,244.2188 95.5625,246.3125 Q95.5625,248.4063 96.25,249.4844 Q96.9375,250.5469 98.2813,250.5469 Q98.9063,250.5469 99.5,250.2813 Q100.0938,250 100.7188,249.4219 L100.7188,252.1406 Z "/><text fill="#000000" font-family="sans-serif" font-size="12" lengthAdjust="spacingAndGlyphs" textLength="92" x="118.25" y="250.6543">RecordedMove</text><line style="stroke: #A80036; stroke-width: 1.5;" x1="33" x2="263" y1="262.5" y2="262.5"/><line style="stroke: #A80036; stroke-width: 1.5;" x1="33" x2="263" y1="270.5" y2="270.5"/><ellipse cx="43" cy="281.5" fill="#84BE84" rx="3" ry="3" style="stroke: #038048; stroke-width: 1.0;"/><text fill="#000000" font-family="sans-serif" font-size="11" lengthAdjust="spacingAndGlyphs" textLength="206" x="52" y="284.7104">RecordedMove(Direction, int, int, int)</text><ellipse cx="43" cy="294.3047" fill="#84BE84" rx="3" ry="3" style="stroke: #038048; stroke-width: 1.0;"/><text fill="#000000" font-family="sans-serif" font-size="11" lengthAdjust="spacingAndGlyphs" textLength="134" x="52" y="297.5151">getDirection(): Direction</text><ellipse cx="43" cy="307.1094" fill="#84BE84" rx="3" ry="3" style="stroke: #038048; stroke-width: 1.0;"/><text fill="#000000" font-family="sans-serif" font-size="11" lengthAdjust="spacingAndGlyphs" textLength="97" x="52" y="310.3198">getTimeLeft(): int</text><ellipse cx="43" cy="319.9141" fill="#84BE84" rx="3" ry="3" style="stroke: #038048; stroke-width: 1.0;"/><text fill="#000000" font-family="sans-serif" font-size="11" lengthAdjust="spacingAndGlyphs" textLength="107" x="52" y="323.1245">getMoveIndex(): int</text><ellipse cx="43" cy="332.7188" fill="#84BE84" rx="3" ry="3" style="stroke: #038048; stroke-width: 1.0;"/><text fill="#000000" font-family="sans-serif" font-size="11" lengthAdjust="spacingAndGlyphs" textLength="176" x="52" y="335.9292">compareTo(RecordedMove): int</text><ellipse cx="43" cy="345.5234" fill="#84BE84" rx="3" ry="3" style="stroke: #038048; stroke-width: 1.0;"/><text fill="#000000" font-family="sans-serif" font-size="11" lengthAdjust="spacingAndGlyphs" textLength="77" x="52" y="348.7339">getLevel(): int</text></a><!--MD5=[008d82c49f85b4d489e041917c99c847]
class java.lang.Comparable--><rect codeLine="33" fill="#FEFECE" filter="url(#fi6u8iygl6ev)" height="60.8047" id="java.lang.Comparable" style="stroke: #A80036; stroke-width: 1.5;" width="127" x="84.5" y="41"/><ellipse cx="103.55" cy="57" fill="#B4A7E5" rx="11" ry="11" style="stroke: #A80036; stroke-width: 1.0;"/><path d="M99.4719,52.7656 L99.4719,50.6094 L106.8625,50.6094 L106.8625,52.7656 L104.3938,52.7656 L104.3938,60.8438 L106.8625,60.8438 L106.8625,63 L99.4719,63 L99.4719,60.8438 L101.9406,60.8438 L101.9406,52.7656 L99.4719,52.7656 Z "/><text fill="#000000" font-family="sans-serif" font-size="12" font-style="italic" lengthAdjust="spacingAndGlyphs" textLength="75" x="118.45" y="61.1543">Comparable</text><rect fill="#FFFFFF" height="15.9688" style="stroke: #000000; stroke-width: 1.0; stroke-dasharray: 2.0,2.0;" width="9" x="205.5" y="38"/><text fill="#000000" font-family="sans-serif" font-size="12" font-style="italic" lengthAdjust="spacingAndGlyphs" textLength="7" x="206.5" y="50.1387">T</text><line style="stroke: #A80036; stroke-width: 1.5;" x1="85.5" x2="210.5" y1="73" y2="73"/><line style="stroke: #A80036; stroke-width: 1.5;" x1="85.5" x2="210.5" y1="81" y2="81"/><ellipse cx="95.5" cy="92" fill="#84BE84" rx="3" ry="3" style="stroke: #038048; stroke-width: 1.0;"/><text fill="#000000" font-family="sans-serif" font-size="11" font-style="italic" lengthAdjust="spacingAndGlyphs" textLength="101" x="104.5" y="95.2104">compareTo(T): int</text><!--MD5=[92214170aeb1d05e034779fcc6a9c15a]
reverse link java.lang.Comparable to nz.ac.vuw.ecs.swen225.gp20.recnplay.RecordedMove--><path codeLine="28" d="M148,122.45 C148,154.39 148,196.06 148,230.1 " fill="none" id="java.lang.Comparable-backto-nz.ac.vuw.ecs.swen225.gp20.recnplay.RecordedMove" style="stroke: #A80036; stroke-width: 1.0; stroke-dasharray: 7.0,7.0;"/><polygon fill="none" points="141,122.1,148,102.1,155,122.1,141,122.1" style="stroke: #A80036; stroke-width: 1.0;"/><!--MD5=[9ac900385d7e06459a1dbffe8c8ea7d5]
link nz.ac.vuw.ecs.swen225.gp20.recnplay.RecordedMove to nz.ac.vuw.ecs.swen225.gp20.recnplay.RecordedMove--><path codeLine="29" d="M264.18,265.17 C284.7,268.83 299,278.11 299,293 C299,306.61 287.05,315.53 269.32,319.76 " fill="none" id="nz.ac.vuw.ecs.swen225.gp20.recnplay.RecordedMove-to-nz.ac.vuw.ecs.swen225.gp20.recnplay.RecordedMove" style="stroke: #A80036; stroke-width: 1.0;"/><polygon fill="#A80036" points="264.18,320.83,273.804,322.9227,269.0762,319.8165,272.1824,315.0887,264.18,320.83" style="stroke: #A80036; stroke-width: 1.0;"/><text fill="#000000" font-family="sans-serif" font-size="13" lengthAdjust="spacingAndGlyphs" textLength="46" x="305" y="297.5669">inverse</text><text fill="#888888" font-family="sans-serif" font-size="10" lengthAdjust="spacingAndGlyphs" textLength="192" x="234.5" y="431.2822">UMLDoclet 2.0.12, PlantUML 1.2020.16</text><!--MD5=[4c26691c321eb11bb08880bc304da46a]
@startuml
    namespace nz.ac.vuw.ecs.swen225.gp20.recnplay {

        class RecordAndPlay [[RecordAndPlay.html]] {
            {static} +recordedMovesSize(): int
            {static} +saveRecording(): void
            {static} +loadRecording(Main): void
            {static} +addMove(RecordedMove): boolean
            {static} +isRecording(): boolean
            {static} +getPlayingRecording(): boolean
            {static} +endPlayingRecording(): void
            {static} +recordLevelChange(): void
            {static} +startRecording(Main): void
            {static} +stepForward(): void
            {static} +stepBackward(): void
            {static} +playRecording(Main): void
            {static} +setRecordingMode(ReplayModes, int): void
        }

        class RecordedMove [[RecordedMove.html]] {
            +RecordedMove(Direction, int, int, int)
            +getDirection(): Direction
            +getTimeLeft(): int
            +getMoveIndex(): int
            +compareTo(RecordedMove): int
            +getLevel(): int
        }

        java.lang.Comparable <|.. RecordedMove
        RecordedMove - -> RecordedMove: inverse
    }

    namespace java.lang {
        interface Comparable<T> {
            {abstract} +compareTo(T): int
        }
    }

    center footer UMLDoclet 2.0.12, PlantUML 1.2020.16
@enduml

PlantUML version 1.2020.16(Mon Aug 24 08:20:43 NZST 2020)
(APACHE source distribution)
Java Runtime: OpenJDK Runtime Environment
JVM: OpenJDK 64-Bit Server VM
Default Encoding: UTF-8
Language: en
Country: null
--></g></svg>