<?xml version="1.0" encoding="UTF-8" standalone="no"?>
<svg xmlns:xlink="http://www.w3.org/1999/xlink" xmlns="http://www.w3.org/2000/svg"
     contentScriptType="application/ecmascript" contentStyleType="text/css" height="199px" preserveAspectRatio="none"
     style="width:397px;height:199px;" version="1.1" viewBox="0 0 397 199" width="397px" zoomAndPan="magnify">
    <defs>
        <filter height="300%" id="f1oifazyu5ohbm" width="300%" x="-1" y="-1">
            <feGaussianBlur result="blurOut" stdDeviation="2.0"/>
            <feColorMatrix in="blurOut" result="blurOut2" type="matrix"
                           values="0 0 0 0 0 0 0 0 0 0 0 0 0 0 0 0 0 0 .4 0"/>
            <feOffset dx="4.0" dy="4.0" in="blurOut2" result="blurOut3"/>
            <feBlend in="SourceGraphic" in2="blurOut3" mode="normal"/>
        </filter>
    </defs>
    <g><!--MD5=[eb078421526276a38cf020610a62fb10]
class nz.ac.vuw.ecs.swen225.gp20.recnplay.ReplayOptionDialog-->
        <a href="ReplayOptionDialog.html" target="_top" title="ReplayOptionDialog.html" xlink:actuate="onRequest"
           xlink:href="ReplayOptionDialog.html" xlink:show="new" xlink:title="ReplayOptionDialog.html"
           xlink:type="simple">
            <rect codeLine="5" fill="#FEFECE" filter="url(#f1oifazyu5ohbm)" height="58.7422"
                  id="nz.ac.vuw.ecs.swen225.gp20.recnplay.ReplayOptionDialog"
                  style="stroke: #A80036; stroke-width: 1.5;" width="371" x="7" y="105"/>
            <ellipse cx="96.25" cy="123.9688" fill="#ADD1B2" rx="11" ry="11"
                     style="stroke: #A80036; stroke-width: 1.0;"/>
            <path d="M99.2188,129.6094 Q98.6406,129.9063 98,130.0469 Q97.3594,130.2031 96.6563,130.2031 Q94.1563,130.2031 92.8281,128.5625 Q91.5156,126.9063 91.5156,123.7813 Q91.5156,120.6563 92.8281,119 Q94.1563,117.3438 96.6563,117.3438 Q97.3594,117.3438 98,117.5 Q98.6563,117.6563 99.2188,117.9531 L99.2188,120.6719 Q98.5938,120.0938 98,119.8281 Q97.4063,119.5469 96.7813,119.5469 Q95.4375,119.5469 94.75,120.625 Q94.0625,121.6875 94.0625,123.7813 Q94.0625,125.875 94.75,126.9531 Q95.4375,128.0156 96.7813,128.0156 Q97.4063,128.0156 98,127.75 Q98.5938,127.4688 99.2188,126.8906 L99.2188,129.6094 Z "/>
            <text fill="#000000" font-family="sans-serif" font-size="14" lengthAdjust="spacingAndGlyphs"
                  textLength="135" x="141.25" y="122.9951">ReplayOptionDialog
            </text>
            <text fill="#000000" font-family="sans-serif" font-size="10" lengthAdjust="spacingAndGlyphs"
                  textLength="184" x="116.75" y="135.5791">nz.ac.vuw.ecs.swen225.gp20.recnplay
            </text>
            <line style="stroke: #A80036; stroke-width: 1.5;" x1="8" x2="377" y1="142.9375" y2="142.9375"/>
            <ellipse cx="18" cy="153.9375" fill="#84BE84" rx="3" ry="3" style="stroke: #038048; stroke-width: 1.0;"/>
            <text fill="#000000" font-family="sans-serif" font-size="11" lengthAdjust="spacingAndGlyphs"
                  textLength="345" x="27" y="157.1479">ReplayOptionDialog(Main, String, ArrayList&lt;JButton&gt;,
                JSlider)
            </text>
        </a><!--MD5=[c13749207e1e160b2790bec8d09e837f]
class javax.swing.JDialog-->
        <rect codeLine="9" fill="#FEFECE" filter="url(#f1oifazyu5ohbm)" height="37.9375" id="javax.swing.JDialog"
              style="stroke: #A80036; stroke-width: 1.5;" width="88" x="148.5" y="7"/>
        <ellipse cx="163.5" cy="25.9688" fill="#ADD1B2" rx="11" ry="11" style="stroke: #A80036; stroke-width: 1.0;"/>
        <path d="M166.4688,31.6094 Q165.8906,31.9063 165.25,32.0469 Q164.6094,32.2031 163.9063,32.2031 Q161.4063,32.2031 160.0781,30.5625 Q158.7656,28.9063 158.7656,25.7813 Q158.7656,22.6563 160.0781,21 Q161.4063,19.3438 163.9063,19.3438 Q164.6094,19.3438 165.25,19.5 Q165.9063,19.6563 166.4688,19.9531 L166.4688,22.6719 Q165.8438,22.0938 165.25,21.8281 Q164.6563,21.5469 164.0313,21.5469 Q162.6875,21.5469 162,22.625 Q161.3125,23.6875 161.3125,25.7813 Q161.3125,27.875 162,28.9531 Q162.6875,30.0156 164.0313,30.0156 Q164.6563,30.0156 165.25,29.75 Q165.8438,29.4688 166.4688,28.8906 L166.4688,31.6094 Z "/>
        <text fill="#000000" font-family="sans-serif" font-size="14" lengthAdjust="spacingAndGlyphs" textLength="46"
              x="182.5" y="24.9951">JDialog
        </text>
        <text fill="#000000" font-family="sans-serif" font-size="10" lengthAdjust="spacingAndGlyphs" textLength="56"
              x="177.5" y="37.5791">javax.swing
        </text><!--MD5=[f214c584f9b91d79b84a857dfadab297]
reverse link javax.swing.JDialog to nz.ac.vuw.ecs.swen225.gp20.recnplay.ReplayOptionDialog-->
        <path codeLine="11" d="M192.5,65.22 C192.5,78.3 192.5,92.7 192.5,104.89 " fill="none"
              id="javax.swing.JDialog-backto-nz.ac.vuw.ecs.swen225.gp20.recnplay.ReplayOptionDialog"
              style="stroke: #A80036; stroke-width: 1.0;"/>
        <polygon fill="none" points="185.5,65.07,192.5,45.07,199.5,65.07,185.5,65.07"
                 style="stroke: #A80036; stroke-width: 1.0;"/>
        <text fill="#888888" font-family="sans-serif" font-size="10" lengthAdjust="spacingAndGlyphs" textLength="192"
              x="93.5" y="186.0244">UMLDoclet 2.0.12, PlantUML 1.2020.16
        </text><!--MD5=[420a979c313724b304a8e3a71eacb713]
@startuml
    set namespaceSeparator none
    hide empty fields
    hide empty methods

    class "<size:14>ReplayOptionDialog\n<size:10>nz.ac.vuw.ecs.swen225.gp20.recnplay" as nz.ac.vuw.ecs.swen225.gp20.recnplay.ReplayOptionDialog [[ReplayOptionDialog.html]] {
        +ReplayOptionDialog(Main, String, ArrayList<JButton>, JSlider)
    }

    class "<size:14>JDialog\n<size:10>javax.swing" as javax.swing.JDialog

    javax.swing.JDialog <|- - nz.ac.vuw.ecs.swen225.gp20.recnplay.ReplayOptionDialog

    center footer UMLDoclet 2.0.12, PlantUML 1.2020.16
@enduml

PlantUML version 1.2020.16(Mon Aug 24 08:20:43 NZST 2020)
(APACHE source distribution)
Java Runtime: OpenJDK Runtime Environment
JVM: OpenJDK 64-Bit Server VM
Default Encoding: UTF-8
Language: en
Country: null
-->
    </g>
</svg>