<?xml version="1.0" encoding="UTF-8" standalone="no"?>
<svg xmlns:xlink="http://www.w3.org/1999/xlink" xmlns="http://www.w3.org/2000/svg"
     contentScriptType="application/ecmascript" contentStyleType="text/css" height="322px" preserveAspectRatio="none"
     style="width:228px;height:322px;" version="1.1" viewBox="0 0 228 322" width="228px" zoomAndPan="magnify">
    <defs>
        <filter height="300%" id="fu3n4toakqr8u" width="300%" x="-1" y="-1">
            <feGaussianBlur result="blurOut" stdDeviation="2.0"/>
            <feColorMatrix in="blurOut" result="blurOut2" type="matrix"
                           values="0 0 0 0 0 0 0 0 0 0 0 0 0 0 0 0 0 0 .4 0"/>
            <feOffset dx="4.0" dy="4.0" in="blurOut2" result="blurOut3"/>
            <feBlend in="SourceGraphic" in2="blurOut3" mode="normal"/>
        </filter>
    </defs>
    <g><!--MD5=[378be45096ed9409c119dd69d9943dea]
class nz.ac.vuw.ecs.swen225.gp20.maze.Key-->
        <a href="Key.html" target="_top" title="Key.html" xlink:actuate="onRequest" xlink:href="Key.html"
           xlink:show="new" xlink:title="Key.html" xlink:type="simple">
            <rect codeLine="5" fill="#FEFECE" filter="url(#fu3n4toakqr8u)" height="84.3516"
                  id="nz.ac.vuw.ecs.swen225.gp20.maze.Key" style="stroke: #A80036; stroke-width: 1.5;" width="202" x="7"
                  y="105"/>
            <ellipse cx="22" cy="123.9688" fill="#ADD1B2" rx="11" ry="11" style="stroke: #A80036; stroke-width: 1.0;"/>
            <path d="M24.9688,129.6094 Q24.3906,129.9063 23.75,130.0469 Q23.1094,130.2031 22.4063,130.2031 Q19.9063,130.2031 18.5781,128.5625 Q17.2656,126.9063 17.2656,123.7813 Q17.2656,120.6563 18.5781,119 Q19.9063,117.3438 22.4063,117.3438 Q23.1094,117.3438 23.75,117.5 Q24.4063,117.6563 24.9688,117.9531 L24.9688,120.6719 Q24.3438,120.0938 23.75,119.8281 Q23.1563,119.5469 22.5313,119.5469 Q21.1875,119.5469 20.5,120.625 Q19.8125,121.6875 19.8125,123.7813 Q19.8125,125.875 20.5,126.9531 Q21.1875,128.0156 22.5313,128.0156 Q23.1563,128.0156 23.75,127.75 Q24.3438,127.4688 24.9688,126.8906 L24.9688,129.6094 Z "/>
            <text fill="#000000" font-family="sans-serif" font-size="14" lengthAdjust="spacingAndGlyphs" textLength="25"
                  x="108.5" y="122.9951">Key
            </text>
            <text fill="#000000" font-family="sans-serif" font-size="10" lengthAdjust="spacingAndGlyphs"
                  textLength="170" x="36" y="135.5791">nz.ac.vuw.ecs.swen225.gp20.maze
            </text>
            <line style="stroke: #A80036; stroke-width: 1.5;" x1="8" x2="208" y1="142.9375" y2="142.9375"/>
            <ellipse cx="18" cy="153.9375" fill="#84BE84" rx="3" ry="3" style="stroke: #038048; stroke-width: 1.0;"/>
            <text fill="#000000" font-family="sans-serif" font-size="11" lengthAdjust="spacingAndGlyphs"
                  textLength="109" x="27" y="157.1479">Key(int, int, Colour)
            </text>
            <ellipse cx="18" cy="166.7422" fill="#84BE84" rx="3" ry="3" style="stroke: #038048; stroke-width: 1.0;"/>
            <text fill="#000000" font-family="sans-serif" font-size="11" lengthAdjust="spacingAndGlyphs"
                  textLength="108" x="27" y="169.9526">getColour(): Colour
            </text>
            <ellipse cx="18" cy="179.5469" fill="#84BE84" rx="3" ry="3" style="stroke: #038048; stroke-width: 1.0;"/>
            <text fill="#000000" font-family="sans-serif" font-size="11" lengthAdjust="spacingAndGlyphs"
                  textLength="158" x="27" y="182.7573">getJson(): JsonObjectBuilder
            </text>
        </a><!--MD5=[76c7e6ed5bb0aaabc8404e6911d01ede]
class nz.ac.vuw.ecs.swen225.gp20.maze.Tile-->
        <a href="Tile.html" target="_top" title="Tile.html" xlink:actuate="onRequest" xlink:href="Tile.html"
           xlink:show="new" xlink:title="Tile.html" xlink:type="simple">
            <rect codeLine="11" fill="#FEFECE" filter="url(#fu3n4toakqr8u)" height="37.9375"
                  id="nz.ac.vuw.ecs.swen225.gp20.maze.Tile" style="stroke: #A80036; stroke-width: 1.5;" width="202"
                  x="7" y="7"/>
            <ellipse cx="22" cy="25.9688" fill="#A9DCDF" rx="11" ry="11" style="stroke: #A80036; stroke-width: 1.0;"/>
            <path d="M22.1094,21.3125 L20.9531,26.3906 L23.2813,26.3906 L22.1094,21.3125 Z M20.625,19.0781 L23.6094,19.0781 L26.9688,31.4688 L24.5156,31.4688 L23.75,28.4063 L20.4688,28.4063 L19.7188,31.4688 L17.2813,31.4688 L20.625,19.0781 Z "/>
            <text fill="#000000" font-family="sans-serif" font-size="14" font-style="italic"
                  lengthAdjust="spacingAndGlyphs" textLength="24" x="109" y="24.9951">Tile
            </text>
            <text fill="#000000" font-family="sans-serif" font-size="10" font-style="italic"
                  lengthAdjust="spacingAndGlyphs" textLength="170" x="36" y="37.5791">nz.ac.vuw.ecs.swen225.gp20.maze
            </text>
        </a><!--MD5=[c6460d12b68ebf9e00cc19d6b4702b70]
class nz.ac.vuw.ecs.swen225.gp20.maze.Key.Colour-->
        <a href="Key.Colour.html" target="_top" title="Key.Colour.html" xlink:actuate="onRequest"
           xlink:href="Key.Colour.html" xlink:show="new" xlink:title="Key.Colour.html" xlink:type="simple">
            <rect codeLine="12" fill="#FEFECE" filter="url(#fu3n4toakqr8u)" height="37.9375"
                  id="nz.ac.vuw.ecs.swen225.gp20.maze.Key.Colour" style="stroke: #A80036; stroke-width: 1.5;"
                  width="202" x="7" y="249"/>
            <ellipse cx="22" cy="267.9688" fill="#EB937F" rx="11" ry="11" style="stroke: #A80036; stroke-width: 1.0;"/>
            <path d="M26.1094,273.9688 L18.3906,273.9688 L18.3906,261.5781 L26.1094,261.5781 L26.1094,263.7344 L20.8438,263.7344 L20.8438,266.4063 L25.6094,266.4063 L25.6094,268.5625 L20.8438,268.5625 L20.8438,271.8125 L26.1094,271.8125 L26.1094,273.9688 Z "/>
            <text fill="#000000" font-family="sans-serif" font-size="14" lengthAdjust="spacingAndGlyphs" textLength="74"
                  x="84" y="266.9951">Key.Colour
            </text>
            <text fill="#000000" font-family="sans-serif" font-size="10" lengthAdjust="spacingAndGlyphs"
                  textLength="170" x="36" y="279.5791">nz.ac.vuw.ecs.swen225.gp20.maze
            </text>
        </a><!--MD5=[46d2c15a8e9dc6cf171109ce90730fa1]
reverse link nz.ac.vuw.ecs.swen225.gp20.maze.Tile to nz.ac.vuw.ecs.swen225.gp20.maze.Key-->
        <path codeLine="14" d="M108,65.54 C108,78.08 108,92.05 108,104.78 " fill="none"
              id="nz.ac.vuw.ecs.swen225.gp20.maze.Tile-backto-nz.ac.vuw.ecs.swen225.gp20.maze.Key"
              style="stroke: #A80036; stroke-width: 1.0;"/>
        <polygon fill="none" points="101,65.07,108,45.07,115,65.07,101,65.07"
                 style="stroke: #A80036; stroke-width: 1.0;"/><!--MD5=[bfc3e10d2a57bb7e7fcb07ecb82a8cff]
reverse link nz.ac.vuw.ecs.swen225.gp20.maze.Key to nz.ac.vuw.ecs.swen225.gp20.maze.Key.Colour-->
        <path codeLine="15" d="M108,204.41 C108,220.44 108,236.78 108,248.74 " fill="none"
              id="nz.ac.vuw.ecs.swen225.gp20.maze.Key-backto-nz.ac.vuw.ecs.swen225.gp20.maze.Key.Colour"
              style="stroke: #A80036; stroke-width: 1.0;"/>
        <ellipse cx="108" cy="197.29" fill="#FFFFFF" rx="8" ry="8" style="stroke: #A80036; stroke-width: 1.0;"/>
        <line style="stroke: #A80036; stroke-width: 1.0;" x1="108" x2="108" y1="205.29" y2="189.29"/>
        <line style="stroke: #A80036; stroke-width: 1.0;" x1="100" x2="116" y1="197.29" y2="197.29"/>
        <text fill="#888888" font-family="sans-serif" font-size="10" lengthAdjust="spacingAndGlyphs" textLength="192"
              x="9" y="309.2197">UMLDoclet 2.0.12, PlantUML 1.2020.16
        </text><!--MD5=[0167d39381a9ab0a3b7b9c4ecdc21ab3]
@startuml
    set namespaceSeparator none
    hide empty fields
    hide empty methods

    class "<size:14>Key\n<size:10>nz.ac.vuw.ecs.swen225.gp20.maze" as nz.ac.vuw.ecs.swen225.gp20.maze.Key [[Key.html]] {
        +Key(int, int, Colour)
        +getColour(): Colour
        +getJson(): JsonObjectBuilder
    }

    abstract class "<size:14>Tile\n<size:10>nz.ac.vuw.ecs.swen225.gp20.maze" as nz.ac.vuw.ecs.swen225.gp20.maze.Tile [[Tile.html]]
    enum "<size:14>Key.Colour\n<size:10>nz.ac.vuw.ecs.swen225.gp20.maze" as nz.ac.vuw.ecs.swen225.gp20.maze.Key.Colour [[Key.Colour.html]]

    nz.ac.vuw.ecs.swen225.gp20.maze.Tile <|- - nz.ac.vuw.ecs.swen225.gp20.maze.Key
    nz.ac.vuw.ecs.swen225.gp20.maze.Key +- - nz.ac.vuw.ecs.swen225.gp20.maze.Key.Colour

    center footer UMLDoclet 2.0.12, PlantUML 1.2020.16
@enduml

PlantUML version 1.2020.16(Mon Aug 24 08:20:43 NZST 2020)
(APACHE source distribution)
Java Runtime: OpenJDK Runtime Environment
JVM: OpenJDK 64-Bit Server VM
Default Encoding: UTF-8
Language: en
Country: NZ
-->
    </g>
</svg>