<?xml version="1.0" encoding="UTF-8" standalone="no"?><svg xmlns:xlink="http://www.w3.org/1999/xlink" xmlns="http://www.w3.org/2000/svg" contentScriptType="application/ecmascript" contentStyleType="text/css" height="248px" preserveAspectRatio="none" style="width:357px;height:248px;" version="1.1" viewBox="0 0 357 248" width="357px" zoomAndPan="magnify"><defs><filter height="300%" id="f1kpcyxqaujx34" width="300%" x="-1" y="-1"><feGaussianBlur result="blurOut" stdDeviation="2.0"/><feColorMatrix in="blurOut" result="blurOut2" type="matrix" values="0 0 0 0 0 0 0 0 0 0 0 0 0 0 0 0 0 0 .4 0"/><feOffset dx="4.0" dy="4.0" in="blurOut2" result="blurOut3"/><feBlend in="SourceGraphic" in2="blurOut3" mode="normal"/></filter></defs><g><!--MD5=[aeefc0e7a32421c76285d68c21ee697a]
cluster nz.ac.vuw.ecs.swen225.gp20.monkey--><polygon fill="#FFFFFF" filter="url(#f1kpcyxqaujx34)" points="16,6,325,6,332,28.2969,335,28.2969,335,220,16,220,16,6" style="stroke: #000000; stroke-width: 1.5;"/><line style="stroke: #000000; stroke-width: 1.5;" x1="16" x2="332" y1="28.2969" y2="28.2969"/><text fill="#000000" font-family="sans-serif" font-size="14" font-weight="bold" lengthAdjust="spacingAndGlyphs" textLength="303" x="20" y="20.9951">nz.ac.vuw.ecs.swen225.gp20.monkey</text><!--MD5=[40390befd01e0370a6c0213ccecabdd1]
class nz.ac.vuw.ecs.swen225.gp20.monkey.MonkeyTesting--><a href="MonkeyTesting.html" target="_top" title="MonkeyTesting.html" xlink:actuate="onRequest" xlink:href="MonkeyTesting.html" xlink:show="new" xlink:title="MonkeyTesting.html" xlink:type="simple"><rect codeLine="3" fill="#FEFECE" filter="url(#f1kpcyxqaujx34)" height="163.2422" id="nz.ac.vuw.ecs.swen225.gp20.monkey.MonkeyTesting" style="stroke: #A80036; stroke-width: 1.5;" width="284" x="33" y="41"/><ellipse cx="124.25" cy="57" fill="#ADD1B2" rx="11" ry="11" style="stroke: #A80036; stroke-width: 1.0;"/><path d="M127.2188,62.6406 Q126.6406,62.9375 126,63.0781 Q125.3594,63.2344 124.6563,63.2344 Q122.1563,63.2344 120.8281,61.5938 Q119.5156,59.9375 119.5156,56.8125 Q119.5156,53.6875 120.8281,52.0313 Q122.1563,50.375 124.6563,50.375 Q125.3594,50.375 126,50.5313 Q126.6563,50.6875 127.2188,50.9844 L127.2188,53.7031 Q126.5938,53.125 126,52.8594 Q125.4063,52.5781 124.7813,52.5781 Q123.4375,52.5781 122.75,53.6563 Q122.0625,54.7188 122.0625,56.8125 Q122.0625,58.9063 122.75,59.9844 Q123.4375,61.0469 124.7813,61.0469 Q125.4063,61.0469 126,60.7813 Q126.5938,60.5 127.2188,59.9219 L127.2188,62.6406 Z "/><text fill="#000000" font-family="sans-serif" font-size="12" lengthAdjust="spacingAndGlyphs" textLength="93" x="144.75" y="61.1543">MonkeyTesting</text><line style="stroke: #A80036; stroke-width: 1.5;" x1="34" x2="316" y1="73" y2="73"/><line style="stroke: #A80036; stroke-width: 1.5;" x1="34" x2="316" y1="81" y2="81"/><ellipse cx="44" cy="92" fill="#84BE84" rx="3" ry="3" style="stroke: #038048; stroke-width: 1.0;"/><text fill="#000000" font-family="sans-serif" font-size="11" lengthAdjust="spacingAndGlyphs" textLength="247" x="53" y="95.2104">randomMonkeyTestWithoutGUILevel1(): void</text><ellipse cx="44" cy="104.8047" fill="#84BE84" rx="3" ry="3" style="stroke: #038048; stroke-width: 1.0;"/><text fill="#000000" font-family="sans-serif" font-size="11" lengthAdjust="spacingAndGlyphs" textLength="247" x="53" y="108.0151">randomMonkeyTestWithoutGUILevel2(): void</text><ellipse cx="44" cy="117.6094" fill="#84BE84" rx="3" ry="3" style="stroke: #038048; stroke-width: 1.0;"/><text fill="#000000" font-family="sans-serif" font-size="11" lengthAdjust="spacingAndGlyphs" textLength="135" x="53" y="120.8198">getValue(Tile, Maze): int</text><ellipse cx="44" cy="130.4141" fill="#84BE84" rx="3" ry="3" style="stroke: #038048; stroke-width: 1.0;"/><text fill="#000000" font-family="sans-serif" font-size="11" lengthAdjust="spacingAndGlyphs" textLength="229" x="53" y="133.6245">randomMonkeyTestWithGUILevel1(): void</text><ellipse cx="44" cy="143.2188" fill="#84BE84" rx="3" ry="3" style="stroke: #038048; stroke-width: 1.0;"/><text fill="#000000" font-family="sans-serif" font-size="11" lengthAdjust="spacingAndGlyphs" textLength="229" x="53" y="146.4292">randomMonkeyTestWithGUILevel2(): void</text><ellipse cx="44" cy="156.0234" fill="#84BE84" rx="3" ry="3" style="stroke: #038048; stroke-width: 1.0;"/><text fill="#000000" font-family="sans-serif" font-size="11" lengthAdjust="spacingAndGlyphs" textLength="258" x="53" y="159.2339">intelligentMonkeyTestWithoutGUILevel1(): void</text><ellipse cx="44" cy="168.8281" fill="#84BE84" rx="3" ry="3" style="stroke: #038048; stroke-width: 1.0;"/><text fill="#000000" font-family="sans-serif" font-size="11" lengthAdjust="spacingAndGlyphs" textLength="258" x="53" y="172.0386">intelligentMonkeyTestWithoutGUILevel2(): void</text><ellipse cx="44" cy="181.6328" fill="#84BE84" rx="3" ry="3" style="stroke: #038048; stroke-width: 1.0;"/><text fill="#000000" font-family="sans-serif" font-size="11" lengthAdjust="spacingAndGlyphs" textLength="240" x="53" y="184.8433">intelligentMonkeyTestWithGUILevel1(): void</text><ellipse cx="44" cy="194.4375" fill="#84BE84" rx="3" ry="3" style="stroke: #038048; stroke-width: 1.0;"/><text fill="#000000" font-family="sans-serif" font-size="11" lengthAdjust="spacingAndGlyphs" textLength="240" x="53" y="197.6479">intelligentMonkeyTestWithGUILevel2(): void</text></a><text fill="#888888" font-family="sans-serif" font-size="10" lengthAdjust="spacingAndGlyphs" textLength="192" x="73.5" y="235.2822">UMLDoclet 2.0.12, PlantUML 1.2020.16</text><!--MD5=[d0c1e3aa4dee84ffe67a95115d08f84f]
@startuml
    namespace nz.ac.vuw.ecs.swen225.gp20.monkey {

        class MonkeyTesting [[MonkeyTesting.html]] {
            +randomMonkeyTestWithoutGUILevel1(): void
            +randomMonkeyTestWithoutGUILevel2(): void
            +getValue(Tile, Maze): int
            +randomMonkeyTestWithGUILevel1(): void
            +randomMonkeyTestWithGUILevel2(): void
            +intelligentMonkeyTestWithoutGUILevel1(): void
            +intelligentMonkeyTestWithoutGUILevel2(): void
            +intelligentMonkeyTestWithGUILevel1(): void
            +intelligentMonkeyTestWithGUILevel2(): void
        }

    }

    center footer UMLDoclet 2.0.12, PlantUML 1.2020.16
@enduml

PlantUML version 1.2020.16(Mon Aug 24 08:20:43 NZST 2020)
(APACHE source distribution)
Java Runtime: OpenJDK Runtime Environment
JVM: OpenJDK 64-Bit Server VM
Default Encoding: UTF-8
Language: en
Country: null
--></g></svg>