<?xml version="1.0" encoding="UTF-8" standalone="no"?><svg xmlns:xlink="http://www.w3.org/1999/xlink" xmlns="http://www.w3.org/2000/svg" contentScriptType="application/ecmascript" contentStyleType="text/css" height="133px" preserveAspectRatio="none" style="width:207px;height:133px;" version="1.1" viewBox="0 0 207 133" width="207px" zoomAndPan="magnify"><defs><filter height="300%" id="fti13l2h217jf" width="300%" x="-1" y="-1"><feGaussianBlur result="blurOut" stdDeviation="2.0"/><feColorMatrix in="blurOut" result="blurOut2" type="matrix" values="0 0 0 0 0 0 0 0 0 0 0 0 0 0 0 0 0 0 .4 0"/><feOffset dx="4.0" dy="4.0" in="blurOut2" result="blurOut3"/><feBlend in="SourceGraphic" in2="blurOut3" mode="normal"/></filter></defs><g><!--MD5=[0334151241c2df87d13997940bbf650c]
cluster persistence--><polygon fill="#FFFFFF" filter="url(#fti13l2h217jf)" points="19,6,119,6,126,28.2969,185,28.2969,185,105,19,105,19,6" style="stroke: #000000; stroke-width: 1.5;"/><line style="stroke: #000000; stroke-width: 1.5;" x1="19" x2="126" y1="28.2969" y2="28.2969"/><text fill="#000000" font-family="sans-serif" font-size="14" font-weight="bold" lengthAdjust="spacingAndGlyphs" textLength="94" x="23" y="20.9951">persistence</text><!--MD5=[183246bd1ce4db0a64bb8e758c8eb470]
class persistence.PersistenceTest--><a href="PersistenceTest.html" target="_top" title="PersistenceTest.html" xlink:actuate="onRequest" xlink:href="PersistenceTest.html" xlink:show="new" xlink:title="PersistenceTest.html" xlink:type="simple"><rect codeLine="3" fill="#FEFECE" filter="url(#fti13l2h217jf)" height="48" id="persistence.PersistenceTest" style="stroke: #A80036; stroke-width: 1.5;" width="133" x="35.5" y="41"/><ellipse cx="50.5" cy="57" fill="#ADD1B2" rx="11" ry="11" style="stroke: #A80036; stroke-width: 1.0;"/><path d="M53.4688,62.6406 Q52.8906,62.9375 52.25,63.0781 Q51.6094,63.2344 50.9063,63.2344 Q48.4063,63.2344 47.0781,61.5938 Q45.7656,59.9375 45.7656,56.8125 Q45.7656,53.6875 47.0781,52.0313 Q48.4063,50.375 50.9063,50.375 Q51.6094,50.375 52.25,50.5313 Q52.9063,50.6875 53.4688,50.9844 L53.4688,53.7031 Q52.8438,53.125 52.25,52.8594 Q51.6563,52.5781 51.0313,52.5781 Q49.6875,52.5781 49,53.6563 Q48.3125,54.7188 48.3125,56.8125 Q48.3125,58.9063 49,59.9844 Q49.6875,61.0469 51.0313,61.0469 Q51.6563,61.0469 52.25,60.7813 Q52.8438,60.5 53.4688,59.9219 L53.4688,62.6406 Z "/><text fill="#000000" font-family="sans-serif" font-size="12" lengthAdjust="spacingAndGlyphs" textLength="101" x="64.5" y="61.1543">PersistenceTest</text><line style="stroke: #A80036; stroke-width: 1.5;" x1="36.5" x2="167.5" y1="73" y2="73"/><line style="stroke: #A80036; stroke-width: 1.5;" x1="36.5" x2="167.5" y1="81" y2="81"/></a><text fill="#888888" font-family="sans-serif" font-size="10" lengthAdjust="spacingAndGlyphs" textLength="192" x="0" y="120.2822">UMLDoclet 2.0.12, PlantUML 1.2020.16</text><!--MD5=[ebe14272b3402c14c98d58316be44fd9]
@startuml
    namespace persistence {

        class PersistenceTest [[PersistenceTest.html]]

    }

    center footer UMLDoclet 2.0.12, PlantUML 1.2020.16
@enduml

PlantUML version 1.2020.16(Mon Aug 24 08:20:43 NZST 2020)
(APACHE source distribution)
Java Runtime: OpenJDK Runtime Environment
JVM: OpenJDK 64-Bit Server VM
Default Encoding: UTF-8
Language: en
Country: null
--></g></svg>