<?xml version="1.0" encoding="UTF-8" standalone="no"?><svg xmlns:xlink="http://www.w3.org/1999/xlink" xmlns="http://www.w3.org/2000/svg" contentScriptType="application/ecmascript" contentStyleType="text/css" height="172px" preserveAspectRatio="none" style="width:398px;height:172px;" version="1.1" viewBox="0 0 398 172" width="398px" zoomAndPan="magnify"><defs><filter height="300%" id="fh6ztp5ujkcdq" width="300%" x="-1" y="-1"><feGaussianBlur result="blurOut" stdDeviation="2.0"/><feColorMatrix in="blurOut" result="blurOut2" type="matrix" values="0 0 0 0 0 0 0 0 0 0 0 0 0 0 0 0 0 0 .4 0"/><feOffset dx="4.0" dy="4.0" in="blurOut2" result="blurOut3"/><feBlend in="SourceGraphic" in2="blurOut3" mode="normal"/></filter></defs><g><!--MD5=[f6e7c6c1afa8712a8d0dcbb0ad65f710]
class nz.ac.vuw.ecs.swen225.gp20.persistence.Level--><a href="Level.html" target="_top" title="Level.html" xlink:actuate="onRequest" xlink:href="Level.html" xlink:show="new" xlink:title="Level.html" xlink:type="simple"><rect codeLine="5" fill="#FEFECE" filter="url(#fh6ztp5ujkcdq)" height="135.5703" id="nz.ac.vuw.ecs.swen225.gp20.persistence.Level" style="stroke: #A80036; stroke-width: 1.5;" width="372" x="7" y="7"/><ellipse cx="89.75" cy="25.9688" fill="#ADD1B2" rx="11" ry="11" style="stroke: #A80036; stroke-width: 1.0;"/><path d="M92.7188,31.6094 Q92.1406,31.9063 91.5,32.0469 Q90.8594,32.2031 90.1563,32.2031 Q87.6563,32.2031 86.3281,30.5625 Q85.0156,28.9063 85.0156,25.7813 Q85.0156,22.6563 86.3281,21 Q87.6563,19.3438 90.1563,19.3438 Q90.8594,19.3438 91.5,19.5 Q92.1563,19.6563 92.7188,19.9531 L92.7188,22.6719 Q92.0938,22.0938 91.5,21.8281 Q90.9063,21.5469 90.2813,21.5469 Q88.9375,21.5469 88.25,22.625 Q87.5625,23.6875 87.5625,25.7813 Q87.5625,27.875 88.25,28.9531 Q88.9375,30.0156 90.2813,30.0156 Q90.9063,30.0156 91.5,29.75 Q92.0938,29.4688 92.7188,28.8906 L92.7188,31.6094 Z "/><text fill="#000000" font-family="sans-serif" font-size="14" lengthAdjust="spacingAndGlyphs" textLength="35" x="191.75" y="24.9951">Level</text><text fill="#000000" font-family="sans-serif" font-size="10" lengthAdjust="spacingAndGlyphs" textLength="198" x="110.25" y="37.5791">nz.ac.vuw.ecs.swen225.gp20.persistence</text><line style="stroke: #A80036; stroke-width: 1.5;" x1="8" x2="378" y1="44.9375" y2="44.9375"/><ellipse cx="18" cy="55.9375" fill="#84BE84" rx="3" ry="3" style="stroke: #038048; stroke-width: 1.0;"/><text fill="#000000" font-family="sans-serif" font-size="11" lengthAdjust="spacingAndGlyphs" textLength="130" x="27" y="59.1479">Level(Tile[], int, Player)</text><ellipse cx="18" cy="68.7422" fill="#84BE84" rx="3" ry="3" style="stroke: #038048; stroke-width: 1.0;"/><text fill="#000000" font-family="sans-serif" font-size="11" lengthAdjust="spacingAndGlyphs" textLength="346" x="27" y="71.9526">Level(Tile[], int, Player, ArrayList&lt;Block&gt;, ArrayList&lt;Cobra&gt;)</text><ellipse cx="18" cy="81.5469" fill="#84BE84" rx="3" ry="3" style="stroke: #038048; stroke-width: 1.0;"/><text fill="#000000" font-family="sans-serif" font-size="11" lengthAdjust="spacingAndGlyphs" textLength="85" x="27" y="84.7573">getMap(): Tile[]</text><ellipse cx="18" cy="94.3516" fill="#84BE84" rx="3" ry="3" style="stroke: #038048; stroke-width: 1.0;"/><text fill="#000000" font-family="sans-serif" font-size="11" lengthAdjust="spacingAndGlyphs" textLength="107" x="27" y="97.562">getTreasures(): int</text><ellipse cx="18" cy="107.1563" fill="#84BE84" rx="3" ry="3" style="stroke: #038048; stroke-width: 1.0;"/><text fill="#000000" font-family="sans-serif" font-size="11" lengthAdjust="spacingAndGlyphs" textLength="98" x="27" y="110.3667">getChap(): Player</text><ellipse cx="18" cy="119.9609" fill="#84BE84" rx="3" ry="3" style="stroke: #038048; stroke-width: 1.0;"/><text fill="#000000" font-family="sans-serif" font-size="11" lengthAdjust="spacingAndGlyphs" textLength="169" x="27" y="123.1714">getBlocks(): ArrayList&lt;Block&gt;</text><ellipse cx="18" cy="132.7656" fill="#84BE84" rx="3" ry="3" style="stroke: #038048; stroke-width: 1.0;"/><text fill="#000000" font-family="sans-serif" font-size="11" lengthAdjust="spacingAndGlyphs" textLength="177" x="27" y="135.9761">getCobras(): ArrayList&lt;Cobra&gt;</text></a><text fill="#888888" font-family="sans-serif" font-size="10" lengthAdjust="spacingAndGlyphs" textLength="192" x="97" y="158.8525">UMLDoclet 2.0.12, PlantUML 1.2020.16</text><!--MD5=[21a908a21aeab93ea70f15bf4af155e5]
@startuml
    set namespaceSeparator none
    hide empty fields
    hide empty methods

    class "<size:14>Level\n<size:10>nz.ac.vuw.ecs.swen225.gp20.persistence" as nz.ac.vuw.ecs.swen225.gp20.persistence.Level [[Level.html]] {
        +Level(Tile[], int, Player)
        +Level(Tile[], int, Player, ArrayList<Block>, ArrayList<Cobra>)
        +getMap(): Tile[]
        +getTreasures(): int
        +getChap(): Player
        +getBlocks(): ArrayList<Block>
        +getCobras(): ArrayList<Cobra>
    }

    center footer UMLDoclet 2.0.12, PlantUML 1.2020.16
@enduml

PlantUML version 1.2020.16(Mon Aug 24 08:20:43 NZST 2020)
(APACHE source distribution)
Java Runtime: OpenJDK Runtime Environment
JVM: OpenJDK 64-Bit Server VM
Default Encoding: UTF-8
Language: en
Country: null
--></g></svg>