<?xml version="1.0" encoding="UTF-8" standalone="no"?>
<svg xmlns:xlink="http://www.w3.org/1999/xlink" xmlns="http://www.w3.org/2000/svg"
     contentScriptType="application/ecmascript" contentStyleType="text/css" height="223px" preserveAspectRatio="none"
     style="width:761px;height:223px;" version="1.1" viewBox="0 0 761 223" width="761px" zoomAndPan="magnify">
    <defs>
        <filter height="300%" id="f16k2qf9no6xii" width="300%" x="-1" y="-1">
            <feGaussianBlur result="blurOut" stdDeviation="2.0"/>
            <feColorMatrix in="blurOut" result="blurOut2" type="matrix"
                           values="0 0 0 0 0 0 0 0 0 0 0 0 0 0 0 0 0 0 .4 0"/>
            <feOffset dx="4.0" dy="4.0" in="blurOut2" result="blurOut3"/>
            <feBlend in="SourceGraphic" in2="blurOut3" mode="normal"/>
        </filter>
    </defs>
    <g><!--MD5=[d423da23da1fc8f952d900322317c2ef]
cluster nz.ac.vuw.ecs.swen225.gp20.persistence-->
        <polygon fill="#FFFFFF" filter="url(#f16k2qf9no6xii)"
                 points="16,6,357,6,364,28.2969,739,28.2969,739,195,16,195,16,6"
                 style="stroke: #000000; stroke-width: 1.5;"/>
        <line style="stroke: #000000; stroke-width: 1.5;" x1="16" x2="364" y1="28.2969" y2="28.2969"/>
        <text fill="#000000" font-family="sans-serif" font-size="14" font-weight="bold" lengthAdjust="spacingAndGlyphs"
              textLength="335" x="20" y="20.9951">nz.ac.vuw.ecs.swen225.gp20.persistence
        </text><!--MD5=[f6e7c6c1afa8712a8d0dcbb0ad65f710]
class nz.ac.vuw.ecs.swen225.gp20.persistence.Level-->
        <a href="Level.html" target="_top" title="Level.html" xlink:actuate="onRequest" xlink:href="Level.html"
           xlink:show="new" xlink:title="Level.html" xlink:type="simple">
            <rect codeLine="3" fill="#FEFECE" filter="url(#f16k2qf9no6xii)" height="137.6328"
                  id="nz.ac.vuw.ecs.swen225.gp20.persistence.Level" style="stroke: #A80036; stroke-width: 1.5;"
                  width="372" x="351" y="41"/>
            <ellipse cx="517.25" cy="57" fill="#ADD1B2" rx="11" ry="11" style="stroke: #A80036; stroke-width: 1.0;"/>
            <path d="M520.2188,62.6406 Q519.6406,62.9375 519,63.0781 Q518.3594,63.2344 517.6563,63.2344 Q515.1563,63.2344 513.8281,61.5938 Q512.5156,59.9375 512.5156,56.8125 Q512.5156,53.6875 513.8281,52.0313 Q515.1563,50.375 517.6563,50.375 Q518.3594,50.375 519,50.5313 Q519.6563,50.6875 520.2188,50.9844 L520.2188,53.7031 Q519.5938,53.125 519,52.8594 Q518.4063,52.5781 517.7813,52.5781 Q516.4375,52.5781 515.75,53.6563 Q515.0625,54.7188 515.0625,56.8125 Q515.0625,58.9063 515.75,59.9844 Q516.4375,61.0469 517.7813,61.0469 Q518.4063,61.0469 519,60.7813 Q519.5938,60.5 520.2188,59.9219 L520.2188,62.6406 Z "/>
            <text fill="#000000" font-family="sans-serif" font-size="12" lengthAdjust="spacingAndGlyphs" textLength="31"
                  x="537.75" y="61.1543">Level
            </text>
            <line style="stroke: #A80036; stroke-width: 1.5;" x1="352" x2="722" y1="73" y2="73"/>
            <line style="stroke: #A80036; stroke-width: 1.5;" x1="352" x2="722" y1="81" y2="81"/>
            <ellipse cx="362" cy="92" fill="#84BE84" rx="3" ry="3" style="stroke: #038048; stroke-width: 1.0;"/>
            <text fill="#000000" font-family="sans-serif" font-size="11" lengthAdjust="spacingAndGlyphs"
                  textLength="130" x="371" y="95.2104">Level(Tile[], int, Player)
            </text>
            <ellipse cx="362" cy="104.8047" fill="#84BE84" rx="3" ry="3" style="stroke: #038048; stroke-width: 1.0;"/>
            <text fill="#000000" font-family="sans-serif" font-size="11" lengthAdjust="spacingAndGlyphs"
                  textLength="346" x="371" y="108.0151">Level(Tile[], int, Player, ArrayList&lt;Block&gt;, ArrayList&lt;Cobra&gt;)
            </text>
            <ellipse cx="362" cy="117.6094" fill="#84BE84" rx="3" ry="3" style="stroke: #038048; stroke-width: 1.0;"/>
            <text fill="#000000" font-family="sans-serif" font-size="11" lengthAdjust="spacingAndGlyphs" textLength="85"
                  x="371" y="120.8198">getMap(): Tile[]
            </text>
            <ellipse cx="362" cy="130.4141" fill="#84BE84" rx="3" ry="3" style="stroke: #038048; stroke-width: 1.0;"/>
            <text fill="#000000" font-family="sans-serif" font-size="11" lengthAdjust="spacingAndGlyphs"
                  textLength="107" x="371" y="133.6245">getTreasures(): int
            </text>
            <ellipse cx="362" cy="143.2188" fill="#84BE84" rx="3" ry="3" style="stroke: #038048; stroke-width: 1.0;"/>
            <text fill="#000000" font-family="sans-serif" font-size="11" lengthAdjust="spacingAndGlyphs" textLength="98"
                  x="371" y="146.4292">getChap(): Player
            </text>
            <ellipse cx="362" cy="156.0234" fill="#84BE84" rx="3" ry="3" style="stroke: #038048; stroke-width: 1.0;"/>
            <text fill="#000000" font-family="sans-serif" font-size="11" lengthAdjust="spacingAndGlyphs"
                  textLength="169" x="371" y="159.2339">getBlocks(): ArrayList&lt;Block&gt;
            </text>
            <ellipse cx="362" cy="168.8281" fill="#84BE84" rx="3" ry="3" style="stroke: #038048; stroke-width: 1.0;"/>
            <text fill="#000000" font-family="sans-serif" font-size="11" lengthAdjust="spacingAndGlyphs"
                  textLength="177" x="371" y="172.0386">getCobras(): ArrayList&lt;Cobra&gt;
            </text>
        </a><!--MD5=[06812ece2a3b4b502e1c11e945206a6c]
class nz.ac.vuw.ecs.swen225.gp20.persistence.LevelLoader-->
        <a href="LevelLoader.html" target="_top" title="LevelLoader.html" xlink:actuate="onRequest"
           xlink:href="LevelLoader.html" xlink:show="new" xlink:title="LevelLoader.html" xlink:type="simple">
            <rect codeLine="13" fill="#FEFECE" filter="url(#f16k2qf9no6xii)" height="112.0234"
                  id="nz.ac.vuw.ecs.swen225.gp20.persistence.LevelLoader" style="stroke: #A80036; stroke-width: 1.5;"
                  width="283" x="32.5" y="54"/>
            <ellipse cx="132.75" cy="70" fill="#ADD1B2" rx="11" ry="11" style="stroke: #A80036; stroke-width: 1.0;"/>
            <path d="M135.7188,75.6406 Q135.1406,75.9375 134.5,76.0781 Q133.8594,76.2344 133.1563,76.2344 Q130.6563,76.2344 129.3281,74.5938 Q128.0156,72.9375 128.0156,69.8125 Q128.0156,66.6875 129.3281,65.0313 Q130.6563,63.375 133.1563,63.375 Q133.8594,63.375 134.5,63.5313 Q135.1563,63.6875 135.7188,63.9844 L135.7188,66.7031 Q135.0938,66.125 134.5,65.8594 Q133.9063,65.5781 133.2813,65.5781 Q131.9375,65.5781 131.25,66.6563 Q130.5625,67.7188 130.5625,69.8125 Q130.5625,71.9063 131.25,72.9844 Q131.9375,74.0469 133.2813,74.0469 Q133.9063,74.0469 134.5,73.7813 Q135.0938,73.5 135.7188,72.9219 L135.7188,75.6406 Z "/>
            <text fill="#000000" font-family="sans-serif" font-size="12" lengthAdjust="spacingAndGlyphs" textLength="74"
                  x="153.25" y="74.1543">LevelLoader
            </text>
            <line style="stroke: #A80036; stroke-width: 1.5;" x1="33.5" x2="314.5" y1="86" y2="86"/>
            <line style="stroke: #A80036; stroke-width: 1.5;" x1="33.5" x2="314.5" y1="94" y2="94"/>
            <ellipse cx="43.5" cy="105" fill="#84BE84" rx="3" ry="3" style="stroke: #038048; stroke-width: 1.0;"/>
            <text fill="#000000" font-family="sans-serif" font-size="11" lengthAdjust="spacingAndGlyphs"
                  text-decoration="underline" textLength="83" x="52.5" y="108.2104">load(int): Level
            </text>
            <ellipse cx="43.5" cy="117.8047" fill="#84BE84" rx="3" ry="3" style="stroke: #038048; stroke-width: 1.0;"/>
            <text fill="#000000" font-family="sans-serif" font-size="11" lengthAdjust="spacingAndGlyphs"
                  text-decoration="underline" textLength="224" x="52.5" y="121.0151">getGameState(Main):
                JsonObjectBuilder
            </text>
            <ellipse cx="43.5" cy="130.6094" fill="#84BE84" rx="3" ry="3" style="stroke: #038048; stroke-width: 1.0;"/>
            <text fill="#000000" font-family="sans-serif" font-size="11" lengthAdjust="spacingAndGlyphs"
                  text-decoration="underline" textLength="257" x="52.5" y="133.8198">saveGameState(JsonObjectBuilder,
                File): void
            </text>
            <ellipse cx="43.5" cy="143.4141" fill="#84BE84" rx="3" ry="3" style="stroke: #038048; stroke-width: 1.0;"/>
            <text fill="#000000" font-family="sans-serif" font-size="11" lengthAdjust="spacingAndGlyphs"
                  text-decoration="underline" textLength="169" x="52.5" y="146.6245">loadOldGame(Main, File): void
            </text>
            <ellipse cx="43.5" cy="156.2188" fill="#84BE84" rx="3" ry="3" style="stroke: #038048; stroke-width: 1.0;"/>
            <text fill="#000000" font-family="sans-serif" font-size="11" lengthAdjust="spacingAndGlyphs"
                  text-decoration="underline" textLength="192" x="52.5" y="159.4292">loadGameState(JsonObject): Maze
            </text>
        </a>
        <text fill="#888888" font-family="sans-serif" font-size="10" lengthAdjust="spacingAndGlyphs" textLength="192"
              x="275.5" y="210.2822">UMLDoclet 2.0.12, PlantUML 1.2020.16
        </text><!--MD5=[3a853d7a69f5837c7fc43721698704b3]
@startuml
    namespace nz.ac.vuw.ecs.swen225.gp20.persistence {

        class Level [[Level.html]] {
            +Level(Tile[], int, Player)
            +Level(Tile[], int, Player, ArrayList<Block>, ArrayList<Cobra>)
            +getMap(): Tile[]
            +getTreasures(): int
            +getChap(): Player
            +getBlocks(): ArrayList<Block>
            +getCobras(): ArrayList<Cobra>
        }

        class LevelLoader [[LevelLoader.html]] {
            {static} +load(int): Level
            {static} +getGameState(Main): JsonObjectBuilder
            {static} +saveGameState(JsonObjectBuilder, File): void
            {static} +loadOldGame(Main, File): void
            {static} +loadGameState(JsonObject): Maze
        }

    }

    center footer UMLDoclet 2.0.12, PlantUML 1.2020.16
@enduml

PlantUML version 1.2020.16(Mon Aug 24 08:20:43 NZST 2020)
(APACHE source distribution)
Java Runtime: OpenJDK Runtime Environment
JVM: OpenJDK 64-Bit Server VM
Default Encoding: UTF-8
Language: en
Country: null
-->
    </g>
</svg>