<?xml version="1.0" encoding="UTF-8" standalone="no"?><svg xmlns:xlink="http://www.w3.org/1999/xlink" xmlns="http://www.w3.org/2000/svg" contentScriptType="application/ecmascript" contentStyleType="text/css" height="108px" preserveAspectRatio="none" style="width:364px;height:108px;" version="1.1" viewBox="0 0 364 108" width="364px" zoomAndPan="magnify"><defs><filter height="300%" id="fi045mxgwomob" width="300%" x="-1" y="-1"><feGaussianBlur result="blurOut" stdDeviation="2.0"/><feColorMatrix in="blurOut" result="blurOut2" type="matrix" values="0 0 0 0 0 0 0 0 0 0 0 0 0 0 0 0 0 0 .4 0"/><feOffset dx="4.0" dy="4.0" in="blurOut2" result="blurOut3"/><feBlend in="SourceGraphic" in2="blurOut3" mode="normal"/></filter></defs><g><!--MD5=[d2ee39748e58745aede56f7822f1c775]
class nz.ac.vuw.ecs.swen225.gp20.recnplay.replayConstants.ButtonMaker--><a href="ButtonMaker.html" target="_top" title="ButtonMaker.html" xlink:actuate="onRequest" xlink:href="ButtonMaker.html" xlink:show="new" xlink:title="ButtonMaker.html" xlink:type="simple"><rect codeLine="5" fill="#FEFECE" filter="url(#fi045mxgwomob)" height="71.5469" id="nz.ac.vuw.ecs.swen225.gp20.recnplay.replayConstants.ButtonMaker" style="stroke: #A80036; stroke-width: 1.5;" width="338" x="7" y="7"/><ellipse cx="39.55" cy="25.9688" fill="#ADD1B2" rx="11" ry="11" style="stroke: #A80036; stroke-width: 1.0;"/><path d="M42.5188,31.6094 Q41.9406,31.9063 41.3,32.0469 Q40.6594,32.2031 39.9563,32.2031 Q37.4563,32.2031 36.1281,30.5625 Q34.8156,28.9063 34.8156,25.7813 Q34.8156,22.6563 36.1281,21 Q37.4563,19.3438 39.9563,19.3438 Q40.6594,19.3438 41.3,19.5 Q41.9563,19.6563 42.5188,19.9531 L42.5188,22.6719 Q41.8938,22.0938 41.3,21.8281 Q40.7063,21.5469 40.0813,21.5469 Q38.7375,21.5469 38.05,22.625 Q37.3625,23.6875 37.3625,25.7813 Q37.3625,27.875 38.05,28.9531 Q38.7375,30.0156 40.0813,30.0156 Q40.7063,30.0156 41.3,29.75 Q41.8938,29.4688 42.5188,28.8906 L42.5188,31.6094 Z "/><text fill="#000000" font-family="sans-serif" font-size="14" lengthAdjust="spacingAndGlyphs" textLength="89" x="146.45" y="24.9951">ButtonMaker</text><text fill="#000000" font-family="sans-serif" font-size="10" lengthAdjust="spacingAndGlyphs" textLength="267" x="57.45" y="37.5791">nz.ac.vuw.ecs.swen225.gp20.recnplay.replayConstants</text><line style="stroke: #A80036; stroke-width: 1.5;" x1="8" x2="344" y1="44.9375" y2="44.9375"/><ellipse cx="18" cy="55.9375" fill="#84BE84" rx="3" ry="3" style="stroke: #038048; stroke-width: 1.0;"/><text fill="#000000" font-family="sans-serif" font-size="11" lengthAdjust="spacingAndGlyphs" text-decoration="underline" textLength="143" x="27" y="59.1479">styleButton(JButton): void</text><ellipse cx="18" cy="68.7422" fill="#84BE84" rx="3" ry="3" style="stroke: #038048; stroke-width: 1.0;"/><text fill="#000000" font-family="sans-serif" font-size="11" lengthAdjust="spacingAndGlyphs" text-decoration="underline" textLength="312" x="27" y="71.9526">styleButton(JButton, Main, ReplayModes, boolean): void</text></a><text fill="#888888" font-family="sans-serif" font-size="10" lengthAdjust="spacingAndGlyphs" textLength="192" x="80" y="94.8291">UMLDoclet 2.0.12, PlantUML 1.2020.16</text><!--MD5=[79e8419541aef9636dc84c6c666e9e54]
@startuml
    set namespaceSeparator none
    hide empty fields
    hide empty methods

    class "<size:14>ButtonMaker\n<size:10>nz.ac.vuw.ecs.swen225.gp20.recnplay.replayConstants" as nz.ac.vuw.ecs.swen225.gp20.recnplay.replayConstants.ButtonMaker [[ButtonMaker.html]] {
        {static} +styleButton(JButton): void
        {static} +styleButton(JButton, Main, ReplayModes, boolean): void
    }

    center footer UMLDoclet 2.0.12, PlantUML 1.2020.16
@enduml

PlantUML version 1.2020.16(Mon Aug 24 08:20:43 NZST 2020)
(APACHE source distribution)
Java Runtime: OpenJDK Runtime Environment
JVM: OpenJDK 64-Bit Server VM
Default Encoding: UTF-8
Language: en
Country: null
--></g></svg>