<?xml version="1.0" encoding="UTF-8" standalone="no"?><svg xmlns:xlink="http://www.w3.org/1999/xlink" xmlns="http://www.w3.org/2000/svg" contentScriptType="application/ecmascript" contentStyleType="text/css" height="237px" preserveAspectRatio="none" style="width:249px;height:237px;" version="1.1" viewBox="0 0 249 237" width="249px" zoomAndPan="magnify"><defs><filter height="300%" id="fz9f3c8wd57zw" width="300%" x="-1" y="-1"><feGaussianBlur result="blurOut" stdDeviation="2.0"/><feColorMatrix in="blurOut" result="blurOut2" type="matrix" values="0 0 0 0 0 0 0 0 0 0 0 0 0 0 0 0 0 0 .4 0"/><feOffset dx="4.0" dy="4.0" in="blurOut2" result="blurOut3"/><feBlend in="SourceGraphic" in2="blurOut3" mode="normal"/></filter></defs><g><!--MD5=[ab952c9908bebce0edb0615797c7503a]
class nz.ac.vuw.ecs.swen225.gp20.render.Canvas--><a href="Canvas.html" target="_top" title="Canvas.html" xlink:actuate="onRequest" xlink:href="Canvas.html" xlink:show="new" xlink:title="Canvas.html" xlink:type="simple"><rect codeLine="5" fill="#FEFECE" filter="url(#fz9f3c8wd57zw)" height="97.1563" id="nz.ac.vuw.ecs.swen225.gp20.render.Canvas" style="stroke: #A80036; stroke-width: 1.5;" width="223" x="7" y="105"/><ellipse cx="29.2" cy="123.9688" fill="#ADD1B2" rx="11" ry="11" style="stroke: #A80036; stroke-width: 1.0;"/><path d="M32.1688,129.6094 Q31.5906,129.9063 30.95,130.0469 Q30.3094,130.2031 29.6063,130.2031 Q27.1063,130.2031 25.7781,128.5625 Q24.4656,126.9063 24.4656,123.7813 Q24.4656,120.6563 25.7781,119 Q27.1063,117.3438 29.6063,117.3438 Q30.3094,117.3438 30.95,117.5 Q31.6063,117.6563 32.1688,117.9531 L32.1688,120.6719 Q31.5438,120.0938 30.95,119.8281 Q30.3563,119.5469 29.7313,119.5469 Q28.3875,119.5469 27.7,120.625 Q27.0125,121.6875 27.0125,123.7813 Q27.0125,125.875 27.7,126.9531 Q28.3875,128.0156 29.7313,128.0156 Q30.3563,128.0156 30.95,127.75 Q31.5438,127.4688 32.1688,126.8906 L32.1688,129.6094 Z "/><text fill="#000000" font-family="sans-serif" font-size="14" lengthAdjust="spacingAndGlyphs" textLength="50" x="107.3" y="122.9951">Canvas</text><text fill="#000000" font-family="sans-serif" font-size="10" lengthAdjust="spacingAndGlyphs" textLength="175" x="44.8" y="135.5791">nz.ac.vuw.ecs.swen225.gp20.render</text><line style="stroke: #A80036; stroke-width: 1.5;" x1="8" x2="229" y1="142.9375" y2="142.9375"/><ellipse cx="18" cy="153.9375" fill="#84BE84" rx="3" ry="3" style="stroke: #038048; stroke-width: 1.0;"/><text fill="#000000" font-family="sans-serif" font-size="11" lengthAdjust="spacingAndGlyphs" textLength="78" x="27" y="157.1479">Canvas(Maze)</text><ellipse cx="18" cy="166.7422" fill="#84BE84" rx="3" ry="3" style="stroke: #038048; stroke-width: 1.0;"/><text fill="#000000" font-family="sans-serif" font-size="11" lengthAdjust="spacingAndGlyphs" textLength="153" x="27" y="169.9526">refreshComponents(): void</text><ellipse cx="18" cy="179.5469" fill="#84BE84" rx="3" ry="3" style="stroke: #038048; stroke-width: 1.0;"/><text fill="#000000" font-family="sans-serif" font-size="11" lengthAdjust="spacingAndGlyphs" text-decoration="underline" textLength="197" x="27" y="182.7573">makeImageIcon(String): ImageIcon</text><ellipse cx="18" cy="192.3516" fill="#84BE84" rx="3" ry="3" style="stroke: #038048; stroke-width: 1.0;"/><text fill="#000000" font-family="sans-serif" font-size="11" lengthAdjust="spacingAndGlyphs" textLength="113" x="27" y="195.562">setMaze(Maze): void</text></a><!--MD5=[56a185cb33bdc7c23303e5865f20a19b]
class javax.swing.JPanel--><rect codeLine="12" fill="#FEFECE" filter="url(#fz9f3c8wd57zw)" height="37.9375" id="javax.swing.JPanel" style="stroke: #A80036; stroke-width: 1.5;" width="88" x="74.5" y="7"/><ellipse cx="89.5" cy="25.9688" fill="#ADD1B2" rx="11" ry="11" style="stroke: #A80036; stroke-width: 1.0;"/><path d="M92.4688,31.6094 Q91.8906,31.9063 91.25,32.0469 Q90.6094,32.2031 89.9063,32.2031 Q87.4063,32.2031 86.0781,30.5625 Q84.7656,28.9063 84.7656,25.7813 Q84.7656,22.6563 86.0781,21 Q87.4063,19.3438 89.9063,19.3438 Q90.6094,19.3438 91.25,19.5 Q91.9063,19.6563 92.4688,19.9531 L92.4688,22.6719 Q91.8438,22.0938 91.25,21.8281 Q90.6563,21.5469 90.0313,21.5469 Q88.6875,21.5469 88,22.625 Q87.3125,23.6875 87.3125,25.7813 Q87.3125,27.875 88,28.9531 Q88.6875,30.0156 90.0313,30.0156 Q90.6563,30.0156 91.25,29.75 Q91.8438,29.4688 92.4688,28.8906 L92.4688,31.6094 Z "/><text fill="#000000" font-family="sans-serif" font-size="14" lengthAdjust="spacingAndGlyphs" textLength="41" x="111" y="24.9951">JPanel</text><text fill="#000000" font-family="sans-serif" font-size="10" lengthAdjust="spacingAndGlyphs" textLength="56" x="103.5" y="37.5791">javax.swing</text><!--MD5=[04b78ee4b784bd5968af90021003f2ed]
reverse link javax.swing.JPanel to nz.ac.vuw.ecs.swen225.gp20.render.Canvas--><path codeLine="14" d="M118.5,65.52 C118.5,77.97 118.5,91.93 118.5,104.96 " fill="none" id="javax.swing.JPanel-backto-nz.ac.vuw.ecs.swen225.gp20.render.Canvas" style="stroke: #A80036; stroke-width: 1.0;"/><polygon fill="none" points="111.5,65.25,118.5,45.25,125.5,65.25,111.5,65.25" style="stroke: #A80036; stroke-width: 1.0;"/><text fill="#888888" font-family="sans-serif" font-size="10" lengthAdjust="spacingAndGlyphs" textLength="192" x="19.5" y="224.4385">UMLDoclet 2.0.12, PlantUML 1.2020.16</text><!--MD5=[17839eb7b3a47ee9936777988a83539d]
@startuml
    set namespaceSeparator none
    hide empty fields
    hide empty methods

    class "<size:14>Canvas\n<size:10>nz.ac.vuw.ecs.swen225.gp20.render" as nz.ac.vuw.ecs.swen225.gp20.render.Canvas [[Canvas.html]] {
        +Canvas(Maze)
        +refreshComponents(): void
        {static} +makeImageIcon(String): ImageIcon
        +setMaze(Maze): void
    }

    class "<size:14>JPanel\n<size:10>javax.swing" as javax.swing.JPanel

    javax.swing.JPanel <|- - nz.ac.vuw.ecs.swen225.gp20.render.Canvas

    center footer UMLDoclet 2.0.12, PlantUML 1.2020.16
@enduml

PlantUML version 1.2020.16(Mon Aug 24 08:20:43 NZST 2020)
(APACHE source distribution)
Java Runtime: OpenJDK Runtime Environment
JVM: OpenJDK 64-Bit Server VM
Default Encoding: UTF-8
Language: en
Country: null
--></g></svg>