<?xml version="1.0" encoding="UTF-8" standalone="no"?>
<svg xmlns:xlink="http://www.w3.org/1999/xlink" xmlns="http://www.w3.org/2000/svg"
     contentScriptType="application/ecmascript" contentStyleType="text/css" height="307px" preserveAspectRatio="none"
     style="width:555px;height:307px;" version="1.1" viewBox="0 0 555 307" width="555px" zoomAndPan="magnify">
    <defs>
        <filter height="300%" id="fw0b0o2cfk8c9" width="300%" x="-1" y="-1">
            <feGaussianBlur result="blurOut" stdDeviation="2.0"/>
            <feColorMatrix in="blurOut" result="blurOut2" type="matrix"
                           values="0 0 0 0 0 0 0 0 0 0 0 0 0 0 0 0 0 0 .4 0"/>
            <feOffset dx="4.0" dy="4.0" in="blurOut2" result="blurOut3"/>
            <feBlend in="SourceGraphic" in2="blurOut3" mode="normal"/>
        </filter>
    </defs>
    <g><!--MD5=[cb8297c5acf7171cb20d91d991001518]
cluster nz.ac.vuw.ecs.swen225.gp20.render-->
        <polygon fill="#FFFFFF" filter="url(#fw0b0o2cfk8c9)"
                 points="16,129,317,129,324,151.2969,533,151.2969,533,279,16,279,16,129"
                 style="stroke: #000000; stroke-width: 1.5;"/>
        <line style="stroke: #000000; stroke-width: 1.5;" x1="16" x2="324" y1="151.2969" y2="151.2969"/>
        <text fill="#000000" font-family="sans-serif" font-size="14" font-weight="bold" lengthAdjust="spacingAndGlyphs"
              textLength="295" x="20" y="143.9951">nz.ac.vuw.ecs.swen225.gp20.render
        </text><!--MD5=[535aab4de90d4dfa371a9b40d5438fc3]
cluster javax.swing-->
        <polygon fill="#FFFFFF" filter="url(#fw0b0o2cfk8c9)"
                 points="249,6,347,6,354,28.2969,357,28.2969,357,105,249,105,249,6"
                 style="stroke: #000000; stroke-width: 1.5;"/>
        <line style="stroke: #000000; stroke-width: 1.5;" x1="249" x2="354" y1="28.2969" y2="28.2969"/>
        <text fill="#000000" font-family="sans-serif" font-size="14" font-weight="bold" lengthAdjust="spacingAndGlyphs"
              textLength="92" x="253" y="20.9951">javax.swing
        </text><!--MD5=[aa7d09786b0c39f02c1d43b0057b0d64]
class nz.ac.vuw.ecs.swen225.gp20.render.Music-->
        <a href="Music.html" target="_top" title="Music.html" xlink:actuate="onRequest" xlink:href="Music.html"
           xlink:show="new" xlink:title="Music.html" xlink:type="simple">
            <rect codeLine="3" fill="#FEFECE" filter="url(#fw0b0o2cfk8c9)" height="48"
                  id="nz.ac.vuw.ecs.swen225.gp20.render.Music" style="stroke: #A80036; stroke-width: 1.5;" width="67"
                  x="449.5" y="189.5"/>
            <ellipse cx="464.5" cy="205.5" fill="#ADD1B2" rx="11" ry="11" style="stroke: #A80036; stroke-width: 1.0;"/>
            <path d="M467.4688,211.1406 Q466.8906,211.4375 466.25,211.5781 Q465.6094,211.7344 464.9063,211.7344 Q462.4063,211.7344 461.0781,210.0938 Q459.7656,208.4375 459.7656,205.3125 Q459.7656,202.1875 461.0781,200.5313 Q462.4063,198.875 464.9063,198.875 Q465.6094,198.875 466.25,199.0313 Q466.9063,199.1875 467.4688,199.4844 L467.4688,202.2031 Q466.8438,201.625 466.25,201.3594 Q465.6563,201.0781 465.0313,201.0781 Q463.6875,201.0781 463,202.1563 Q462.3125,203.2188 462.3125,205.3125 Q462.3125,207.4063 463,208.4844 Q463.6875,209.5469 465.0313,209.5469 Q465.6563,209.5469 466.25,209.2813 Q466.8438,209 467.4688,208.4219 L467.4688,211.1406 Z "/>
            <text fill="#000000" font-family="sans-serif" font-size="12" lengthAdjust="spacingAndGlyphs" textLength="35"
                  x="478.5" y="209.6543">Music
            </text>
            <line style="stroke: #A80036; stroke-width: 1.5;" x1="450.5" x2="515.5" y1="221.5" y2="221.5"/>
            <line style="stroke: #A80036; stroke-width: 1.5;" x1="450.5" x2="515.5" y1="229.5" y2="229.5"/>
        </a><!--MD5=[ab952c9908bebce0edb0615797c7503a]
class nz.ac.vuw.ecs.swen225.gp20.render.Canvas-->
        <a href="Canvas.html" target="_top" title="Canvas.html" xlink:actuate="onRequest" xlink:href="Canvas.html"
           xlink:show="new" xlink:title="Canvas.html" xlink:type="simple">
            <rect codeLine="6" fill="#FEFECE" filter="url(#fw0b0o2cfk8c9)" height="99.2188"
                  id="nz.ac.vuw.ecs.swen225.gp20.render.Canvas" style="stroke: #A80036; stroke-width: 1.5;" width="223"
                  x="191.5" y="164"/>
            <ellipse cx="276.25" cy="180" fill="#ADD1B2" rx="11" ry="11" style="stroke: #A80036; stroke-width: 1.0;"/>
            <path d="M279.2188,185.6406 Q278.6406,185.9375 278,186.0781 Q277.3594,186.2344 276.6563,186.2344 Q274.1563,186.2344 272.8281,184.5938 Q271.5156,182.9375 271.5156,179.8125 Q271.5156,176.6875 272.8281,175.0313 Q274.1563,173.375 276.6563,173.375 Q277.3594,173.375 278,173.5313 Q278.6563,173.6875 279.2188,173.9844 L279.2188,176.7031 Q278.5938,176.125 278,175.8594 Q277.4063,175.5781 276.7813,175.5781 Q275.4375,175.5781 274.75,176.6563 Q274.0625,177.7188 274.0625,179.8125 Q274.0625,181.9063 274.75,182.9844 Q275.4375,184.0469 276.7813,184.0469 Q277.4063,184.0469 278,183.7813 Q278.5938,183.5 279.2188,182.9219 L279.2188,185.6406 Z "/>
            <text fill="#000000" font-family="sans-serif" font-size="12" lengthAdjust="spacingAndGlyphs" textLength="45"
                  x="296.75" y="184.1543">Canvas
            </text>
            <line style="stroke: #A80036; stroke-width: 1.5;" x1="192.5" x2="413.5" y1="196" y2="196"/>
            <line style="stroke: #A80036; stroke-width: 1.5;" x1="192.5" x2="413.5" y1="204" y2="204"/>
            <ellipse cx="202.5" cy="215" fill="#84BE84" rx="3" ry="3" style="stroke: #038048; stroke-width: 1.0;"/>
            <text fill="#000000" font-family="sans-serif" font-size="11" lengthAdjust="spacingAndGlyphs" textLength="78"
                  x="211.5" y="218.2104">Canvas(Maze)
            </text>
            <ellipse cx="202.5" cy="227.8047" fill="#84BE84" rx="3" ry="3" style="stroke: #038048; stroke-width: 1.0;"/>
            <text fill="#000000" font-family="sans-serif" font-size="11" lengthAdjust="spacingAndGlyphs"
                  textLength="153" x="211.5" y="231.0151">refreshComponents(): void
            </text>
            <ellipse cx="202.5" cy="240.6094" fill="#84BE84" rx="3" ry="3" style="stroke: #038048; stroke-width: 1.0;"/>
            <text fill="#000000" font-family="sans-serif" font-size="11" lengthAdjust="spacingAndGlyphs"
                  text-decoration="underline" textLength="197" x="211.5" y="243.8198">makeImageIcon(String): ImageIcon
            </text>
            <ellipse cx="202.5" cy="253.4141" fill="#84BE84" rx="3" ry="3" style="stroke: #038048; stroke-width: 1.0;"/>
            <text fill="#000000" font-family="sans-serif" font-size="11" lengthAdjust="spacingAndGlyphs"
                  textLength="113" x="211.5" y="256.6245">setMaze(Maze): void
            </text>
        </a><!--MD5=[1a2875c6199d750b163e528e195379b0]
class nz.ac.vuw.ecs.swen225.gp20.render.SoundEffect-->
        <a href="SoundEffect.html" target="_top" title="SoundEffect.html" xlink:actuate="onRequest"
           xlink:href="SoundEffect.html" xlink:show="new" xlink:title="SoundEffect.html" xlink:type="simple">
            <rect codeLine="13" fill="#FEFECE" filter="url(#fw0b0o2cfk8c9)" height="60.8047"
                  id="nz.ac.vuw.ecs.swen225.gp20.render.SoundEffect" style="stroke: #A80036; stroke-width: 1.5;"
                  width="124" x="32" y="183"/>
            <ellipse cx="54.2" cy="199" fill="#ADD1B2" rx="11" ry="11" style="stroke: #A80036; stroke-width: 1.0;"/>
            <path d="M57.1688,204.6406 Q56.5906,204.9375 55.95,205.0781 Q55.3094,205.2344 54.6063,205.2344 Q52.1063,205.2344 50.7781,203.5938 Q49.4656,201.9375 49.4656,198.8125 Q49.4656,195.6875 50.7781,194.0313 Q52.1063,192.375 54.6063,192.375 Q55.3094,192.375 55.95,192.5313 Q56.6063,192.6875 57.1688,192.9844 L57.1688,195.7031 Q56.5438,195.125 55.95,194.8594 Q55.3563,194.5781 54.7313,194.5781 Q53.3875,194.5781 52.7,195.6563 Q52.0125,196.7188 52.0125,198.8125 Q52.0125,200.9063 52.7,201.9844 Q53.3875,203.0469 54.7313,203.0469 Q55.3563,203.0469 55.95,202.7813 Q56.5438,202.5 57.1688,201.9219 L57.1688,204.6406 Z "/>
            <text fill="#000000" font-family="sans-serif" font-size="12" lengthAdjust="spacingAndGlyphs" textLength="76"
                  x="69.8" y="203.1543">SoundEffect
            </text>
            <line style="stroke: #A80036; stroke-width: 1.5;" x1="33" x2="155" y1="215" y2="215"/>
            <line style="stroke: #A80036; stroke-width: 1.5;" x1="33" x2="155" y1="223" y2="223"/>
            <ellipse cx="43" cy="234" fill="#84BE84" rx="3" ry="3" style="stroke: #038048; stroke-width: 1.0;"/>
            <text fill="#000000" font-family="sans-serif" font-size="11" lengthAdjust="spacingAndGlyphs"
                  text-decoration="underline" textLength="98" x="52" y="237.2104">play(Sound): void
            </text>
        </a><!--MD5=[56a185cb33bdc7c23303e5865f20a19b]
class javax.swing.JPanel-->
        <rect codeLine="21" fill="#FEFECE" filter="url(#fw0b0o2cfk8c9)" height="48" id="javax.swing.JPanel"
              style="stroke: #A80036; stroke-width: 1.5;" width="70" x="268" y="41"/>
        <ellipse cx="283" cy="57" fill="#ADD1B2" rx="11" ry="11" style="stroke: #A80036; stroke-width: 1.0;"/>
        <path d="M285.9688,62.6406 Q285.3906,62.9375 284.75,63.0781 Q284.1094,63.2344 283.4063,63.2344 Q280.9063,63.2344 279.5781,61.5938 Q278.2656,59.9375 278.2656,56.8125 Q278.2656,53.6875 279.5781,52.0313 Q280.9063,50.375 283.4063,50.375 Q284.1094,50.375 284.75,50.5313 Q285.4063,50.6875 285.9688,50.9844 L285.9688,53.7031 Q285.3438,53.125 284.75,52.8594 Q284.1563,52.5781 283.5313,52.5781 Q282.1875,52.5781 281.5,53.6563 Q280.8125,54.7188 280.8125,56.8125 Q280.8125,58.9063 281.5,59.9844 Q282.1875,61.0469 283.5313,61.0469 Q284.1563,61.0469 284.75,60.7813 Q285.3438,60.5 285.9688,59.9219 L285.9688,62.6406 Z "/>
        <text fill="#000000" font-family="sans-serif" font-size="12" lengthAdjust="spacingAndGlyphs" textLength="38"
              x="297" y="61.1543">JPanel
        </text>
        <line style="stroke: #A80036; stroke-width: 1.5;" x1="269" x2="337" y1="73" y2="73"/>
        <line style="stroke: #A80036; stroke-width: 1.5;" x1="269" x2="337" y1="81" y2="81"/><!--MD5=[04b78ee4b784bd5968af90021003f2ed]
reverse link javax.swing.JPanel to nz.ac.vuw.ecs.swen225.gp20.render.Canvas-->
        <path codeLine="17" d="M303,109.48 C303,126.6 303,146.34 303,163.93 " fill="none"
              id="javax.swing.JPanel-backto-nz.ac.vuw.ecs.swen225.gp20.render.Canvas"
              style="stroke: #A80036; stroke-width: 1.0;"/>
        <polygon fill="none" points="296,109.21,303,89.21,310,109.21,296,109.21"
                 style="stroke: #A80036; stroke-width: 1.0;"/>
        <text fill="#888888" font-family="sans-serif" font-size="10" lengthAdjust="spacingAndGlyphs" textLength="192"
              x="172.5" y="294.2822">UMLDoclet 2.0.12, PlantUML 1.2020.16
        </text><!--MD5=[69c53c10d693e689a3a6cddf0aee1fbd]
@startuml
    namespace nz.ac.vuw.ecs.swen225.gp20.render {

        class Music [[Music.html]] {
        }

        class Canvas [[Canvas.html]] {
            +Canvas(Maze)
            +refreshComponents(): void
            {static} +makeImageIcon(String): ImageIcon
            +setMaze(Maze): void
        }

        class SoundEffect [[SoundEffect.html]] {
            {static} +play(Sound): void
        }

        javax.swing.JPanel <|- - Canvas
    }

    namespace javax.swing {
        class JPanel {
        }
    }

    center footer UMLDoclet 2.0.12, PlantUML 1.2020.16
@enduml

PlantUML version 1.2020.16(Mon Aug 24 08:20:43 NZST 2020)
(APACHE source distribution)
Java Runtime: OpenJDK Runtime Environment
JVM: OpenJDK 64-Bit Server VM
Default Encoding: UTF-8
Language: en
Country: NZ
-->
    </g>
</svg>