<?xml version="1.0" encoding="UTF-8" standalone="no"?><svg xmlns:xlink="http://www.w3.org/1999/xlink" xmlns="http://www.w3.org/2000/svg" contentScriptType="application/ecmascript" contentStyleType="text/css" height="289px" preserveAspectRatio="none" style="width:252px;height:289px;" version="1.1" viewBox="0 0 252 289" width="252px" zoomAndPan="magnify"><defs><filter height="300%" id="fk5g5ifkxpjug" width="300%" x="-1" y="-1"><feGaussianBlur result="blurOut" stdDeviation="2.0"/><feColorMatrix in="blurOut" result="blurOut2" type="matrix" values="0 0 0 0 0 0 0 0 0 0 0 0 0 0 0 0 0 0 .4 0"/><feOffset dx="4.0" dy="4.0" in="blurOut2" result="blurOut3"/><feBlend in="SourceGraphic" in2="blurOut3" mode="normal"/></filter></defs><g><!--MD5=[a0b0cf73325721b4f5c2e9a00037d854]
class nz.ac.vuw.ecs.swen225.gp20.application.Dashboard--><a href="Dashboard.html" target="_top" title="Dashboard.html" xlink:actuate="onRequest" xlink:href="Dashboard.html" xlink:show="new" xlink:title="Dashboard.html" xlink:type="simple"><rect codeLine="5" fill="#FEFECE" filter="url(#fk5g5ifkxpjug)" height="148.375" id="nz.ac.vuw.ecs.swen225.gp20.application.Dashboard" style="stroke: #A80036; stroke-width: 1.5;" width="226" x="7" y="105"/><ellipse cx="22" cy="123.9688" fill="#ADD1B2" rx="11" ry="11" style="stroke: #A80036; stroke-width: 1.0;"/><path d="M24.9688,129.6094 Q24.3906,129.9063 23.75,130.0469 Q23.1094,130.2031 22.4063,130.2031 Q19.9063,130.2031 18.5781,128.5625 Q17.2656,126.9063 17.2656,123.7813 Q17.2656,120.6563 18.5781,119 Q19.9063,117.3438 22.4063,117.3438 Q23.1094,117.3438 23.75,117.5 Q24.4063,117.6563 24.9688,117.9531 L24.9688,120.6719 Q24.3438,120.0938 23.75,119.8281 Q23.1563,119.5469 22.5313,119.5469 Q21.1875,119.5469 20.5,120.625 Q19.8125,121.6875 19.8125,123.7813 Q19.8125,125.875 20.5,126.9531 Q21.1875,128.0156 22.5313,128.0156 Q23.1563,128.0156 23.75,127.75 Q24.3438,127.4688 24.9688,126.8906 L24.9688,129.6094 Z "/><text fill="#000000" font-family="sans-serif" font-size="14" lengthAdjust="spacingAndGlyphs" textLength="76" x="95" y="122.9951">Dashboard</text><text fill="#000000" font-family="sans-serif" font-size="10" lengthAdjust="spacingAndGlyphs" textLength="194" x="36" y="135.5791">nz.ac.vuw.ecs.swen225.gp20.application</text><line style="stroke: #A80036; stroke-width: 1.5;" x1="8" x2="232" y1="142.9375" y2="142.9375"/><ellipse cx="18" cy="153.9375" fill="#84BE84" rx="3" ry="3" style="stroke: #038048; stroke-width: 1.0;"/><text fill="#000000" font-family="sans-serif" font-size="11" lengthAdjust="spacingAndGlyphs" textLength="98" x="27" y="157.1479">Dashboard(Maze)</text><ellipse cx="18" cy="166.7422" fill="#84BE84" rx="3" ry="3" style="stroke: #038048; stroke-width: 1.0;"/><text fill="#000000" font-family="sans-serif" font-size="11" lengthAdjust="spacingAndGlyphs" textLength="147" x="27" y="169.9526">createComponents(): void</text><ellipse cx="18" cy="179.5469" fill="#84BE84" rx="3" ry="3" style="stroke: #038048; stroke-width: 1.0;"/><text fill="#000000" font-family="sans-serif" font-size="11" lengthAdjust="spacingAndGlyphs" textLength="132" x="27" y="182.7573">addComponents(): void</text><ellipse cx="18" cy="192.3516" fill="#84BE84" rx="3" ry="3" style="stroke: #038048; stroke-width: 1.0;"/><text fill="#000000" font-family="sans-serif" font-size="11" lengthAdjust="spacingAndGlyphs" textLength="140" x="27" y="195.562">updateDashboard(): void</text><ellipse cx="18" cy="205.1563" fill="#84BE84" rx="3" ry="3" style="stroke: #038048; stroke-width: 1.0;"/><text fill="#000000" font-family="sans-serif" font-size="11" lengthAdjust="spacingAndGlyphs" textLength="131" x="27" y="208.3667">resetDashboard(): void</text><ellipse cx="18" cy="217.9609" fill="#84BE84" rx="3" ry="3" style="stroke: #038048; stroke-width: 1.0;"/><text fill="#000000" font-family="sans-serif" font-size="11" lengthAdjust="spacingAndGlyphs" textLength="124" x="27" y="221.1714">getFile(Colour): String</text><ellipse cx="18" cy="230.7656" fill="#84BE84" rx="3" ry="3" style="stroke: #038048; stroke-width: 1.0;"/><text fill="#000000" font-family="sans-serif" font-size="11" lengthAdjust="spacingAndGlyphs" textLength="113" x="27" y="233.9761">setMaze(Maze): void</text><ellipse cx="18" cy="243.5703" fill="#84BE84" rx="3" ry="3" style="stroke: #038048; stroke-width: 1.0;"/><text fill="#000000" font-family="sans-serif" font-size="11" lengthAdjust="spacingAndGlyphs" textLength="124" x="27" y="246.7808">setTimer(String): void</text></a><!--MD5=[56a185cb33bdc7c23303e5865f20a19b]
class javax.swing.JPanel--><rect codeLine="16" fill="#FEFECE" filter="url(#fk5g5ifkxpjug)" height="37.9375" id="javax.swing.JPanel" style="stroke: #A80036; stroke-width: 1.5;" width="88" x="76" y="7"/><ellipse cx="91" cy="25.9688" fill="#ADD1B2" rx="11" ry="11" style="stroke: #A80036; stroke-width: 1.0;"/><path d="M93.9688,31.6094 Q93.3906,31.9063 92.75,32.0469 Q92.1094,32.2031 91.4063,32.2031 Q88.9063,32.2031 87.5781,30.5625 Q86.2656,28.9063 86.2656,25.7813 Q86.2656,22.6563 87.5781,21 Q88.9063,19.3438 91.4063,19.3438 Q92.1094,19.3438 92.75,19.5 Q93.4063,19.6563 93.9688,19.9531 L93.9688,22.6719 Q93.3438,22.0938 92.75,21.8281 Q92.1563,21.5469 91.5313,21.5469 Q90.1875,21.5469 89.5,22.625 Q88.8125,23.6875 88.8125,25.7813 Q88.8125,27.875 89.5,28.9531 Q90.1875,30.0156 91.5313,30.0156 Q92.1563,30.0156 92.75,29.75 Q93.3438,29.4688 93.9688,28.8906 L93.9688,31.6094 Z "/><text fill="#000000" font-family="sans-serif" font-size="14" lengthAdjust="spacingAndGlyphs" textLength="41" x="112.5" y="24.9951">JPanel</text><text fill="#000000" font-family="sans-serif" font-size="10" lengthAdjust="spacingAndGlyphs" textLength="56" x="105" y="37.5791">javax.swing</text><!--MD5=[3a1c9459001fe0ccacbd03b58a0bb5e9]
reverse link javax.swing.JPanel to nz.ac.vuw.ecs.swen225.gp20.application.Dashboard--><path codeLine="18" d="M120,65.32 C120,77.41 120,91.2 120,104.88 " fill="none" id="javax.swing.JPanel-backto-nz.ac.vuw.ecs.swen225.gp20.application.Dashboard" style="stroke: #A80036; stroke-width: 1.0;"/><polygon fill="none" points="113,65.21,120,45.21,127,65.21,113,65.21" style="stroke: #A80036; stroke-width: 1.0;"/><text fill="#888888" font-family="sans-serif" font-size="10" lengthAdjust="spacingAndGlyphs" textLength="192" x="21" y="275.6572">UMLDoclet 2.0.12, PlantUML 1.2020.16</text><!--MD5=[b45cdb22d5544c97014b986ebeac9ea4]
@startuml
    set namespaceSeparator none
    hide empty fields
    hide empty methods

    class "<size:14>Dashboard\n<size:10>nz.ac.vuw.ecs.swen225.gp20.application" as nz.ac.vuw.ecs.swen225.gp20.application.Dashboard [[Dashboard.html]] {
        +Dashboard(Maze)
        +createComponents(): void
        +addComponents(): void
        +updateDashboard(): void
        +resetDashboard(): void
        +getFile(Colour): String
        +setMaze(Maze): void
        +setTimer(String): void
    }

    class "<size:14>JPanel\n<size:10>javax.swing" as javax.swing.JPanel

    javax.swing.JPanel <|- - nz.ac.vuw.ecs.swen225.gp20.application.Dashboard

    center footer UMLDoclet 2.0.12, PlantUML 1.2020.16
@enduml

PlantUML version 1.2020.16(Mon Aug 24 08:20:43 NZST 2020)
(APACHE source distribution)
Java Runtime: OpenJDK Runtime Environment
JVM: OpenJDK 64-Bit Server VM
Default Encoding: UTF-8
Language: en
Country: null
--></g></svg>