<?xml version="1.0" encoding="UTF-8" standalone="no"?><svg xmlns:xlink="http://www.w3.org/1999/xlink" xmlns="http://www.w3.org/2000/svg" contentScriptType="application/ecmascript" contentStyleType="text/css" height="296px" preserveAspectRatio="none" style="width:336px;height:296px;" version="1.1" viewBox="0 0 336 296" width="336px" zoomAndPan="magnify"><defs><filter height="300%" id="f1wdtf8q30x9bf" width="300%" x="-1" y="-1"><feGaussianBlur result="blurOut" stdDeviation="2.0"/><feColorMatrix in="blurOut" result="blurOut2" type="matrix" values="0 0 0 0 0 0 0 0 0 0 0 0 0 0 0 0 0 0 .4 0"/><feOffset dx="4.0" dy="4.0" in="blurOut2" result="blurOut3"/><feBlend in="SourceGraphic" in2="blurOut3" mode="normal"/></filter></defs><g><!--MD5=[83b7369569caa394034737a9f0479b79]
class nz.ac.vuw.ecs.swen225.gp20.application.Dialogues--><a href="Dialogues.html" target="_top" title="Dialogues.html" xlink:actuate="onRequest" xlink:href="Dialogues.html" xlink:show="new" xlink:title="Dialogues.html" xlink:type="simple"><rect codeLine="5" fill="#FEFECE" filter="url(#f1wdtf8q30x9bf)" height="109.9609" id="nz.ac.vuw.ecs.swen225.gp20.application.Dialogues" style="stroke: #A80036; stroke-width: 1.5;" width="243" x="15.5" y="151"/><ellipse cx="38.15" cy="169.9688" fill="#ADD1B2" rx="11" ry="11" style="stroke: #A80036; stroke-width: 1.0;"/><path d="M41.1188,175.6094 Q40.5406,175.9063 39.9,176.0469 Q39.2594,176.2031 38.5563,176.2031 Q36.0563,176.2031 34.7281,174.5625 Q33.4156,172.9063 33.4156,169.7813 Q33.4156,166.6563 34.7281,165 Q36.0563,163.3438 38.5563,163.3438 Q39.2594,163.3438 39.9,163.5 Q40.5563,163.6563 41.1188,163.9531 L41.1188,166.6719 Q40.4938,166.0938 39.9,165.8281 Q39.3063,165.5469 38.6813,165.5469 Q37.3375,165.5469 36.65,166.625 Q35.9625,167.6875 35.9625,169.7813 Q35.9625,171.875 36.65,172.9531 Q37.3375,174.0156 38.6813,174.0156 Q39.3063,174.0156 39.9,173.75 Q40.4938,173.4688 41.1188,172.8906 L41.1188,175.6094 Z "/><text fill="#000000" font-family="sans-serif" font-size="14" lengthAdjust="spacingAndGlyphs" textLength="69" x="116.35" y="168.9951">Dialogues</text><text fill="#000000" font-family="sans-serif" font-size="10" lengthAdjust="spacingAndGlyphs" textLength="194" x="53.85" y="181.5791">nz.ac.vuw.ecs.swen225.gp20.application</text><line style="stroke: #A80036; stroke-width: 1.5;" x1="16.5" x2="257.5" y1="188.9375" y2="188.9375"/><ellipse cx="26.5" cy="199.9375" fill="#84BE84" rx="3" ry="3" style="stroke: #038048; stroke-width: 1.0;"/><text fill="#000000" font-family="sans-serif" font-size="11" lengthAdjust="spacingAndGlyphs" textLength="174" x="35.5" y="203.1479">Dialogues(Main, String, String)</text><ellipse cx="26.5" cy="212.7422" fill="#84BE84" rx="3" ry="3" style="stroke: #038048; stroke-width: 1.0;"/><text fill="#000000" font-family="sans-serif" font-size="11" lengthAdjust="spacingAndGlyphs" textLength="217" x="35.5" y="215.9526">setActionListener(ActionListener): void</text><ellipse cx="26.5" cy="225.5469" fill="#84BE84" rx="3" ry="3" style="stroke: #038048; stroke-width: 1.0;"/><text fill="#000000" font-family="sans-serif" font-size="11" lengthAdjust="spacingAndGlyphs" textLength="143" x="35.5" y="228.7573">keyTyped(KeyEvent): void</text><ellipse cx="26.5" cy="238.3516" fill="#84BE84" rx="3" ry="3" style="stroke: #038048; stroke-width: 1.0;"/><text fill="#000000" font-family="sans-serif" font-size="11" lengthAdjust="spacingAndGlyphs" textLength="156" x="35.5" y="241.562">keyPressed(KeyEvent): void</text><ellipse cx="26.5" cy="251.1563" fill="#84BE84" rx="3" ry="3" style="stroke: #038048; stroke-width: 1.0;"/><text fill="#000000" font-family="sans-serif" font-size="11" lengthAdjust="spacingAndGlyphs" textLength="161" x="35.5" y="254.3667">keyReleased(KeyEvent): void</text></a><!--MD5=[c13749207e1e160b2790bec8d09e837f]
class javax.swing.JDialog--><rect codeLine="13" fill="#FEFECE" filter="url(#f1wdtf8q30x9bf)" height="37.9375" id="javax.swing.JDialog" style="stroke: #A80036; stroke-width: 1.5;" width="88" x="7" y="30"/><ellipse cx="22" cy="48.9688" fill="#ADD1B2" rx="11" ry="11" style="stroke: #A80036; stroke-width: 1.0;"/><path d="M24.9688,54.6094 Q24.3906,54.9063 23.75,55.0469 Q23.1094,55.2031 22.4063,55.2031 Q19.9063,55.2031 18.5781,53.5625 Q17.2656,51.9063 17.2656,48.7813 Q17.2656,45.6563 18.5781,44 Q19.9063,42.3438 22.4063,42.3438 Q23.1094,42.3438 23.75,42.5 Q24.4063,42.6563 24.9688,42.9531 L24.9688,45.6719 Q24.3438,45.0938 23.75,44.8281 Q23.1563,44.5469 22.5313,44.5469 Q21.1875,44.5469 20.5,45.625 Q19.8125,46.6875 19.8125,48.7813 Q19.8125,50.875 20.5,51.9531 Q21.1875,53.0156 22.5313,53.0156 Q23.1563,53.0156 23.75,52.75 Q24.3438,52.4688 24.9688,51.8906 L24.9688,54.6094 Z "/><text fill="#000000" font-family="sans-serif" font-size="14" lengthAdjust="spacingAndGlyphs" textLength="46" x="41" y="47.9951">JDialog</text><text fill="#000000" font-family="sans-serif" font-size="10" lengthAdjust="spacingAndGlyphs" textLength="56" x="36" y="60.5791">javax.swing</text><!--MD5=[3eb55d915ce4c988cc6fe2a782a0fcdf]
class java.awt.event.KeyListener--><rect codeLine="14" fill="#FEFECE" filter="url(#f1wdtf8q30x9bf)" height="84.3516" id="java.awt.event.KeyListener" style="stroke: #A80036; stroke-width: 1.5;" width="187" x="130.5" y="7"/><ellipse cx="179.75" cy="25.9688" fill="#B4A7E5" rx="11" ry="11" style="stroke: #A80036; stroke-width: 1.0;"/><path d="M175.6719,21.7344 L175.6719,19.5781 L183.0625,19.5781 L183.0625,21.7344 L180.5938,21.7344 L180.5938,29.8125 L183.0625,29.8125 L183.0625,31.9688 L175.6719,31.9688 L175.6719,29.8125 L178.1406,29.8125 L178.1406,21.7344 L175.6719,21.7344 Z "/><text fill="#000000" font-family="sans-serif" font-size="14" font-style="italic" lengthAdjust="spacingAndGlyphs" textLength="80" x="200.25" y="24.9951">KeyListener</text><text fill="#000000" font-family="sans-serif" font-size="10" font-style="italic" lengthAdjust="spacingAndGlyphs" textLength="72" x="204.25" y="37.5791">java.awt.event</text><line style="stroke: #A80036; stroke-width: 1.5;" x1="131.5" x2="316.5" y1="44.9375" y2="44.9375"/><ellipse cx="141.5" cy="55.9375" fill="#84BE84" rx="3" ry="3" style="stroke: #038048; stroke-width: 1.0;"/><text fill="#000000" font-family="sans-serif" font-size="11" font-style="italic" lengthAdjust="spacingAndGlyphs" textLength="143" x="150.5" y="59.1479">keyTyped(KeyEvent): void</text><ellipse cx="141.5" cy="68.7422" fill="#84BE84" rx="3" ry="3" style="stroke: #038048; stroke-width: 1.0;"/><text fill="#000000" font-family="sans-serif" font-size="11" font-style="italic" lengthAdjust="spacingAndGlyphs" textLength="156" x="150.5" y="71.9526">keyPressed(KeyEvent): void</text><ellipse cx="141.5" cy="81.5469" fill="#84BE84" rx="3" ry="3" style="stroke: #038048; stroke-width: 1.0;"/><text fill="#000000" font-family="sans-serif" font-size="11" font-style="italic" lengthAdjust="spacingAndGlyphs" textLength="161" x="150.5" y="84.7573">keyReleased(KeyEvent): void</text><!--MD5=[4e9b2dc6f65d2c58ccfef36e897c0e2e]
reverse link javax.swing.JDialog to nz.ac.vuw.ecs.swen225.gp20.application.Dialogues--><path codeLine="20" d="M70.85,85.78 C81.56,105.08 94.99,129.29 106.95,150.85 " fill="none" id="javax.swing.JDialog-backto-nz.ac.vuw.ecs.swen225.gp20.application.Dialogues" style="stroke: #A80036; stroke-width: 1.0;"/><polygon fill="none" points="64.62,88.97,61.03,68.08,76.86,82.18,64.62,88.97" style="stroke: #A80036; stroke-width: 1.0;"/><!--MD5=[ea708ec2756a4afc704e596a67c57f1a]
reverse link java.awt.event.KeyListener to nz.ac.vuw.ecs.swen225.gp20.application.Dialogues--><path codeLine="21" d="M191.07,108.67 C183.3,122.5 175.06,137.19 167.41,150.82 " fill="none" id="java.awt.event.KeyListener-backto-nz.ac.vuw.ecs.swen225.gp20.application.Dialogues" style="stroke: #A80036; stroke-width: 1.0; stroke-dasharray: 7.0,7.0;"/><polygon fill="none" points="185.02,105.14,200.91,91.13,197.23,112,185.02,105.14" style="stroke: #A80036; stroke-width: 1.0;"/><text fill="#888888" font-family="sans-serif" font-size="10" lengthAdjust="spacingAndGlyphs" textLength="192" x="63.25" y="283.2432">UMLDoclet 2.0.12, PlantUML 1.2020.16</text><!--MD5=[5b7f57474c2a5378a9da1ca6ac1d40f3]
@startuml
    set namespaceSeparator none
    hide empty fields
    hide empty methods

    class "<size:14>Dialogues\n<size:10>nz.ac.vuw.ecs.swen225.gp20.application" as nz.ac.vuw.ecs.swen225.gp20.application.Dialogues [[Dialogues.html]] {
        +Dialogues(Main, String, String)
        +setActionListener(ActionListener): void
        +keyTyped(KeyEvent): void
        +keyPressed(KeyEvent): void
        +keyReleased(KeyEvent): void
    }

    class "<size:14>JDialog\n<size:10>javax.swing" as javax.swing.JDialog
    interface "<size:14>KeyListener\n<size:10>java.awt.event" as java.awt.event.KeyListener {
        {abstract} +keyTyped(KeyEvent): void
        {abstract} +keyPressed(KeyEvent): void
        {abstract} +keyReleased(KeyEvent): void
    }

    javax.swing.JDialog <|- - nz.ac.vuw.ecs.swen225.gp20.application.Dialogues
    java.awt.event.KeyListener <|.. nz.ac.vuw.ecs.swen225.gp20.application.Dialogues

    center footer UMLDoclet 2.0.12, PlantUML 1.2020.16
@enduml

PlantUML version 1.2020.16(Mon Aug 24 08:20:43 NZST 2020)
(APACHE source distribution)
Java Runtime: OpenJDK Runtime Environment
JVM: OpenJDK 64-Bit Server VM
Default Encoding: UTF-8
Language: en
Country: null
--></g></svg>