<?xml version="1.0" encoding="UTF-8" standalone="no"?>
<svg xmlns:xlink="http://www.w3.org/1999/xlink" xmlns="http://www.w3.org/2000/svg"
     contentScriptType="application/ecmascript" contentStyleType="text/css" height="199px" preserveAspectRatio="none"
     style="width:252px;height:199px;" version="1.1" viewBox="0 0 252 199" width="252px" zoomAndPan="magnify">
    <defs>
        <filter height="300%" id="fzmxisi9gb3g5" width="300%" x="-1" y="-1">
            <feGaussianBlur result="blurOut" stdDeviation="2.0"/>
            <feColorMatrix in="blurOut" result="blurOut2" type="matrix"
                           values="0 0 0 0 0 0 0 0 0 0 0 0 0 0 0 0 0 0 .4 0"/>
            <feOffset dx="4.0" dy="4.0" in="blurOut2" result="blurOut3"/>
            <feBlend in="SourceGraphic" in2="blurOut3" mode="normal"/>
        </filter>
    </defs>
    <g><!--MD5=[43e2ba9142b179c3e85a142a22d0adec]
class nz.ac.vuw.ecs.swen225.gp20.application.MenuBar-->
        <a href="MenuBar.html" target="_top" title="MenuBar.html" xlink:actuate="onRequest" xlink:href="MenuBar.html"
           xlink:show="new" xlink:title="MenuBar.html" xlink:type="simple">
            <rect codeLine="5" fill="#FEFECE" filter="url(#fzmxisi9gb3g5)" height="58.7422"
                  id="nz.ac.vuw.ecs.swen225.gp20.application.MenuBar" style="stroke: #A80036; stroke-width: 1.5;"
                  width="226" x="7" y="105"/>
            <ellipse cx="22" cy="123.9688" fill="#ADD1B2" rx="11" ry="11" style="stroke: #A80036; stroke-width: 1.0;"/>
            <path d="M24.9688,129.6094 Q24.3906,129.9063 23.75,130.0469 Q23.1094,130.2031 22.4063,130.2031 Q19.9063,130.2031 18.5781,128.5625 Q17.2656,126.9063 17.2656,123.7813 Q17.2656,120.6563 18.5781,119 Q19.9063,117.3438 22.4063,117.3438 Q23.1094,117.3438 23.75,117.5 Q24.4063,117.6563 24.9688,117.9531 L24.9688,120.6719 Q24.3438,120.0938 23.75,119.8281 Q23.1563,119.5469 22.5313,119.5469 Q21.1875,119.5469 20.5,120.625 Q19.8125,121.6875 19.8125,123.7813 Q19.8125,125.875 20.5,126.9531 Q21.1875,128.0156 22.5313,128.0156 Q23.1563,128.0156 23.75,127.75 Q24.3438,127.4688 24.9688,126.8906 L24.9688,129.6094 Z "/>
            <text fill="#000000" font-family="sans-serif" font-size="14" lengthAdjust="spacingAndGlyphs" textLength="62"
                  x="102" y="122.9951">MenuBar
            </text>
            <text fill="#000000" font-family="sans-serif" font-size="10" lengthAdjust="spacingAndGlyphs"
                  textLength="194" x="36" y="135.5791">nz.ac.vuw.ecs.swen225.gp20.application
            </text>
            <line style="stroke: #A80036; stroke-width: 1.5;" x1="8" x2="232" y1="142.9375" y2="142.9375"/>
            <ellipse cx="18" cy="153.9375" fill="#84BE84" rx="3" ry="3" style="stroke: #038048; stroke-width: 1.0;"/>
            <text fill="#000000" font-family="sans-serif" font-size="11" lengthAdjust="spacingAndGlyphs" textLength="84"
                  x="27" y="157.1479">MenuBar(Main)
            </text>
        </a><!--MD5=[e1d5997e74a9e0bf94752554eaad51e9]
class javax.swing.JMenuBar-->
        <rect codeLine="9" fill="#FEFECE" filter="url(#fzmxisi9gb3g5)" height="37.9375" id="javax.swing.JMenuBar"
              style="stroke: #A80036; stroke-width: 1.5;" width="97" x="71.5" y="7"/>
        <ellipse cx="86.5" cy="25.9688" fill="#ADD1B2" rx="11" ry="11" style="stroke: #A80036; stroke-width: 1.0;"/>
        <path d="M89.4688,31.6094 Q88.8906,31.9063 88.25,32.0469 Q87.6094,32.2031 86.9063,32.2031 Q84.4063,32.2031 83.0781,30.5625 Q81.7656,28.9063 81.7656,25.7813 Q81.7656,22.6563 83.0781,21 Q84.4063,19.3438 86.9063,19.3438 Q87.6094,19.3438 88.25,19.5 Q88.9063,19.6563 89.4688,19.9531 L89.4688,22.6719 Q88.8438,22.0938 88.25,21.8281 Q87.6563,21.5469 87.0313,21.5469 Q85.6875,21.5469 85,22.625 Q84.3125,23.6875 84.3125,25.7813 Q84.3125,27.875 85,28.9531 Q85.6875,30.0156 87.0313,30.0156 Q87.6563,30.0156 88.25,29.75 Q88.8438,29.4688 89.4688,28.8906 L89.4688,31.6094 Z "/>
        <text fill="#000000" font-family="sans-serif" font-size="14" lengthAdjust="spacingAndGlyphs" textLength="65"
              x="100.5" y="24.9951">JMenuBar
        </text>
        <text fill="#000000" font-family="sans-serif" font-size="10" lengthAdjust="spacingAndGlyphs" textLength="56"
              x="105" y="37.5791">javax.swing
        </text><!--MD5=[ed7dfb46bb572136f78c3582e9261e9b]
reverse link javax.swing.JMenuBar to nz.ac.vuw.ecs.swen225.gp20.application.MenuBar-->
        <path codeLine="11" d="M120,65.22 C120,78.3 120,92.7 120,104.89 " fill="none"
              id="javax.swing.JMenuBar-backto-nz.ac.vuw.ecs.swen225.gp20.application.MenuBar"
              style="stroke: #A80036; stroke-width: 1.0;"/>
        <polygon fill="none" points="113,65.07,120,45.07,127,65.07,113,65.07"
                 style="stroke: #A80036; stroke-width: 1.0;"/>
        <text fill="#888888" font-family="sans-serif" font-size="10" lengthAdjust="spacingAndGlyphs" textLength="192"
              x="21" y="186.0244">UMLDoclet 2.0.12, PlantUML 1.2020.16
        </text><!--MD5=[eb28524d1b9b286929331e8c5cca6aa6]
@startuml
    set namespaceSeparator none
    hide empty fields
    hide empty methods

    class "<size:14>MenuBar\n<size:10>nz.ac.vuw.ecs.swen225.gp20.application" as nz.ac.vuw.ecs.swen225.gp20.application.MenuBar [[MenuBar.html]] {
        +MenuBar(Main)
    }

    class "<size:14>JMenuBar\n<size:10>javax.swing" as javax.swing.JMenuBar

    javax.swing.JMenuBar <|- - nz.ac.vuw.ecs.swen225.gp20.application.MenuBar

    center footer UMLDoclet 2.0.12, PlantUML 1.2020.16
@enduml

PlantUML version 1.2020.16(Mon Aug 24 08:20:43 NZST 2020)
(APACHE source distribution)
Java Runtime: OpenJDK Runtime Environment
JVM: OpenJDK 64-Bit Server VM
Default Encoding: UTF-8
Language: en
Country: NZ
-->
    </g>
</svg>