<?xml version="1.0" encoding="UTF-8" standalone="no"?>
<svg xmlns:xlink="http://www.w3.org/1999/xlink" xmlns="http://www.w3.org/2000/svg"
     contentScriptType="application/ecmascript" contentStyleType="text/css" height="1182px" preserveAspectRatio="none"
     style="width:966px;height:1182px;" version="1.1" viewBox="0 0 966 1182" width="966px" zoomAndPan="magnify">
    <defs>
        <filter height="300%" id="f1dc1hps0562pb" width="300%" x="-1" y="-1">
            <feGaussianBlur result="blurOut" stdDeviation="2.0"/>
            <feColorMatrix in="blurOut" result="blurOut2" type="matrix"
                           values="0 0 0 0 0 0 0 0 0 0 0 0 0 0 0 0 0 0 .4 0"/>
            <feOffset dx="4.0" dy="4.0" in="blurOut2" result="blurOut3"/>
            <feBlend in="SourceGraphic" in2="blurOut3" mode="normal"/>
        </filter>
    </defs>
    <g><!--MD5=[6a4c4b98b387dd0cbcc4ee9dbc28d3b2]
cluster nz.ac.vuw.ecs.swen225.gp20.application-->
        <polygon fill="#FFFFFF" filter="url(#f1dc1hps0562pb)"
                 points="209,176,541,176,548,198.2969,693,198.2969,693,1154,209,1154,209,176"
                 style="stroke: #000000; stroke-width: 1.5;"/>
        <line style="stroke: #000000; stroke-width: 1.5;" x1="209" x2="548" y1="198.2969" y2="198.2969"/>
        <text fill="#000000" font-family="sans-serif" font-size="14" font-weight="bold" lengthAdjust="spacingAndGlyphs"
              textLength="326" x="213" y="190.9951">nz.ac.vuw.ecs.swen225.gp20.application
        </text><!--MD5=[535aab4de90d4dfa371a9b40d5438fc3]
cluster javax.swing-->
        <polygon fill="#FFFFFF" filter="url(#f1dc1hps0562pb)"
                 points="16,6,114,6,121,28.2969,793,28.2969,793,143,16,143,16,6"
                 style="stroke: #000000; stroke-width: 1.5;"/>
        <line style="stroke: #000000; stroke-width: 1.5;" x1="16" x2="121" y1="28.2969" y2="28.2969"/>
        <text fill="#000000" font-family="sans-serif" font-size="14" font-weight="bold" lengthAdjust="spacingAndGlyphs"
              textLength="92" x="20" y="20.9951">javax.swing
        </text><!--MD5=[d63c23c2d4b14118d71bd46d55a646bd]
cluster java.awt.event-->
        <polygon fill="#FFFFFF" filter="url(#f1dc1hps0562pb)"
                 points="726,310.5,847,310.5,854,332.7969,944,332.7969,944,447.5,726,447.5,726,310.5"
                 style="stroke: #000000; stroke-width: 1.5;"/>
        <line style="stroke: #000000; stroke-width: 1.5;" x1="726" x2="854" y1="332.7969" y2="332.7969"/>
        <text fill="#000000" font-family="sans-serif" font-size="14" font-weight="bold" lengthAdjust="spacingAndGlyphs"
              textLength="115" x="730" y="325.4951">java.awt.event
        </text><!--MD5=[a0b0cf73325721b4f5c2e9a00037d854]
class nz.ac.vuw.ecs.swen225.gp20.application.Dashboard-->
        <a href="Dashboard.html" target="_top" title="Dashboard.html" xlink:actuate="onRequest"
           xlink:href="Dashboard.html" xlink:show="new" xlink:title="Dashboard.html" xlink:type="simple">
            <rect codeLine="3" fill="#FEFECE" filter="url(#f1dc1hps0562pb)" height="150.4375"
                  id="nz.ac.vuw.ecs.swen225.gp20.application.Dashboard" style="stroke: #A80036; stroke-width: 1.5;"
                  width="173" x="225.5" y="988"/>
            <ellipse cx="273.25" cy="1004" fill="#ADD1B2" rx="11" ry="11" style="stroke: #A80036; stroke-width: 1.0;"/>
            <path d="M276.2188,1009.6406 Q275.6406,1009.9375 275,1010.0781 Q274.3594,1010.2344 273.6563,1010.2344 Q271.1563,1010.2344 269.8281,1008.5938 Q268.5156,1006.9375 268.5156,1003.8125 Q268.5156,1000.6875 269.8281,999.0313 Q271.1563,997.375 273.6563,997.375 Q274.3594,997.375 275,997.5313 Q275.6563,997.6875 276.2188,997.9844 L276.2188,1000.7031 Q275.5938,1000.125 275,999.8594 Q274.4063,999.5781 273.7813,999.5781 Q272.4375,999.5781 271.75,1000.6563 Q271.0625,1001.7188 271.0625,1003.8125 Q271.0625,1005.9063 271.75,1006.9844 Q272.4375,1008.0469 273.7813,1008.0469 Q274.4063,1008.0469 275,1007.7813 Q275.5938,1007.5 276.2188,1006.9219 L276.2188,1009.6406 Z "/>
            <text fill="#000000" font-family="sans-serif" font-size="12" lengthAdjust="spacingAndGlyphs" textLength="69"
                  x="293.75" y="1008.1543">Dashboard
            </text>
            <line style="stroke: #A80036; stroke-width: 1.5;" x1="226.5" x2="397.5" y1="1020" y2="1020"/>
            <line style="stroke: #A80036; stroke-width: 1.5;" x1="226.5" x2="397.5" y1="1028" y2="1028"/>
            <ellipse cx="236.5" cy="1039" fill="#84BE84" rx="3" ry="3" style="stroke: #038048; stroke-width: 1.0;"/>
            <text fill="#000000" font-family="sans-serif" font-size="11" lengthAdjust="spacingAndGlyphs" textLength="98"
                  x="245.5" y="1042.2104">Dashboard(Maze)
            </text>
            <ellipse cx="236.5" cy="1051.8047" fill="#84BE84" rx="3" ry="3"
                     style="stroke: #038048; stroke-width: 1.0;"/>
            <text fill="#000000" font-family="sans-serif" font-size="11" lengthAdjust="spacingAndGlyphs"
                  textLength="147" x="245.5" y="1055.0151">createComponents(): void
            </text>
            <ellipse cx="236.5" cy="1064.6094" fill="#84BE84" rx="3" ry="3"
                     style="stroke: #038048; stroke-width: 1.0;"/>
            <text fill="#000000" font-family="sans-serif" font-size="11" lengthAdjust="spacingAndGlyphs"
                  textLength="132" x="245.5" y="1067.8198">addComponents(): void
            </text>
            <ellipse cx="236.5" cy="1077.4141" fill="#84BE84" rx="3" ry="3"
                     style="stroke: #038048; stroke-width: 1.0;"/>
            <text fill="#000000" font-family="sans-serif" font-size="11" lengthAdjust="spacingAndGlyphs"
                  textLength="140" x="245.5" y="1080.6245">updateDashboard(): void
            </text>
            <ellipse cx="236.5" cy="1090.2188" fill="#84BE84" rx="3" ry="3"
                     style="stroke: #038048; stroke-width: 1.0;"/>
            <text fill="#000000" font-family="sans-serif" font-size="11" lengthAdjust="spacingAndGlyphs"
                  textLength="131" x="245.5" y="1093.4292">resetDashboard(): void
            </text>
            <ellipse cx="236.5" cy="1103.0234" fill="#84BE84" rx="3" ry="3"
                     style="stroke: #038048; stroke-width: 1.0;"/>
            <text fill="#000000" font-family="sans-serif" font-size="11" lengthAdjust="spacingAndGlyphs"
                  textLength="124" x="245.5" y="1106.2339">getFile(Colour): String
            </text>
            <ellipse cx="236.5" cy="1115.8281" fill="#84BE84" rx="3" ry="3"
                     style="stroke: #038048; stroke-width: 1.0;"/>
            <text fill="#000000" font-family="sans-serif" font-size="11" lengthAdjust="spacingAndGlyphs"
                  textLength="113" x="245.5" y="1119.0386">setMaze(Maze): void
            </text>
            <ellipse cx="236.5" cy="1128.6328" fill="#84BE84" rx="3" ry="3"
                     style="stroke: #038048; stroke-width: 1.0;"/>
            <text fill="#000000" font-family="sans-serif" font-size="11" lengthAdjust="spacingAndGlyphs"
                  textLength="124" x="245.5" y="1131.8433">setTimer(String): void
            </text>
        </a><!--MD5=[83b7369569caa394034737a9f0479b79]
class nz.ac.vuw.ecs.swen225.gp20.application.Dialogues-->
        <a href="Dialogues.html" target="_top" title="Dialogues.html" xlink:actuate="onRequest"
           xlink:href="Dialogues.html" xlink:show="new" xlink:title="Dialogues.html" xlink:type="simple">
            <rect codeLine="14" fill="#FEFECE" filter="url(#f1dc1hps0562pb)" height="112.0234"
                  id="nz.ac.vuw.ecs.swen225.gp20.application.Dialogues" style="stroke: #A80036; stroke-width: 1.5;"
                  width="243" x="433.5" y="1007"/>
            <ellipse cx="519.75" cy="1023" fill="#ADD1B2" rx="11" ry="11" style="stroke: #A80036; stroke-width: 1.0;"/>
            <path d="M522.7188,1028.6406 Q522.1406,1028.9375 521.5,1029.0781 Q520.8594,1029.2344 520.1563,1029.2344 Q517.6563,1029.2344 516.3281,1027.5938 Q515.0156,1025.9375 515.0156,1022.8125 Q515.0156,1019.6875 516.3281,1018.0313 Q517.6563,1016.375 520.1563,1016.375 Q520.8594,1016.375 521.5,1016.5313 Q522.1563,1016.6875 522.7188,1016.9844 L522.7188,1019.7031 Q522.0938,1019.125 521.5,1018.8594 Q520.9063,1018.5781 520.2813,1018.5781 Q518.9375,1018.5781 518.25,1019.6563 Q517.5625,1020.7188 517.5625,1022.8125 Q517.5625,1024.9063 518.25,1025.9844 Q518.9375,1027.0469 520.2813,1027.0469 Q520.9063,1027.0469 521.5,1026.7813 Q522.0938,1026.5 522.7188,1025.9219 L522.7188,1028.6406 Z "/>
            <text fill="#000000" font-family="sans-serif" font-size="12" lengthAdjust="spacingAndGlyphs" textLength="62"
                  x="540.25" y="1027.1543">Dialogues
            </text>
            <line style="stroke: #A80036; stroke-width: 1.5;" x1="434.5" x2="675.5" y1="1039" y2="1039"/>
            <line style="stroke: #A80036; stroke-width: 1.5;" x1="434.5" x2="675.5" y1="1047" y2="1047"/>
            <ellipse cx="444.5" cy="1058" fill="#84BE84" rx="3" ry="3" style="stroke: #038048; stroke-width: 1.0;"/>
            <text fill="#000000" font-family="sans-serif" font-size="11" lengthAdjust="spacingAndGlyphs"
                  textLength="174" x="453.5" y="1061.2104">Dialogues(Main, String, String)
            </text>
            <ellipse cx="444.5" cy="1070.8047" fill="#84BE84" rx="3" ry="3"
                     style="stroke: #038048; stroke-width: 1.0;"/>
            <text fill="#000000" font-family="sans-serif" font-size="11" lengthAdjust="spacingAndGlyphs"
                  textLength="217" x="453.5" y="1074.0151">setActionListener(ActionListener): void
            </text>
            <ellipse cx="444.5" cy="1083.6094" fill="#84BE84" rx="3" ry="3"
                     style="stroke: #038048; stroke-width: 1.0;"/>
            <text fill="#000000" font-family="sans-serif" font-size="11" lengthAdjust="spacingAndGlyphs"
                  textLength="143" x="453.5" y="1086.8198">keyTyped(KeyEvent): void
            </text>
            <ellipse cx="444.5" cy="1096.4141" fill="#84BE84" rx="3" ry="3"
                     style="stroke: #038048; stroke-width: 1.0;"/>
            <text fill="#000000" font-family="sans-serif" font-size="11" lengthAdjust="spacingAndGlyphs"
                  textLength="156" x="453.5" y="1099.6245">keyPressed(KeyEvent): void
            </text>
            <ellipse cx="444.5" cy="1109.2188" fill="#84BE84" rx="3" ry="3"
                     style="stroke: #038048; stroke-width: 1.0;"/>
            <text fill="#000000" font-family="sans-serif" font-size="11" lengthAdjust="spacingAndGlyphs"
                  textLength="161" x="453.5" y="1112.4292">keyReleased(KeyEvent): void
            </text>
        </a><!--MD5=[d278bdffc36e20006e2ca607403c7855]
class nz.ac.vuw.ecs.swen225.gp20.application.Gui-->
        <a href="Gui.html" target="_top" title="Gui.html" xlink:actuate="onRequest" xlink:href="Gui.html"
           xlink:show="new" xlink:title="Gui.html" xlink:type="simple">
            <rect codeLine="22" fill="#FEFECE" filter="url(#f1dc1hps0562pb)" height="252.875"
                  id="nz.ac.vuw.ecs.swen225.gp20.application.Gui" style="stroke: #A80036; stroke-width: 1.5;"
                  width="212" x="449" y="643"/>
            <ellipse cx="540.75" cy="659" fill="#ADD1B2" rx="11" ry="11" style="stroke: #A80036; stroke-width: 1.0;"/>
            <path d="M543.7188,664.6406 Q543.1406,664.9375 542.5,665.0781 Q541.8594,665.2344 541.1563,665.2344 Q538.6563,665.2344 537.3281,663.5938 Q536.0156,661.9375 536.0156,658.8125 Q536.0156,655.6875 537.3281,654.0313 Q538.6563,652.375 541.1563,652.375 Q541.8594,652.375 542.5,652.5313 Q543.1563,652.6875 543.7188,652.9844 L543.7188,655.7031 Q543.0938,655.125 542.5,654.8594 Q541.9063,654.5781 541.2813,654.5781 Q539.9375,654.5781 539.25,655.6563 Q538.5625,656.7188 538.5625,658.8125 Q538.5625,660.9063 539.25,661.9844 Q539.9375,663.0469 541.2813,663.0469 Q541.9063,663.0469 542.5,662.7813 Q543.0938,662.5 543.7188,661.9219 L543.7188,664.6406 Z "/>
            <text fill="#000000" font-family="sans-serif" font-size="12" lengthAdjust="spacingAndGlyphs" textLength="20"
                  x="561.25" y="663.1543">Gui
            </text>
            <line style="stroke: #A80036; stroke-width: 1.5;" x1="450" x2="660" y1="675" y2="675"/>
            <line style="stroke: #A80036; stroke-width: 1.5;" x1="450" x2="660" y1="683" y2="683"/>
            <ellipse cx="460" cy="694" fill="#84BE84" rx="3" ry="3" style="stroke: #038048; stroke-width: 1.0;"/>
            <text fill="#000000" font-family="sans-serif" font-size="11" lengthAdjust="spacingAndGlyphs" textLength="89"
                  x="469" y="697.2104">Gui(Main, Maze)
            </text>
            <ellipse cx="460" cy="706.8047" fill="#84BE84" rx="3" ry="3" style="stroke: #038048; stroke-width: 1.0;"/>
            <text fill="#000000" font-family="sans-serif" font-size="11" lengthAdjust="spacingAndGlyphs"
                  textLength="181" x="469" y="710.0151">setButtonActionListeners(): void
            </text>
            <ellipse cx="460" cy="719.6094" fill="#84BE84" rx="3" ry="3" style="stroke: #038048; stroke-width: 1.0;"/>
            <text fill="#000000" font-family="sans-serif" font-size="11" lengthAdjust="spacingAndGlyphs"
                  textLength="118" x="469" y="722.8198">getCanvas(): Canvas
            </text>
            <ellipse cx="460" cy="732.4141" fill="#84BE84" rx="3" ry="3" style="stroke: #038048; stroke-width: 1.0;"/>
            <text fill="#000000" font-family="sans-serif" font-size="11" lengthAdjust="spacingAndGlyphs" textLength="91"
                  x="469" y="735.6245">setUpGui(): void
            </text>
            <ellipse cx="460" cy="745.2188" fill="#84BE84" rx="3" ry="3" style="stroke: #038048; stroke-width: 1.0;"/>
            <text fill="#000000" font-family="sans-serif" font-size="11" lengthAdjust="spacingAndGlyphs"
                  textLength="104" x="469" y="748.4292">setTimer(int): void
            </text>
            <ellipse cx="460" cy="758.0234" fill="#84BE84" rx="3" ry="3" style="stroke: #038048; stroke-width: 1.0;"/>
            <text fill="#000000" font-family="sans-serif" font-size="11" lengthAdjust="spacingAndGlyphs"
                  textLength="113" x="469" y="761.2339">setMaze(Maze): void
            </text>
            <ellipse cx="460" cy="770.8281" fill="#84BE84" rx="3" ry="3" style="stroke: #038048; stroke-width: 1.0;"/>
            <text fill="#000000" font-family="sans-serif" font-size="11" lengthAdjust="spacingAndGlyphs"
                  textLength="170" x="469" y="774.0386">displayPausedDialogue(): void
            </text>
            <ellipse cx="460" cy="783.6328" fill="#84BE84" rx="3" ry="3" style="stroke: #038048; stroke-width: 1.0;"/>
            <text fill="#000000" font-family="sans-serif" font-size="11" lengthAdjust="spacingAndGlyphs"
                  textLength="154" x="469" y="786.8433">hidePausedDialogue(): void
            </text>
            <ellipse cx="460" cy="796.4375" fill="#84BE84" rx="3" ry="3" style="stroke: #038048; stroke-width: 1.0;"/>
            <text fill="#000000" font-family="sans-serif" font-size="11" lengthAdjust="spacingAndGlyphs" textLength="90"
                  x="469" y="799.6479">getMaze(): Maze
            </text>
            <ellipse cx="460" cy="809.2422" fill="#84BE84" rx="3" ry="3" style="stroke: #038048; stroke-width: 1.0;"/>
            <text fill="#000000" font-family="sans-serif" font-size="11" lengthAdjust="spacingAndGlyphs"
                  textLength="186" x="469" y="812.4526">setChapDirection(Direction): void
            </text>
            <ellipse cx="460" cy="822.0469" fill="#84BE84" rx="3" ry="3" style="stroke: #038048; stroke-width: 1.0;"/>
            <text fill="#000000" font-family="sans-serif" font-size="11" lengthAdjust="spacingAndGlyphs"
                  textLength="149" x="469" y="825.2573">moveChap(Direction): void
            </text>
            <ellipse cx="460" cy="834.8516" fill="#84BE84" rx="3" ry="3" style="stroke: #038048; stroke-width: 1.0;"/>
            <text fill="#000000" font-family="sans-serif" font-size="11" lengthAdjust="spacingAndGlyphs"
                  textLength="134" x="469" y="838.062">playSound(Sound): void
            </text>
            <ellipse cx="460" cy="847.6563" fill="#84BE84" rx="3" ry="3" style="stroke: #038048; stroke-width: 1.0;"/>
            <text fill="#000000" font-family="sans-serif" font-size="11" lengthAdjust="spacingAndGlyphs"
                  textLength="143" x="469" y="850.8667">updateGui(Boolean): void
            </text>
            <ellipse cx="460" cy="860.4609" fill="#84BE84" rx="3" ry="3" style="stroke: #038048; stroke-width: 1.0;"/>
            <text fill="#000000" font-family="sans-serif" font-size="11" lengthAdjust="spacingAndGlyphs"
                  textLength="143" x="469" y="863.6714">keyTyped(KeyEvent): void
            </text>
            <ellipse cx="460" cy="873.2656" fill="#84BE84" rx="3" ry="3" style="stroke: #038048; stroke-width: 1.0;"/>
            <text fill="#000000" font-family="sans-serif" font-size="11" lengthAdjust="spacingAndGlyphs"
                  textLength="156" x="469" y="876.4761">keyPressed(KeyEvent): void
            </text>
            <ellipse cx="460" cy="886.0703" fill="#84BE84" rx="3" ry="3" style="stroke: #038048; stroke-width: 1.0;"/>
            <text fill="#000000" font-family="sans-serif" font-size="11" lengthAdjust="spacingAndGlyphs"
                  textLength="161" x="469" y="889.2808">keyReleased(KeyEvent): void
            </text>
        </a><!--MD5=[1cd415b87c4eb40780b5759a7e2af137]
class nz.ac.vuw.ecs.swen225.gp20.application.Main-->
        <a href="Main.html" target="_top" title="Main.html" xlink:actuate="onRequest" xlink:href="Main.html"
           xlink:show="new" xlink:title="Main.html" xlink:type="simple">
            <rect codeLine="41" fill="#FEFECE" filter="url(#f1dc1hps0562pb)" height="355.3125"
                  id="nz.ac.vuw.ecs.swen225.gp20.application.Main" style="stroke: #A80036; stroke-width: 1.5;"
                  width="211" x="423.5" y="211"/>
            <ellipse cx="510.25" cy="227" fill="#ADD1B2" rx="11" ry="11" style="stroke: #A80036; stroke-width: 1.0;"/>
            <path d="M513.2188,232.6406 Q512.6406,232.9375 512,233.0781 Q511.3594,233.2344 510.6563,233.2344 Q508.1563,233.2344 506.8281,231.5938 Q505.5156,229.9375 505.5156,226.8125 Q505.5156,223.6875 506.8281,222.0313 Q508.1563,220.375 510.6563,220.375 Q511.3594,220.375 512,220.5313 Q512.6563,220.6875 513.2188,220.9844 L513.2188,223.7031 Q512.5938,223.125 512,222.8594 Q511.4063,222.5781 510.7813,222.5781 Q509.4375,222.5781 508.75,223.6563 Q508.0625,224.7188 508.0625,226.8125 Q508.0625,228.9063 508.75,229.9844 Q509.4375,231.0469 510.7813,231.0469 Q511.4063,231.0469 512,230.7813 Q512.5938,230.5 513.2188,229.9219 L513.2188,232.6406 Z "/>
            <text fill="#000000" font-family="sans-serif" font-size="12" lengthAdjust="spacingAndGlyphs" textLength="29"
                  x="530.75" y="231.1543">Main
            </text>
            <line style="stroke: #A80036; stroke-width: 1.5;" x1="424.5" x2="633.5" y1="243" y2="243"/>
            <line style="stroke: #A80036; stroke-width: 1.5;" x1="424.5" x2="633.5" y1="251" y2="251"/>
            <ellipse cx="434.5" cy="262" fill="#84BE84" rx="3" ry="3" style="stroke: #038048; stroke-width: 1.0;"/>
            <text fill="#000000" font-family="sans-serif" font-size="11" lengthAdjust="spacingAndGlyphs" textLength="34"
                  x="443.5" y="265.2104">Main()
            </text>
            <ellipse cx="434.5" cy="274.8047" fill="#84BE84" rx="3" ry="3" style="stroke: #038048; stroke-width: 1.0;"/>
            <text fill="#000000" font-family="sans-serif" font-size="11" lengthAdjust="spacingAndGlyphs"
                  textLength="102" x="443.5" y="278.0151">Main(Boolean, int)
            </text>
            <ellipse cx="434.5" cy="287.6094" fill="#84BE84" rx="3" ry="3" style="stroke: #038048; stroke-width: 1.0;"/>
            <text fill="#000000" font-family="sans-serif" font-size="11" lengthAdjust="spacingAndGlyphs"
                  textLength="145" x="443.5" y="290.8198">startTimer(Boolean): void
            </text>
            <ellipse cx="434.5" cy="300.4141" fill="#84BE84" rx="3" ry="3" style="stroke: #038048; stroke-width: 1.0;"/>
            <text fill="#000000" font-family="sans-serif" font-size="11" lengthAdjust="spacingAndGlyphs"
                  textLength="135" x="443.5" y="303.6245">createTimerTask(): void
            </text>
            <ellipse cx="434.5" cy="313.2188" fill="#84BE84" rx="3" ry="3" style="stroke: #038048; stroke-width: 1.0;"/>
            <text fill="#000000" font-family="sans-serif" font-size="11" lengthAdjust="spacingAndGlyphs"
                  textLength="122" x="443.5" y="316.4292">startRecording(): void
            </text>
            <ellipse cx="434.5" cy="326.0234" fill="#84BE84" rx="3" ry="3" style="stroke: #038048; stroke-width: 1.0;"/>
            <text fill="#000000" font-family="sans-serif" font-size="11" lengthAdjust="spacingAndGlyphs"
                  textLength="122" x="443.5" y="329.2339">saveRecording(): void
            </text>
            <ellipse cx="434.5" cy="338.8281" fill="#84BE84" rx="3" ry="3" style="stroke: #038048; stroke-width: 1.0;"/>
            <text fill="#000000" font-family="sans-serif" font-size="11" lengthAdjust="spacingAndGlyphs"
                  textLength="119" x="443.5" y="342.0386">loadRecording(): void
            </text>
            <ellipse cx="434.5" cy="351.6328" fill="#84BE84" rx="3" ry="3" style="stroke: #038048; stroke-width: 1.0;"/>
            <text fill="#000000" font-family="sans-serif" font-size="11" lengthAdjust="spacingAndGlyphs"
                  textLength="128" x="443.5" y="354.8433">loadFile(Boolean): void
            </text>
            <ellipse cx="434.5" cy="364.4375" fill="#84BE84" rx="3" ry="3" style="stroke: #038048; stroke-width: 1.0;"/>
            <text fill="#000000" font-family="sans-serif" font-size="11" lengthAdjust="spacingAndGlyphs"
                  textLength="185" x="443.5" y="367.6479">saveFile(Boolean, Boolean): void
            </text>
            <ellipse cx="434.5" cy="377.2422" fill="#84BE84" rx="3" ry="3" style="stroke: #038048; stroke-width: 1.0;"/>
            <text fill="#000000" font-family="sans-serif" font-size="11" lengthAdjust="spacingAndGlyphs" textLength="93"
                  x="443.5" y="380.4526">exitGame(): void
            </text>
            <ellipse cx="434.5" cy="390.0469" fill="#84BE84" rx="3" ry="3" style="stroke: #038048; stroke-width: 1.0;"/>
            <text fill="#000000" font-family="sans-serif" font-size="11" lengthAdjust="spacingAndGlyphs"
                  textLength="114" x="443.5" y="393.2573">startGame(int): void
            </text>
            <ellipse cx="434.5" cy="402.8516" fill="#84BE84" rx="3" ry="3" style="stroke: #038048; stroke-width: 1.0;"/>
            <text fill="#000000" font-family="sans-serif" font-size="11" lengthAdjust="spacingAndGlyphs"
                  textLength="153" x="443.5" y="406.062">pauseGame(boolean): void
            </text>
            <ellipse cx="434.5" cy="415.6563" fill="#84BE84" rx="3" ry="3" style="stroke: #038048; stroke-width: 1.0;"/>
            <text fill="#000000" font-family="sans-serif" font-size="11" lengthAdjust="spacingAndGlyphs" textLength="96"
                  x="443.5" y="418.8667">playGame(): void
            </text>
            <ellipse cx="434.5" cy="428.4609" fill="#84BE84" rx="3" ry="3" style="stroke: #038048; stroke-width: 1.0;"/>
            <text fill="#000000" font-family="sans-serif" font-size="11" lengthAdjust="spacingAndGlyphs" textLength="90"
                  x="443.5" y="431.6714">getMaze(): Maze
            </text>
            <ellipse cx="434.5" cy="441.2656" fill="#84BE84" rx="3" ry="3" style="stroke: #038048; stroke-width: 1.0;"/>
            <text fill="#000000" font-family="sans-serif" font-size="11" lengthAdjust="spacingAndGlyphs" textLength="77"
                  x="443.5" y="444.4761">getLevel(): int
            </text>
            <ellipse cx="434.5" cy="454.0703" fill="#84BE84" rx="3" ry="3" style="stroke: #038048; stroke-width: 1.0;"/>
            <text fill="#000000" font-family="sans-serif" font-size="11" lengthAdjust="spacingAndGlyphs"
                  textLength="101" x="443.5" y="457.2808">getLastLevel(): int
            </text>
            <ellipse cx="434.5" cy="466.875" fill="#84BE84" rx="3" ry="3" style="stroke: #038048; stroke-width: 1.0;"/>
            <text fill="#000000" font-family="sans-serif" font-size="11" lengthAdjust="spacingAndGlyphs"
                  textLength="100" x="443.5" y="470.0854">setLevel(int): void
            </text>
            <ellipse cx="434.5" cy="479.6797" fill="#84BE84" rx="3" ry="3" style="stroke: #038048; stroke-width: 1.0;"/>
            <text fill="#000000" font-family="sans-serif" font-size="11" lengthAdjust="spacingAndGlyphs" textLength="97"
                  x="443.5" y="482.8901">getTimeLeft(): int
            </text>
            <ellipse cx="434.5" cy="492.4844" fill="#84BE84" rx="3" ry="3" style="stroke: #038048; stroke-width: 1.0;"/>
            <text fill="#000000" font-family="sans-serif" font-size="11" lengthAdjust="spacingAndGlyphs"
                  textLength="113" x="443.5" y="495.6948">setMaze(Maze): void
            </text>
            <ellipse cx="434.5" cy="505.2891" fill="#84BE84" rx="3" ry="3" style="stroke: #038048; stroke-width: 1.0;"/>
            <text fill="#000000" font-family="sans-serif" font-size="11" lengthAdjust="spacingAndGlyphs"
                  textLength="104" x="443.5" y="508.4995">setGui(Maze): void
            </text>
            <ellipse cx="434.5" cy="518.0938" fill="#84BE84" rx="3" ry="3" style="stroke: #038048; stroke-width: 1.0;"/>
            <text fill="#000000" font-family="sans-serif" font-size="11" lengthAdjust="spacingAndGlyphs"
                  textLength="100" x="443.5" y="521.3042">getTimer(): Timer
            </text>
            <ellipse cx="434.5" cy="530.8984" fill="#84BE84" rx="3" ry="3" style="stroke: #038048; stroke-width: 1.0;"/>
            <text fill="#000000" font-family="sans-serif" font-size="11" lengthAdjust="spacingAndGlyphs"
                  textLength="120" x="443.5" y="534.1089">setTimeLeft(int): void
            </text>
            <ellipse cx="434.5" cy="543.7031" fill="#84BE84" rx="3" ry="3" style="stroke: #038048; stroke-width: 1.0;"/>
            <text fill="#000000" font-family="sans-serif" font-size="11" lengthAdjust="spacingAndGlyphs"
                  textLength="123" x="443.5" y="546.9136">isLevelWon(): boolean
            </text>
            <ellipse cx="434.5" cy="556.5078" fill="#84BE84" rx="3" ry="3" style="stroke: #038048; stroke-width: 1.0;"/>
            <text fill="#000000" font-family="sans-serif" font-size="11" lengthAdjust="spacingAndGlyphs"
                  text-decoration="underline" textLength="109" x="443.5" y="559.7183">main(String[]): void
            </text>
        </a><!--MD5=[43e2ba9142b179c3e85a142a22d0adec]
class nz.ac.vuw.ecs.swen225.gp20.application.MenuBar-->
        <a href="MenuBar.html" target="_top" title="MenuBar.html" xlink:actuate="onRequest" xlink:href="MenuBar.html"
           xlink:show="new" xlink:title="MenuBar.html" xlink:type="simple">
            <rect codeLine="68" fill="#FEFECE" filter="url(#f1dc1hps0562pb)" height="60.8047"
                  id="nz.ac.vuw.ecs.swen225.gp20.application.MenuBar" style="stroke: #A80036; stroke-width: 1.5;"
                  width="110" x="278" y="358"/>
            <ellipse cx="303.35" cy="374" fill="#ADD1B2" rx="11" ry="11" style="stroke: #A80036; stroke-width: 1.0;"/>
            <path d="M306.3188,379.6406 Q305.7406,379.9375 305.1,380.0781 Q304.4594,380.2344 303.7563,380.2344 Q301.2563,380.2344 299.9281,378.5938 Q298.6156,376.9375 298.6156,373.8125 Q298.6156,370.6875 299.9281,369.0313 Q301.2563,367.375 303.7563,367.375 Q304.4594,367.375 305.1,367.5313 Q305.7563,367.6875 306.3188,367.9844 L306.3188,370.7031 Q305.6938,370.125 305.1,369.8594 Q304.5063,369.5781 303.8813,369.5781 Q302.5375,369.5781 301.85,370.6563 Q301.1625,371.7188 301.1625,373.8125 Q301.1625,375.9063 301.85,376.9844 Q302.5375,378.0469 303.8813,378.0469 Q304.5063,378.0469 305.1,377.7813 Q305.6938,377.5 306.3188,376.9219 L306.3188,379.6406 Z "/>
            <text fill="#000000" font-family="sans-serif" font-size="12" lengthAdjust="spacingAndGlyphs" textLength="55"
                  x="319.65" y="378.1543">MenuBar
            </text>
            <line style="stroke: #A80036; stroke-width: 1.5;" x1="279" x2="387" y1="390" y2="390"/>
            <line style="stroke: #A80036; stroke-width: 1.5;" x1="279" x2="387" y1="398" y2="398"/>
            <ellipse cx="289" cy="409" fill="#84BE84" rx="3" ry="3" style="stroke: #038048; stroke-width: 1.0;"/>
            <text fill="#000000" font-family="sans-serif" font-size="11" lengthAdjust="spacingAndGlyphs" textLength="84"
                  x="298" y="412.2104">MenuBar(Main)
            </text>
        </a><!--MD5=[56a185cb33bdc7c23303e5865f20a19b]
class javax.swing.JPanel-->
        <rect codeLine="84" fill="#FEFECE" filter="url(#f1dc1hps0562pb)" height="48" id="javax.swing.JPanel"
              style="stroke: #A80036; stroke-width: 1.5;" width="70" x="32" y="60"/>
        <ellipse cx="47" cy="76" fill="#ADD1B2" rx="11" ry="11" style="stroke: #A80036; stroke-width: 1.0;"/>
        <path d="M49.9688,81.6406 Q49.3906,81.9375 48.75,82.0781 Q48.1094,82.2344 47.4063,82.2344 Q44.9063,82.2344 43.5781,80.5938 Q42.2656,78.9375 42.2656,75.8125 Q42.2656,72.6875 43.5781,71.0313 Q44.9063,69.375 47.4063,69.375 Q48.1094,69.375 48.75,69.5313 Q49.4063,69.6875 49.9688,69.9844 L49.9688,72.7031 Q49.3438,72.125 48.75,71.8594 Q48.1563,71.5781 47.5313,71.5781 Q46.1875,71.5781 45.5,72.6563 Q44.8125,73.7188 44.8125,75.8125 Q44.8125,77.9063 45.5,78.9844 Q46.1875,80.0469 47.5313,80.0469 Q48.1563,80.0469 48.75,79.7813 Q49.3438,79.5 49.9688,78.9219 L49.9688,81.6406 Z "/>
        <text fill="#000000" font-family="sans-serif" font-size="12" lengthAdjust="spacingAndGlyphs" textLength="38"
              x="61" y="80.1543">JPanel
        </text>
        <line style="stroke: #A80036; stroke-width: 1.5;" x1="33" x2="101" y1="92" y2="92"/>
        <line style="stroke: #A80036; stroke-width: 1.5;" x1="33" x2="101" y1="100" y2="100"/><!--MD5=[c13749207e1e160b2790bec8d09e837f]
class javax.swing.JDialog-->
        <rect codeLine="86" fill="#FEFECE" filter="url(#f1dc1hps0562pb)" height="86.4141" id="javax.swing.JDialog"
              style="stroke: #A80036; stroke-width: 1.5;" width="240" x="137" y="41"/>
        <ellipse cx="231.75" cy="57" fill="#ADD1B2" rx="11" ry="11" style="stroke: #A80036; stroke-width: 1.0;"/>
        <path d="M234.7188,62.6406 Q234.1406,62.9375 233.5,63.0781 Q232.8594,63.2344 232.1563,63.2344 Q229.6563,63.2344 228.3281,61.5938 Q227.0156,59.9375 227.0156,56.8125 Q227.0156,53.6875 228.3281,52.0313 Q229.6563,50.375 232.1563,50.375 Q232.8594,50.375 233.5,50.5313 Q234.1563,50.6875 234.7188,50.9844 L234.7188,53.7031 Q234.0938,53.125 233.5,52.8594 Q232.9063,52.5781 232.2813,52.5781 Q230.9375,52.5781 230.25,53.6563 Q229.5625,54.7188 229.5625,56.8125 Q229.5625,58.9063 230.25,59.9844 Q230.9375,61.0469 232.2813,61.0469 Q232.9063,61.0469 233.5,60.7813 Q234.0938,60.5 234.7188,59.9219 L234.7188,62.6406 Z "/>
        <text fill="#000000" font-family="sans-serif" font-size="12" lengthAdjust="spacingAndGlyphs" textLength="42"
              x="252.25" y="61.1543">JDialog
        </text>
        <line style="stroke: #A80036; stroke-width: 1.5;" x1="138" x2="376" y1="73" y2="73"/>
        <polygon fill="none" points="148,79,152,83,148,87,144,83" style="stroke: #B38D22; stroke-width: 1.0;"/>
        <text fill="#000000" font-family="sans-serif" font-size="11" lengthAdjust="spacingAndGlyphs" textLength="115"
              x="157" y="87.2104">rootPane: JRootPane
        </text>
        <polygon fill="none" points="148,91.8047,152,95.8047,148,99.8047,144,95.8047"
                 style="stroke: #B38D22; stroke-width: 1.0;"/>
        <text fill="#000000" font-family="sans-serif" font-size="11" lengthAdjust="spacingAndGlyphs" textLength="200"
              x="157" y="100.0151">rootPaneCheckingEnabled: boolean
        </text>
        <polygon fill="none" points="148,104.6094,152,108.6094,148,112.6094,144,108.6094"
                 style="stroke: #B38D22; stroke-width: 1.0;"/>
        <text fill="#000000" font-family="sans-serif" font-size="11" lengthAdjust="spacingAndGlyphs" textLength="214"
              x="157" y="112.8198">accessibleContext: AccessibleContext
        </text>
        <line style="stroke: #A80036; stroke-width: 1.5;" x1="138" x2="376" y1="119.4141" y2="119.4141"/><!--MD5=[18a7562403221f513ca44e0f82c4c17a]
class javax.swing.JFrame-->
        <rect codeLine="91" fill="#FEFECE" filter="url(#f1dc1hps0562pb)" height="86.4141" id="javax.swing.JFrame"
              style="stroke: #A80036; stroke-width: 1.5;" width="240" x="537" y="41"/>
        <ellipse cx="631.75" cy="57" fill="#ADD1B2" rx="11" ry="11" style="stroke: #A80036; stroke-width: 1.0;"/>
        <path d="M634.7188,62.6406 Q634.1406,62.9375 633.5,63.0781 Q632.8594,63.2344 632.1563,63.2344 Q629.6563,63.2344 628.3281,61.5938 Q627.0156,59.9375 627.0156,56.8125 Q627.0156,53.6875 628.3281,52.0313 Q629.6563,50.375 632.1563,50.375 Q632.8594,50.375 633.5,50.5313 Q634.1563,50.6875 634.7188,50.9844 L634.7188,53.7031 Q634.0938,53.125 633.5,52.8594 Q632.9063,52.5781 632.2813,52.5781 Q630.9375,52.5781 630.25,53.6563 Q629.5625,54.7188 629.5625,56.8125 Q629.5625,58.9063 630.25,59.9844 Q630.9375,61.0469 632.2813,61.0469 Q632.9063,61.0469 633.5,60.7813 Q634.0938,60.5 634.7188,59.9219 L634.7188,62.6406 Z "/>
        <text fill="#000000" font-family="sans-serif" font-size="12" lengthAdjust="spacingAndGlyphs" textLength="42"
              x="652.25" y="61.1543">JFrame
        </text>
        <line style="stroke: #A80036; stroke-width: 1.5;" x1="538" x2="776" y1="73" y2="73"/>
        <polygon fill="none" points="548,79,552,83,548,87,544,83" style="stroke: #B38D22; stroke-width: 1.0;"/>
        <text fill="#000000" font-family="sans-serif" font-size="11" lengthAdjust="spacingAndGlyphs" textLength="115"
              x="557" y="87.2104">rootPane: JRootPane
        </text>
        <polygon fill="none" points="548,91.8047,552,95.8047,548,99.8047,544,95.8047"
                 style="stroke: #B38D22; stroke-width: 1.0;"/>
        <text fill="#000000" font-family="sans-serif" font-size="11" lengthAdjust="spacingAndGlyphs" textLength="200"
              x="557" y="100.0151">rootPaneCheckingEnabled: boolean
        </text>
        <polygon fill="none" points="548,104.6094,552,108.6094,548,112.6094,544,108.6094"
                 style="stroke: #B38D22; stroke-width: 1.0;"/>
        <text fill="#000000" font-family="sans-serif" font-size="11" lengthAdjust="spacingAndGlyphs" textLength="214"
              x="557" y="112.8198">accessibleContext: AccessibleContext
        </text>
        <line style="stroke: #A80036; stroke-width: 1.5;" x1="538" x2="776" y1="119.4141" y2="119.4141"/><!--MD5=[e1d5997e74a9e0bf94752554eaad51e9]
class javax.swing.JMenuBar-->
        <rect codeLine="96" fill="#FEFECE" filter="url(#f1dc1hps0562pb)" height="48" id="javax.swing.JMenuBar"
              style="stroke: #A80036; stroke-width: 1.5;" width="90" x="412" y="60"/>
        <ellipse cx="427" cy="76" fill="#ADD1B2" rx="11" ry="11" style="stroke: #A80036; stroke-width: 1.0;"/>
        <path d="M429.9688,81.6406 Q429.3906,81.9375 428.75,82.0781 Q428.1094,82.2344 427.4063,82.2344 Q424.9063,82.2344 423.5781,80.5938 Q422.2656,78.9375 422.2656,75.8125 Q422.2656,72.6875 423.5781,71.0313 Q424.9063,69.375 427.4063,69.375 Q428.1094,69.375 428.75,69.5313 Q429.4063,69.6875 429.9688,69.9844 L429.9688,72.7031 Q429.3438,72.125 428.75,71.8594 Q428.1563,71.5781 427.5313,71.5781 Q426.1875,71.5781 425.5,72.6563 Q424.8125,73.7188 424.8125,75.8125 Q424.8125,77.9063 425.5,78.9844 Q426.1875,80.0469 427.5313,80.0469 Q428.1563,80.0469 428.75,79.7813 Q429.3438,79.5 429.9688,78.9219 L429.9688,81.6406 Z "/>
        <text fill="#000000" font-family="sans-serif" font-size="12" lengthAdjust="spacingAndGlyphs" textLength="58"
              x="441" y="80.1543">JMenuBar
        </text>
        <line style="stroke: #A80036; stroke-width: 1.5;" x1="413" x2="501" y1="92" y2="92"/>
        <line style="stroke: #A80036; stroke-width: 1.5;" x1="413" x2="501" y1="100" y2="100"/><!--MD5=[3eb55d915ce4c988cc6fe2a782a0fcdf]
class java.awt.event.KeyListener-->
        <rect codeLine="101" fill="#FEFECE" filter="url(#f1dc1hps0562pb)" height="86.4141"
              id="java.awt.event.KeyListener" style="stroke: #A80036; stroke-width: 1.5;" width="187" x="741.5"
              y="345.5"/>
        <ellipse cx="795.25" cy="361.5" fill="#B4A7E5" rx="11" ry="11" style="stroke: #A80036; stroke-width: 1.0;"/>
        <path d="M791.1719,357.2656 L791.1719,355.1094 L798.5625,355.1094 L798.5625,357.2656 L796.0938,357.2656 L796.0938,365.3438 L798.5625,365.3438 L798.5625,367.5 L791.1719,367.5 L791.1719,365.3438 L793.6406,365.3438 L793.6406,357.2656 L791.1719,357.2656 Z "/>
        <text fill="#000000" font-family="sans-serif" font-size="12" font-style="italic" lengthAdjust="spacingAndGlyphs"
              textLength="71" x="815.75" y="365.6543">KeyListener
        </text>
        <line style="stroke: #A80036; stroke-width: 1.5;" x1="742.5" x2="927.5" y1="377.5" y2="377.5"/>
        <line style="stroke: #A80036; stroke-width: 1.5;" x1="742.5" x2="927.5" y1="385.5" y2="385.5"/>
        <ellipse cx="752.5" cy="396.5" fill="#84BE84" rx="3" ry="3" style="stroke: #038048; stroke-width: 1.0;"/>
        <text fill="#000000" font-family="sans-serif" font-size="11" font-style="italic" lengthAdjust="spacingAndGlyphs"
              textLength="143" x="761.5" y="399.7104">keyTyped(KeyEvent): void
        </text>
        <ellipse cx="752.5" cy="409.3047" fill="#84BE84" rx="3" ry="3" style="stroke: #038048; stroke-width: 1.0;"/>
        <text fill="#000000" font-family="sans-serif" font-size="11" font-style="italic" lengthAdjust="spacingAndGlyphs"
              textLength="156" x="761.5" y="412.5151">keyPressed(KeyEvent): void
        </text>
        <ellipse cx="752.5" cy="422.1094" fill="#84BE84" rx="3" ry="3" style="stroke: #038048; stroke-width: 1.0;"/>
        <text fill="#000000" font-family="sans-serif" font-size="11" font-style="italic" lengthAdjust="spacingAndGlyphs"
              textLength="161" x="761.5" y="425.3198">keyReleased(KeyEvent): void
        </text><!--MD5=[3a1c9459001fe0ccacbd03b58a0bb5e9]
reverse link javax.swing.JPanel to nz.ac.vuw.ecs.swen225.gp20.application.Dashboard-->
        <path codeLine="72"
              d="M63.82,128.54 C56.03,261.63 46.69,671.38 199,958 C205.94,971.07 215.19,983.36 225.41,994.59 "
              fill="none" id="javax.swing.JPanel-backto-nz.ac.vuw.ecs.swen225.gp20.application.Dashboard"
              style="stroke: #A80036; stroke-width: 1.0;"/>
        <polygon fill="none" points="56.85,127.81,65.12,108.3,70.82,128.71,56.85,127.81"
                 style="stroke: #A80036; stroke-width: 1.0;"/><!--MD5=[4e9b2dc6f65d2c58ccfef36e897c0e2e]
reverse link javax.swing.JDialog to nz.ac.vuw.ecs.swen225.gp20.application.Dialogues-->
        <path codeLine="73"
              d="M251.16,147.44 C243.95,239.73 235.53,417.64 261,566 C292.17,747.61 282.79,812.61 396,958 C410.49,976.61 429.29,992.93 448.86,1006.8 "
              fill="none" id="javax.swing.JDialog-backto-nz.ac.vuw.ecs.swen225.gp20.application.Dialogues"
              style="stroke: #A80036; stroke-width: 1.0;"/>
        <polygon fill="none" points="244.2,146.58,252.82,127.22,258.16,147.73,244.2,146.58"
                 style="stroke: #A80036; stroke-width: 1.0;"/><!--MD5=[ea708ec2756a4afc704e596a67c57f1a]
reverse link java.awt.event.KeyListener to nz.ac.vuw.ecs.swen225.gp20.application.Dialogues-->
        <path codeLine="74"
              d="M823.11,451.41 C802.71,549.53 755.68,745.11 679,896 C658.79,935.77 629.07,975.95 603.79,1006.83 "
              fill="none" id="java.awt.event.KeyListener-backto-nz.ac.vuw.ecs.swen225.gp20.application.Dialogues"
              style="stroke: #A80036; stroke-width: 1.0; stroke-dasharray: 7.0,7.0;"/>
        <polygon fill="none" points="816.27,449.92,827.11,431.72,829.99,452.71,816.27,449.92"
                 style="stroke: #A80036; stroke-width: 1.0;"/><!--MD5=[8ff5d34c60d4a031dc0ac72c5da51d30]
reverse link javax.swing.JFrame to nz.ac.vuw.ecs.swen225.gp20.application.Gui-->
        <path codeLine="75"
              d="M664.83,147.25 C674.61,239.93 686.19,419.04 652,566 C646.02,591.72 636.41,618.01 625.51,642.77 "
              fill="none" id="javax.swing.JFrame-backto-nz.ac.vuw.ecs.swen225.gp20.application.Gui"
              style="stroke: #A80036; stroke-width: 1.0;"/>
        <polygon fill="none" points="657.86,147.88,662.61,127.22,671.78,146.33,657.86,147.88"
                 style="stroke: #A80036; stroke-width: 1.0;"/><!--MD5=[65f9cb71b7986e95e644791334af8293]
reverse link java.awt.event.KeyListener to nz.ac.vuw.ecs.swen225.gp20.application.Gui-->
        <path codeLine="76"
              d="M808.42,449.87 C786.45,496.6 752.66,561.77 714,613 C698.3,633.8 679.83,654.45 661.14,673.57 "
              fill="none" id="java.awt.event.KeyListener-backto-nz.ac.vuw.ecs.swen225.gp20.application.Gui"
              style="stroke: #A80036; stroke-width: 1.0; stroke-dasharray: 7.0,7.0;"/>
        <polygon fill="none" points="802.08,446.92,816.82,431.69,814.79,452.78,802.08,446.92"
                 style="stroke: #A80036; stroke-width: 1.0;"/><!--MD5=[1af08bd55049f6b4dc6d8238aeff4dc5]
link nz.ac.vuw.ecs.swen225.gp20.application.Gui to nz.ac.vuw.ecs.swen225.gp20.application.Dialogues-->
        <path codeLine="77" d="M555,896.24 C555,932.8 555,971.07 555,1001.62 " fill="none"
              id="nz.ac.vuw.ecs.swen225.gp20.application.Gui-to-nz.ac.vuw.ecs.swen225.gp20.application.Dialogues"
              style="stroke: #A80036; stroke-width: 1.0;"/>
        <polygon fill="#A80036" points="555,1006.84,559,997.84,555,1001.84,551,997.84,555,1006.84"
                 style="stroke: #A80036; stroke-width: 1.0;"/>
        <text fill="#000000" font-family="sans-serif" font-size="13" lengthAdjust="spacingAndGlyphs" textLength="64"
              x="556" y="939.0669">gameWon
        </text>
        <text fill="#000000" font-family="sans-serif" font-size="13" lengthAdjust="spacingAndGlyphs" textLength="64"
              x="556" y="954.1997">gameLost
        </text><!--MD5=[a9ed28feaa54cd62c31cf10531442e19]
link nz.ac.vuw.ecs.swen225.gp20.application.Gui to nz.ac.vuw.ecs.swen225.gp20.application.Dashboard-->
        <path codeLine="78" d="M450.18,896.24 C425.33,926.05 399.53,957 377.04,983.98 " fill="none"
              id="nz.ac.vuw.ecs.swen225.gp20.application.Gui-to-nz.ac.vuw.ecs.swen225.gp20.application.Dashboard"
              style="stroke: #A80036; stroke-width: 1.0;"/>
        <polygon fill="#A80036"
                 points="373.75,987.93,382.5909,983.5897,376.9566,984.0936,376.4527,978.4592,373.75,987.93"
                 style="stroke: #A80036; stroke-width: 1.0;"/>
        <text fill="#000000" font-family="sans-serif" font-size="13" lengthAdjust="spacingAndGlyphs" textLength="68"
              x="419" y="946.5669">dashboard
        </text><!--MD5=[eae08907ca90bdf9329965a1b0afd52a]
link nz.ac.vuw.ecs.swen225.gp20.application.Main to nz.ac.vuw.ecs.swen225.gp20.application.Gui-->
        <path codeLine="79" d="M541.12,566.24 C542.77,590.28 544.44,614.6 546.02,637.63 " fill="none"
              id="nz.ac.vuw.ecs.swen225.gp20.application.Main-to-nz.ac.vuw.ecs.swen225.gp20.application.Gui"
              style="stroke: #A80036; stroke-width: 1.0;"/>
        <polygon fill="#A80036" points="546.38,642.84,549.7531,633.5868,546.037,637.8518,541.772,634.1356,546.38,642.84"
                 style="stroke: #A80036; stroke-width: 1.0;"/>
        <text fill="#000000" font-family="sans-serif" font-size="13" lengthAdjust="spacingAndGlyphs" textLength="19"
              x="545" y="609.0669">gui
        </text><!--MD5=[ed7dfb46bb572136f78c3582e9261e9b]
reverse link javax.swing.JMenuBar to nz.ac.vuw.ecs.swen225.gp20.application.MenuBar-->
        <path codeLine="80"
              d="M429.88,124.97 C421.54,138.29 412.78,153.46 406,168 C375.55,233.34 351.91,314.97 340.5,357.92 "
              fill="none" id="javax.swing.JMenuBar-backto-nz.ac.vuw.ecs.swen225.gp20.application.MenuBar"
              style="stroke: #A80036; stroke-width: 1.0;"/>
        <polygon fill="none" points="424.01,121.14,440.77,108.16,435.76,128.75,424.01,121.14"
                 style="stroke: #A80036; stroke-width: 1.0;"/>
        <text fill="#888888" font-family="sans-serif" font-size="10" lengthAdjust="spacingAndGlyphs" textLength="192"
              x="378" y="1169.2822">UMLDoclet 2.0.12, PlantUML 1.2020.16
        </text><!--MD5=[7aed432039b95f31e547bed860483682]
@startuml
    namespace nz.ac.vuw.ecs.swen225.gp20.application {

        class Dashboard [[Dashboard.html]] {
            +Dashboard(Maze)
            +createComponents(): void
            +addComponents(): void
            +updateDashboard(): void
            +resetDashboard(): void
            +getFile(Colour): String
            +setMaze(Maze): void
            +setTimer(String): void
        }

        class Dialogues [[Dialogues.html]] {
            +Dialogues(Main, String, String)
            +setActionListener(ActionListener): void
            +keyTyped(KeyEvent): void
            +keyPressed(KeyEvent): void
            +keyReleased(KeyEvent): void
        }

        class Gui [[Gui.html]] {
            +Gui(Main, Maze)
            +setButtonActionListeners(): void
            +getCanvas(): Canvas
            +setUpGui(): void
            +setTimer(int): void
            +setMaze(Maze): void
            +displayPausedDialogue(): void
            +hidePausedDialogue(): void
            +getMaze(): Maze
            +setChapDirection(Direction): void
            +moveChap(Direction): void
            +playSound(Sound): void
            +updateGui(Boolean): void
            +keyTyped(KeyEvent): void
            +keyPressed(KeyEvent): void
            +keyReleased(KeyEvent): void
        }

        class Main [[Main.html]] {
            +Main()
            +Main(Boolean, int)
            +startTimer(Boolean): void
            +createTimerTask(): void
            +startRecording(): void
            +saveRecording(): void
            +loadRecording(): void
            +loadFile(Boolean): void
            +saveFile(Boolean, Boolean): void
            +exitGame(): void
            +startGame(int): void
            +pauseGame(boolean): void
            +playGame(): void
            +getMaze(): Maze
            +getLevel(): int
            +getLastLevel(): int
            +setLevel(int): void
            +getTimeLeft(): int
            +setMaze(Maze): void
            +setGui(Maze): void
            +getTimer(): Timer
            +setTimeLeft(int): void
            +isLevelWon(): boolean
            {static} +main(String[]): void
        }

        class MenuBar [[MenuBar.html]] {
            +MenuBar(Main)
        }

        javax.swing.JPanel <|- - Dashboard
        javax.swing.JDialog <|- - Dialogues
        java.awt.event.KeyListener <|.. Dialogues
        javax.swing.JFrame <|- - Gui
        java.awt.event.KeyListener <|.. Gui
        Gui - -> Dialogues: gameWon\ngameLost
        Gui - -> Dashboard: dashboard
        Main - -> Gui: gui
        javax.swing.JMenuBar <|- - MenuBar
    }

    namespace javax.swing {
        class JPanel {
        }
        class JDialog {
            #rootPane: JRootPane
            #rootPaneCheckingEnabled: boolean
            #accessibleContext: AccessibleContext
        }
        class JFrame {
            #rootPane: JRootPane
            #rootPaneCheckingEnabled: boolean
            #accessibleContext: AccessibleContext
        }
        class JMenuBar {
        }
    }

    namespace java.awt.event {
        interface KeyListener {
            {abstract} +keyTyped(KeyEvent): void
            {abstract} +keyPressed(KeyEvent): void
            {abstract} +keyReleased(KeyEvent): void
        }
    }

    center footer UMLDoclet 2.0.12, PlantUML 1.2020.16
@enduml

PlantUML version 1.2020.16(Mon Aug 24 08:20:43 NZST 2020)
(APACHE source distribution)
Java Runtime: OpenJDK Runtime Environment
JVM: OpenJDK 64-Bit Server VM
Default Encoding: UTF-8
Language: en
Country: null
-->
    </g>
</svg>