<?xml version="1.0" encoding="UTF-8" standalone="no"?><svg xmlns:xlink="http://www.w3.org/1999/xlink" xmlns="http://www.w3.org/2000/svg" contentScriptType="application/ecmascript" contentStyleType="text/css" height="121px" preserveAspectRatio="none" style="width:274px;height:121px;" version="1.1" viewBox="0 0 274 121" width="274px" zoomAndPan="magnify"><defs><filter height="300%" id="f1ql29k3og8vgx" width="300%" x="-1" y="-1"><feGaussianBlur result="blurOut" stdDeviation="2.0"/><feColorMatrix in="blurOut" result="blurOut2" type="matrix" values="0 0 0 0 0 0 0 0 0 0 0 0 0 0 0 0 0 0 .4 0"/><feOffset dx="4.0" dy="4.0" in="blurOut2" result="blurOut3"/><feBlend in="SourceGraphic" in2="blurOut3" mode="normal"/></filter></defs><g><!--MD5=[8efa1d9b0fbdea605d4b75315c4103ea]
class nz.ac.vuw.ecs.swen225.gp20.commons.FileChooser--><a href="FileChooser.html" target="_top" title="FileChooser.html" xlink:actuate="onRequest" xlink:href="FileChooser.html" xlink:show="new" xlink:title="FileChooser.html" xlink:type="simple"><rect codeLine="5" fill="#FEFECE" filter="url(#f1ql29k3og8vgx)" height="84.3516" id="nz.ac.vuw.ecs.swen225.gp20.commons.FileChooser" style="stroke: #A80036; stroke-width: 1.5;" width="248" x="7" y="7"/><ellipse cx="33.25" cy="25.9688" fill="#ADD1B2" rx="11" ry="11" style="stroke: #A80036; stroke-width: 1.0;"/><path d="M36.2188,31.6094 Q35.6406,31.9063 35,32.0469 Q34.3594,32.2031 33.6563,32.2031 Q31.1563,32.2031 29.8281,30.5625 Q28.5156,28.9063 28.5156,25.7813 Q28.5156,22.6563 29.8281,21 Q31.1563,19.3438 33.6563,19.3438 Q34.3594,19.3438 35,19.5 Q35.6563,19.6563 36.2188,19.9531 L36.2188,22.6719 Q35.5938,22.0938 35,21.8281 Q34.4063,21.5469 33.7813,21.5469 Q32.4375,21.5469 31.75,22.625 Q31.0625,23.6875 31.0625,25.7813 Q31.0625,27.875 31.75,28.9531 Q32.4375,30.0156 33.7813,30.0156 Q34.4063,30.0156 35,29.75 Q35.5938,29.4688 36.2188,28.8906 L36.2188,31.6094 Z "/><text fill="#000000" font-family="sans-serif" font-size="14" lengthAdjust="spacingAndGlyphs" textLength="82" x="104.25" y="24.9951">FileChooser</text><text fill="#000000" font-family="sans-serif" font-size="10" lengthAdjust="spacingAndGlyphs" textLength="191" x="49.75" y="37.5791">nz.ac.vuw.ecs.swen225.gp20.commons</text><line style="stroke: #A80036; stroke-width: 1.5;" x1="8" x2="254" y1="44.9375" y2="44.9375"/><ellipse cx="18" cy="55.9375" fill="#84BE84" rx="3" ry="3" style="stroke: #038048; stroke-width: 1.0;"/><text fill="#000000" font-family="sans-serif" font-size="11" lengthAdjust="spacingAndGlyphs" text-decoration="underline" textLength="222" x="27" y="59.1479">saveToFile(Gui, JsonArray, String): void</text><ellipse cx="18" cy="68.7422" fill="#84BE84" rx="3" ry="3" style="stroke: #038048; stroke-width: 1.0;"/><text fill="#000000" font-family="sans-serif" font-size="11" lengthAdjust="spacingAndGlyphs" text-decoration="underline" textLength="198" x="27" y="71.9526">getJsonFileToLoad(Gui, String): File</text><ellipse cx="18" cy="81.5469" fill="#84BE84" rx="3" ry="3" style="stroke: #038048; stroke-width: 1.0;"/><text fill="#000000" font-family="sans-serif" font-size="11" lengthAdjust="spacingAndGlyphs" text-decoration="underline" textLength="175" x="27" y="84.7573">getFileToSave(Gui, String): File</text></a><text fill="#888888" font-family="sans-serif" font-size="10" lengthAdjust="spacingAndGlyphs" textLength="192" x="35" y="107.6338">UMLDoclet 2.0.12, PlantUML 1.2020.16</text><!--MD5=[1c097e172fc7c5b7297fa01c38ece354]
@startuml
    set namespaceSeparator none
    hide empty fields
    hide empty methods

    class "<size:14>FileChooser\n<size:10>nz.ac.vuw.ecs.swen225.gp20.commons" as nz.ac.vuw.ecs.swen225.gp20.commons.FileChooser [[FileChooser.html]] {
        {static} +saveToFile(Gui, JsonArray, String): void
        {static} +getJsonFileToLoad(Gui, String): File
        {static} +getFileToSave(Gui, String): File
    }

    center footer UMLDoclet 2.0.12, PlantUML 1.2020.16
@enduml

PlantUML version 1.2020.16(Mon Aug 24 08:20:43 NZST 2020)
(APACHE source distribution)
Java Runtime: OpenJDK Runtime Environment
JVM: OpenJDK 64-Bit Server VM
Default Encoding: UTF-8
Language: en
Country: null
--></g></svg>