<?xml version="1.0" encoding="UTF-8" standalone="no"?><svg xmlns:xlink="http://www.w3.org/1999/xlink" xmlns="http://www.w3.org/2000/svg" contentScriptType="application/ecmascript" contentStyleType="text/css" height="420px" preserveAspectRatio="none" style="width:481px;height:420px;" version="1.1" viewBox="0 0 481 420" width="481px" zoomAndPan="magnify"><defs><filter height="300%" id="fliysk4fe342x" width="300%" x="-1" y="-1"><feGaussianBlur result="blurOut" stdDeviation="2.0"/><feColorMatrix in="blurOut" result="blurOut2" type="matrix" values="0 0 0 0 0 0 0 0 0 0 0 0 0 0 0 0 0 0 .4 0"/><feOffset dx="4.0" dy="4.0" in="blurOut2" result="blurOut3"/><feBlend in="SourceGraphic" in2="blurOut3" mode="normal"/></filter></defs><g><!--MD5=[ccea1fb39e0299b26b7945e72be76e87]
cluster nz.ac.vuw.ecs.swen225.gp20.commons--><polygon fill="#FFFFFF" filter="url(#fliysk4fe342x)" points="16,6,339,6,346,28.2969,459,28.2969,459,392,16,392,16,6" style="stroke: #000000; stroke-width: 1.5;"/><line style="stroke: #000000; stroke-width: 1.5;" x1="16" x2="346" y1="28.2969" y2="28.2969"/><text fill="#000000" font-family="sans-serif" font-size="14" font-weight="bold" lengthAdjust="spacingAndGlyphs" textLength="317" x="20" y="20.9951">nz.ac.vuw.ecs.swen225.gp20.commons</text><!--MD5=[10e34608824e75870b6da760af4bf850]
class nz.ac.vuw.ecs.swen225.gp20.commons.Direction--><a href="Direction.html" target="_top" title="Direction.html" xlink:actuate="onRequest" xlink:href="Direction.html" xlink:show="new" xlink:title="Direction.html" xlink:type="simple"><rect codeLine="3" fill="#FEFECE" filter="url(#fliysk4fe342x)" height="112.0234" id="nz.ac.vuw.ecs.swen225.gp20.commons.Direction" style="stroke: #A80036; stroke-width: 1.5;" width="127" x="32.5" y="41"/><ellipse cx="65.05" cy="57" fill="#EB937F" rx="11" ry="11" style="stroke: #A80036; stroke-width: 1.0;"/><path d="M69.1594,63 L61.4406,63 L61.4406,50.6094 L69.1594,50.6094 L69.1594,52.7656 L63.8938,52.7656 L63.8938,55.4375 L68.6594,55.4375 L68.6594,57.5938 L63.8938,57.5938 L63.8938,60.8438 L69.1594,60.8438 L69.1594,63 Z "/><text fill="#000000" font-family="sans-serif" font-size="12" lengthAdjust="spacingAndGlyphs" textLength="56" x="82.95" y="61.1543">Direction</text><line style="stroke: #A80036; stroke-width: 1.5;" x1="33.5" x2="158.5" y1="73" y2="73"/><ellipse cx="43.5" cy="84" fill="none" rx="3" ry="3" style="stroke: #038048; stroke-width: 1.0;"/><text fill="#000000" font-family="sans-serif" font-size="11" lengthAdjust="spacingAndGlyphs" text-decoration="underline" textLength="15" x="52.5" y="87.2104">UP</text><ellipse cx="43.5" cy="96.8047" fill="none" rx="3" ry="3" style="stroke: #038048; stroke-width: 1.0;"/><text fill="#000000" font-family="sans-serif" font-size="11" lengthAdjust="spacingAndGlyphs" text-decoration="underline" textLength="34" x="52.5" y="100.0151">DOWN</text><ellipse cx="43.5" cy="109.6094" fill="none" rx="3" ry="3" style="stroke: #038048; stroke-width: 1.0;"/><text fill="#000000" font-family="sans-serif" font-size="11" lengthAdjust="spacingAndGlyphs" text-decoration="underline" textLength="26" x="52.5" y="112.8198">LEFT</text><ellipse cx="43.5" cy="122.4141" fill="none" rx="3" ry="3" style="stroke: #038048; stroke-width: 1.0;"/><text fill="#000000" font-family="sans-serif" font-size="11" lengthAdjust="spacingAndGlyphs" text-decoration="underline" textLength="34" x="52.5" y="125.6245">RIGHT</text><line style="stroke: #A80036; stroke-width: 1.5;" x1="33.5" x2="158.5" y1="132.2188" y2="132.2188"/><ellipse cx="43.5" cy="143.2188" fill="#84BE84" rx="3" ry="3" style="stroke: #038048; stroke-width: 1.0;"/><text fill="#000000" font-family="sans-serif" font-size="11" lengthAdjust="spacingAndGlyphs" textLength="101" x="52.5" y="146.4292">getName(): String</text></a><!--MD5=[8efa1d9b0fbdea605d4b75315c4103ea]
class nz.ac.vuw.ecs.swen225.gp20.commons.FileChooser--><a href="FileChooser.html" target="_top" title="FileChooser.html" xlink:actuate="onRequest" xlink:href="FileChooser.html" xlink:show="new" xlink:title="FileChooser.html" xlink:type="simple"><rect codeLine="11" fill="#FEFECE" filter="url(#fliysk4fe342x)" height="86.4141" id="nz.ac.vuw.ecs.swen225.gp20.commons.FileChooser" style="stroke: #A80036; stroke-width: 1.5;" width="248" x="195" y="54"/><ellipse cx="278.25" cy="70" fill="#ADD1B2" rx="11" ry="11" style="stroke: #A80036; stroke-width: 1.0;"/><path d="M281.2188,75.6406 Q280.6406,75.9375 280,76.0781 Q279.3594,76.2344 278.6563,76.2344 Q276.1563,76.2344 274.8281,74.5938 Q273.5156,72.9375 273.5156,69.8125 Q273.5156,66.6875 274.8281,65.0313 Q276.1563,63.375 278.6563,63.375 Q279.3594,63.375 280,63.5313 Q280.6563,63.6875 281.2188,63.9844 L281.2188,66.7031 Q280.5938,66.125 280,65.8594 Q279.4063,65.5781 278.7813,65.5781 Q277.4375,65.5781 276.75,66.6563 Q276.0625,67.7188 276.0625,69.8125 Q276.0625,71.9063 276.75,72.9844 Q277.4375,74.0469 278.7813,74.0469 Q279.4063,74.0469 280,73.7813 Q280.5938,73.5 281.2188,72.9219 L281.2188,75.6406 Z "/><text fill="#000000" font-family="sans-serif" font-size="12" lengthAdjust="spacingAndGlyphs" textLength="73" x="298.75" y="74.1543">FileChooser</text><line style="stroke: #A80036; stroke-width: 1.5;" x1="196" x2="442" y1="86" y2="86"/><line style="stroke: #A80036; stroke-width: 1.5;" x1="196" x2="442" y1="94" y2="94"/><ellipse cx="206" cy="105" fill="#84BE84" rx="3" ry="3" style="stroke: #038048; stroke-width: 1.0;"/><text fill="#000000" font-family="sans-serif" font-size="11" lengthAdjust="spacingAndGlyphs" text-decoration="underline" textLength="222" x="215" y="108.2104">saveToFile(Gui, JsonArray, String): void</text><ellipse cx="206" cy="117.8047" fill="#84BE84" rx="3" ry="3" style="stroke: #038048; stroke-width: 1.0;"/><text fill="#000000" font-family="sans-serif" font-size="11" lengthAdjust="spacingAndGlyphs" text-decoration="underline" textLength="198" x="215" y="121.0151">getJsonFileToLoad(Gui, String): File</text><ellipse cx="206" cy="130.6094" fill="#84BE84" rx="3" ry="3" style="stroke: #038048; stroke-width: 1.0;"/><text fill="#000000" font-family="sans-serif" font-size="11" lengthAdjust="spacingAndGlyphs" text-decoration="underline" textLength="175" x="215" y="133.8198">getFileToSave(Gui, String): File</text></a><!--MD5=[ef6fc9161222cf988cca82867fb8fab3]
class nz.ac.vuw.ecs.swen225.gp20.commons.Sound--><a href="Sound.html" target="_top" title="Sound.html" xlink:actuate="onRequest" xlink:href="Sound.html" xlink:show="new" xlink:title="Sound.html" xlink:type="simple"><rect codeLine="17" fill="#FEFECE" filter="url(#fliysk4fe342x)" height="163.2422" id="nz.ac.vuw.ecs.swen225.gp20.commons.Sound" style="stroke: #A80036; stroke-width: 1.5;" width="145" x="32.5" y="213"/><ellipse cx="80.75" cy="229" fill="#EB937F" rx="11" ry="11" style="stroke: #A80036; stroke-width: 1.0;"/><path d="M84.8594,235 L77.1406,235 L77.1406,222.6094 L84.8594,222.6094 L84.8594,224.7656 L79.5938,224.7656 L79.5938,227.4375 L84.3594,227.4375 L84.3594,229.5938 L79.5938,229.5938 L79.5938,232.8438 L84.8594,232.8438 L84.8594,235 Z "/><text fill="#000000" font-family="sans-serif" font-size="12" lengthAdjust="spacingAndGlyphs" textLength="40" x="101.25" y="233.1543">Sound</text><line style="stroke: #A80036; stroke-width: 1.5;" x1="33.5" x2="176.5" y1="245" y2="245"/><ellipse cx="43.5" cy="256" fill="none" rx="3" ry="3" style="stroke: #038048; stroke-width: 1.0;"/><text fill="#000000" font-family="sans-serif" font-size="11" lengthAdjust="spacingAndGlyphs" text-decoration="underline" textLength="85" x="52.5" y="259.2104">UNLOCK_DOOR</text><ellipse cx="43.5" cy="268.8047" fill="none" rx="3" ry="3" style="stroke: #038048; stroke-width: 1.0;"/><text fill="#000000" font-family="sans-serif" font-size="11" lengthAdjust="spacingAndGlyphs" text-decoration="underline" textLength="71" x="52.5" y="272.0151">HIT_BY_MOB</text><ellipse cx="43.5" cy="281.6094" fill="none" rx="3" ry="3" style="stroke: #038048; stroke-width: 1.0;"/><text fill="#000000" font-family="sans-serif" font-size="11" lengthAdjust="spacingAndGlyphs" text-decoration="underline" textLength="78" x="52.5" y="284.8198">PICK_UP_ITEM</text><ellipse cx="43.5" cy="294.4141" fill="none" rx="3" ry="3" style="stroke: #038048; stroke-width: 1.0;"/><text fill="#000000" font-family="sans-serif" font-size="11" lengthAdjust="spacingAndGlyphs" text-decoration="underline" textLength="24" x="52.5" y="297.6245">EXIT</text><ellipse cx="43.5" cy="307.2188" fill="none" rx="3" ry="3" style="stroke: #038048; stroke-width: 1.0;"/><text fill="#000000" font-family="sans-serif" font-size="11" lengthAdjust="spacingAndGlyphs" text-decoration="underline" textLength="62" x="52.5" y="310.4292">INFO_FIELD</text><ellipse cx="43.5" cy="320.0234" fill="none" rx="3" ry="3" style="stroke: #038048; stroke-width: 1.0;"/><text fill="#000000" font-family="sans-serif" font-size="11" lengthAdjust="spacingAndGlyphs" text-decoration="underline" textLength="29" x="52.5" y="323.2339">STEP</text><ellipse cx="43.5" cy="332.8281" fill="none" rx="3" ry="3" style="stroke: #038048; stroke-width: 1.0;"/><text fill="#000000" font-family="sans-serif" font-size="11" lengthAdjust="spacingAndGlyphs" text-decoration="underline" textLength="39" x="52.5" y="336.0386">COBRA</text><ellipse cx="43.5" cy="345.6328" fill="none" rx="3" ry="3" style="stroke: #038048; stroke-width: 1.0;"/><text fill="#000000" font-family="sans-serif" font-size="11" lengthAdjust="spacingAndGlyphs" text-decoration="underline" textLength="76" x="52.5" y="348.8433">MOVE_BLOCK</text><line style="stroke: #A80036; stroke-width: 1.5;" x1="33.5" x2="176.5" y1="355.4375" y2="355.4375"/><ellipse cx="43.5" cy="366.4375" fill="#84BE84" rx="3" ry="3" style="stroke: #038048; stroke-width: 1.0;"/><text fill="#000000" font-family="sans-serif" font-size="11" lengthAdjust="spacingAndGlyphs" textLength="119" x="52.5" y="369.6479">getFilename(): String</text></a><!--MD5=[de6c0333cd935f5f9d7da40e74aa7bf9]
link nz.ac.vuw.ecs.swen225.gp20.commons.Direction to nz.ac.vuw.ecs.swen225.gp20.commons.FileChooser--><!--MD5=[0b938500f5f77390d1e7d695bfc917f5]
link nz.ac.vuw.ecs.swen225.gp20.commons.Direction to nz.ac.vuw.ecs.swen225.gp20.commons.Sound--><text fill="#888888" font-family="sans-serif" font-size="10" lengthAdjust="spacingAndGlyphs" textLength="192" x="135.5" y="407.2822">UMLDoclet 2.0.12, PlantUML 1.2020.16</text><!--MD5=[7b3392190f3c164b7480868dc0ba26b6]
@startuml
    namespace nz.ac.vuw.ecs.swen225.gp20.commons {

        enum Direction [[Direction.html]] {
            {static} +UP
            {static} +DOWN
            {static} +LEFT
            {static} +RIGHT
            +getName(): String
        }

        class FileChooser [[FileChooser.html]] {
            {static} +saveToFile(Gui, JsonArray, String): void
            {static} +getJsonFileToLoad(Gui, String): File
            {static} +getFileToSave(Gui, String): File
        }

        enum Sound [[Sound.html]] {
            {static} +UNLOCK_DOOR
            {static} +HIT_BY_MOB
            {static} +PICK_UP_ITEM
            {static} +EXIT
            {static} +INFO_FIELD
            {static} +STEP
            {static} +COBRA
            {static} +MOVE_BLOCK
            +getFilename(): String
        }

    }

    center footer UMLDoclet 2.0.12, PlantUML 1.2020.16
@enduml

PlantUML version 1.2020.16(Mon Aug 24 08:20:43 NZST 2020)
(APACHE source distribution)
Java Runtime: OpenJDK Runtime Environment
JVM: OpenJDK 64-Bit Server VM
Default Encoding: UTF-8
Language: en
Country: null
--></g></svg>